G04 #@! TF.GenerationSoftware,KiCad,Pcbnew,7.0.11+dfsg-1build4*
G04 #@! TF.CreationDate,2025-11-12T09:37:38+01:00*
G04 #@! TF.ProjectId,upp10A_pico,75707031-3041-45f7-9069-636f2e6b6963,rev?*
G04 #@! TF.SameCoordinates,Original*
G04 #@! TF.FileFunction,Soldermask,Top*
G04 #@! TF.FilePolarity,Negative*
%FSLAX46Y46*%
G04 Gerber Fmt 4.6, Leading zero omitted, Abs format (unit mm)*
G04 Created by KiCad (PCBNEW 7.0.11+dfsg-1build4) date 2025-11-12 09:37:38*
%MOMM*%
%LPD*%
G01*
G04 APERTURE LIST*
G04 Aperture macros list*
%AMRoundRect*
0 Rectangle with rounded corners*
0 $1 Rounding radius*
0 $2 $3 $4 $5 $6 $7 $8 $9 X,Y pos of 4 corners*
0 Add a 4 corners polygon primitive as box body*
4,1,4,$2,$3,$4,$5,$6,$7,$8,$9,$2,$3,0*
0 Add four circle primitives for the rounded corners*
1,1,$1+$1,$2,$3*
1,1,$1+$1,$4,$5*
1,1,$1+$1,$6,$7*
1,1,$1+$1,$8,$9*
0 Add four rect primitives between the rounded corners*
20,1,$1+$1,$2,$3,$4,$5,0*
20,1,$1+$1,$4,$5,$6,$7,0*
20,1,$1+$1,$6,$7,$8,$9,0*
20,1,$1+$1,$8,$9,$2,$3,0*%
G04 Aperture macros list end*
%ADD10C,2.000000*%
%ADD11R,1.600000X1.600000*%
%ADD12C,1.600000*%
%ADD13RoundRect,0.250000X0.450000X-0.350000X0.450000X0.350000X-0.450000X0.350000X-0.450000X-0.350000X0*%
%ADD14RoundRect,0.250000X-0.450000X0.350000X-0.450000X-0.350000X0.450000X-0.350000X0.450000X0.350000X0*%
%ADD15RoundRect,0.250000X-0.475000X0.337500X-0.475000X-0.337500X0.475000X-0.337500X0.475000X0.337500X0*%
%ADD16RoundRect,0.250000X0.350000X0.450000X-0.350000X0.450000X-0.350000X-0.450000X0.350000X-0.450000X0*%
%ADD17O,1.600000X1.600000*%
%ADD18RoundRect,0.250000X-0.350000X-0.450000X0.350000X-0.450000X0.350000X0.450000X-0.350000X0.450000X0*%
%ADD19RoundRect,0.150000X-0.587500X-0.150000X0.587500X-0.150000X0.587500X0.150000X-0.587500X0.150000X0*%
%ADD20RoundRect,0.250000X0.337500X0.475000X-0.337500X0.475000X-0.337500X-0.475000X0.337500X-0.475000X0*%
%ADD21C,6.400000*%
%ADD22R,1.600000X3.100000*%
%ADD23RoundRect,0.150000X0.825000X0.150000X-0.825000X0.150000X-0.825000X-0.150000X0.825000X-0.150000X0*%
%ADD24RoundRect,0.250000X0.475000X-0.337500X0.475000X0.337500X-0.475000X0.337500X-0.475000X-0.337500X0*%
%ADD25RoundRect,0.150000X-0.150000X0.587500X-0.150000X-0.587500X0.150000X-0.587500X0.150000X0.587500X0*%
%ADD26RoundRect,0.250000X-0.450000X0.325000X-0.450000X-0.325000X0.450000X-0.325000X0.450000X0.325000X0*%
%ADD27RoundRect,0.250000X-0.337500X-0.475000X0.337500X-0.475000X0.337500X0.475000X-0.337500X0.475000X0*%
%ADD28R,1.700000X1.700000*%
%ADD29O,1.700000X1.700000*%
%ADD30R,1.500000X1.500000*%
%ADD31O,1.500000X1.500000*%
%ADD32RoundRect,0.150000X0.587500X0.150000X-0.587500X0.150000X-0.587500X-0.150000X0.587500X-0.150000X0*%
%ADD33R,2.800000X2.800000*%
%ADD34O,2.800000X2.800000*%
G04 #@! TA.AperFunction,Profile*
%ADD35C,0.050000*%
G04 #@! TD*
G04 APERTURE END LIST*
D10*
X52324000Y-72390000D03*
D11*
X86193621Y-77724000D03*
D12*
X88693621Y-77724000D03*
D13*
X107696000Y-118856000D03*
X107696000Y-116856000D03*
D14*
X116332000Y-74184000D03*
X116332000Y-76184000D03*
D15*
X92964000Y-74898500D03*
X92964000Y-76973500D03*
D13*
X134112000Y-76184000D03*
X134112000Y-74184000D03*
D16*
X114030000Y-111760000D03*
X112030000Y-111760000D03*
X114030000Y-107950000D03*
X112030000Y-107950000D03*
D14*
X43688000Y-109760000D03*
X43688000Y-111760000D03*
D11*
X36820000Y-95235000D03*
D17*
X36820000Y-92695000D03*
X36820000Y-90155000D03*
X36820000Y-87615000D03*
X36820000Y-85075000D03*
X36820000Y-82535000D03*
X36820000Y-79995000D03*
X36820000Y-77455000D03*
X29200000Y-77455000D03*
X29200000Y-79995000D03*
X29200000Y-82535000D03*
X29200000Y-85075000D03*
X29200000Y-87615000D03*
X29200000Y-90155000D03*
X29200000Y-92695000D03*
X29200000Y-95235000D03*
D11*
X98298000Y-102616000D03*
D17*
X105918000Y-102616000D03*
D18*
X75692000Y-78232000D03*
X77692000Y-78232000D03*
X36592000Y-99060000D03*
X38592000Y-99060000D03*
D16*
X105648000Y-91440000D03*
X103648000Y-91440000D03*
D11*
X88148000Y-83820000D03*
D17*
X88148000Y-86360000D03*
X88148000Y-88900000D03*
X88148000Y-91440000D03*
X95768000Y-91440000D03*
X95768000Y-88900000D03*
X95768000Y-86360000D03*
X95768000Y-83820000D03*
D11*
X105704000Y-85344000D03*
D12*
X108204000Y-85344000D03*
D19*
X31653000Y-104206000D03*
X31653000Y-106106000D03*
X33528000Y-105156000D03*
D13*
X78740000Y-93456000D03*
X78740000Y-91456000D03*
D14*
X123952000Y-74184000D03*
X123952000Y-76184000D03*
D20*
X96055000Y-80000000D03*
X93980000Y-80000000D03*
D15*
X97028000Y-95207000D03*
X97028000Y-97282000D03*
D21*
X132080000Y-121920000D03*
D22*
X133350000Y-82423000D03*
X130810000Y-82423000D03*
X128270000Y-82423000D03*
X125730000Y-82423000D03*
X123190000Y-82423000D03*
X120650000Y-82423000D03*
X118110000Y-82423000D03*
X115570000Y-82423000D03*
X115570000Y-91313000D03*
X118110000Y-91313000D03*
X120650000Y-91313000D03*
X123190000Y-91313000D03*
X125730000Y-91313000D03*
X128270000Y-91313000D03*
X130810000Y-91313000D03*
X133350000Y-91313000D03*
D23*
X85025000Y-109855000D03*
X85025000Y-108585000D03*
X85025000Y-107315000D03*
X85025000Y-106045000D03*
X85025000Y-104775000D03*
X85025000Y-103505000D03*
X85025000Y-102235000D03*
X85025000Y-100965000D03*
X80075000Y-100965000D03*
X80075000Y-102235000D03*
X80075000Y-103505000D03*
X80075000Y-104775000D03*
X80075000Y-106045000D03*
X80075000Y-107315000D03*
X80075000Y-108585000D03*
X80075000Y-109855000D03*
D10*
X75184000Y-116078000D03*
D19*
X37084000Y-104140000D03*
X37084000Y-106040000D03*
X38959000Y-105090000D03*
D11*
X48260000Y-95250000D03*
D17*
X48260000Y-92710000D03*
X48260000Y-90170000D03*
X48260000Y-87630000D03*
X48260000Y-85090000D03*
X48260000Y-82550000D03*
X48260000Y-80010000D03*
X40640000Y-80010000D03*
X40640000Y-82550000D03*
X40640000Y-85090000D03*
X40640000Y-87630000D03*
X40640000Y-90170000D03*
X40640000Y-92710000D03*
X40640000Y-95250000D03*
D21*
X30480000Y-121920000D03*
D13*
X128270000Y-96742000D03*
X128270000Y-94742000D03*
D24*
X50800000Y-111803000D03*
X50800000Y-109728000D03*
D19*
X42672000Y-104206000D03*
X42672000Y-106106000D03*
X44547000Y-105156000D03*
D13*
X40640000Y-111760000D03*
X40640000Y-109760000D03*
D25*
X105598000Y-95153000D03*
X103698000Y-95153000D03*
X104648000Y-97028000D03*
D14*
X121412000Y-74184000D03*
X121412000Y-76184000D03*
X126492000Y-74200000D03*
X126492000Y-76200000D03*
D26*
X47244000Y-109735000D03*
X47244000Y-111785000D03*
D27*
X81766500Y-112776000D03*
X83841500Y-112776000D03*
D10*
X75184000Y-113030000D03*
D18*
X75708000Y-75184000D03*
X77708000Y-75184000D03*
X116840000Y-107950000D03*
X118840000Y-107950000D03*
D25*
X111186000Y-95153000D03*
X109286000Y-95153000D03*
X110236000Y-97028000D03*
D16*
X111236000Y-91440000D03*
X109236000Y-91440000D03*
D13*
X129032000Y-76184000D03*
X129032000Y-74184000D03*
D16*
X114030000Y-102870000D03*
X112030000Y-102870000D03*
D20*
X91461500Y-104140000D03*
X89386500Y-104140000D03*
D11*
X119370000Y-123180000D03*
D17*
X119370000Y-120640000D03*
X119370000Y-118100000D03*
X119370000Y-115560000D03*
X111750000Y-115560000D03*
X111750000Y-118100000D03*
X111750000Y-120640000D03*
X111750000Y-123180000D03*
D28*
X38100000Y-68580000D03*
D29*
X40640000Y-68580000D03*
X43180000Y-68580000D03*
X45720000Y-68580000D03*
X48260000Y-68580000D03*
D28*
X56388000Y-68580000D03*
D29*
X58928000Y-68580000D03*
X61468000Y-68580000D03*
D27*
X89386500Y-107717500D03*
X91461500Y-107717500D03*
D16*
X100584000Y-80000000D03*
X98584000Y-80000000D03*
D21*
X30480000Y-66040000D03*
D28*
X47720000Y-119380000D03*
D29*
X45180000Y-119380000D03*
X42640000Y-119380000D03*
X40100000Y-119380000D03*
X37560000Y-119380000D03*
D15*
X96012000Y-74898500D03*
X96012000Y-76973500D03*
D19*
X48338500Y-104206000D03*
X48338500Y-106106000D03*
X50213500Y-105156000D03*
D30*
X99568000Y-91684000D03*
D31*
X99568000Y-84064000D03*
D28*
X93980000Y-68580000D03*
D29*
X96520000Y-68580000D03*
X99060000Y-68580000D03*
D13*
X131572000Y-76184000D03*
X131572000Y-74184000D03*
X131572000Y-96742000D03*
X131572000Y-94742000D03*
D11*
X83439000Y-83907621D03*
D12*
X83439000Y-86407621D03*
D28*
X113030000Y-68310000D03*
D29*
X115570000Y-68310000D03*
X118110000Y-68310000D03*
X120650000Y-68310000D03*
X123190000Y-68310000D03*
D18*
X117110000Y-102870000D03*
X119110000Y-102870000D03*
D13*
X75692000Y-93472000D03*
X75692000Y-91472000D03*
D28*
X83820000Y-119380000D03*
D29*
X81280000Y-119380000D03*
X78740000Y-119380000D03*
D32*
X49276000Y-76576000D03*
X49276000Y-74676000D03*
X47401000Y-75626000D03*
D13*
X122936000Y-116824000D03*
X122936000Y-114824000D03*
D11*
X72390000Y-123190000D03*
D17*
X72390000Y-120650000D03*
X72390000Y-118110000D03*
X72390000Y-115570000D03*
X72390000Y-113030000D03*
X72390000Y-110490000D03*
X72390000Y-107950000D03*
X72390000Y-105410000D03*
X72390000Y-102870000D03*
X72390000Y-100330000D03*
X72390000Y-97790000D03*
X72390000Y-95250000D03*
X72390000Y-92710000D03*
X72390000Y-90170000D03*
X72390000Y-87630000D03*
X72390000Y-85090000D03*
X72390000Y-82550000D03*
X72390000Y-80010000D03*
X72390000Y-77470000D03*
X72390000Y-74930000D03*
X54610000Y-74930000D03*
X54610000Y-77470000D03*
X54610000Y-80010000D03*
X54610000Y-82550000D03*
X54610000Y-85090000D03*
X54610000Y-87630000D03*
X54610000Y-90170000D03*
X54610000Y-92710000D03*
X54610000Y-95250000D03*
X54610000Y-97790000D03*
X54610000Y-100330000D03*
X54610000Y-102870000D03*
X54610000Y-105410000D03*
X54610000Y-107950000D03*
X54610000Y-110490000D03*
X54610000Y-113030000D03*
X54610000Y-115570000D03*
X54610000Y-118110000D03*
X54610000Y-120650000D03*
X54610000Y-123190000D03*
D13*
X124968000Y-96742000D03*
X124968000Y-94742000D03*
D28*
X96535000Y-119380000D03*
D29*
X93995000Y-119380000D03*
X91455000Y-119380000D03*
D18*
X116840000Y-111760000D03*
X118840000Y-111760000D03*
D13*
X121412000Y-96742000D03*
X121412000Y-94742000D03*
X118872000Y-76184000D03*
X118872000Y-74184000D03*
D28*
X72385000Y-68580000D03*
D29*
X74925000Y-68580000D03*
X77465000Y-68580000D03*
X80005000Y-68580000D03*
X82545000Y-68580000D03*
X85085000Y-68580000D03*
X87625000Y-68580000D03*
D11*
X105704000Y-76708000D03*
D12*
X108204000Y-76708000D03*
D11*
X89956000Y-96764000D03*
D12*
X92456000Y-96764000D03*
D33*
X107188000Y-109220000D03*
D34*
X97028000Y-109220000D03*
D28*
X129540000Y-102870000D03*
D29*
X129540000Y-105410000D03*
X129540000Y-107950000D03*
X129540000Y-110490000D03*
X129540000Y-113030000D03*
D27*
X89386500Y-111252000D03*
X91461500Y-111252000D03*
D21*
X132080000Y-66040000D03*
D35*
X25400000Y-127000000D02*
X137160000Y-127000000D01*
X25400000Y-60960000D02*
X25400000Y-127000000D01*
X137160000Y-60960000D02*
X25400000Y-60960000D01*
X137160000Y-127000000D02*
X137160000Y-60960000D01*
M02*
