G04 #@! TF.GenerationSoftware,KiCad,Pcbnew,7.0.11+dfsg-1build4*
G04 #@! TF.CreationDate,2025-11-12T09:37:38+01:00*
G04 #@! TF.ProjectId,upp10A_pico,75707031-3041-45f7-9069-636f2e6b6963,rev?*
G04 #@! TF.SameCoordinates,Original*
G04 #@! TF.FileFunction,Soldermask,Bot*
G04 #@! TF.FilePolarity,Negative*
%FSLAX46Y46*%
G04 Gerber Fmt 4.6, Leading zero omitted, Abs format (unit mm)*
G04 Created by KiCad (PCBNEW 7.0.11+dfsg-1build4) date 2025-11-12 09:37:38*
%MOMM*%
%LPD*%
G01*
G04 APERTURE LIST*
%ADD10C,2.000000*%
%ADD11R,1.600000X1.600000*%
%ADD12C,1.600000*%
%ADD13O,1.600000X1.600000*%
%ADD14C,6.400000*%
%ADD15R,1.700000X1.700000*%
%ADD16O,1.700000X1.700000*%
%ADD17R,1.500000X1.500000*%
%ADD18O,1.500000X1.500000*%
%ADD19R,2.800000X2.800000*%
%ADD20O,2.800000X2.800000*%
G04 #@! TA.AperFunction,Profile*
%ADD21C,0.050000*%
G04 #@! TD*
G04 APERTURE END LIST*
D10*
X52324000Y-72390000D03*
D11*
X86193621Y-77724000D03*
D12*
X88693621Y-77724000D03*
D11*
X36820000Y-95235000D03*
D13*
X36820000Y-92695000D03*
X36820000Y-90155000D03*
X36820000Y-87615000D03*
X36820000Y-85075000D03*
X36820000Y-82535000D03*
X36820000Y-79995000D03*
X36820000Y-77455000D03*
X29200000Y-77455000D03*
X29200000Y-79995000D03*
X29200000Y-82535000D03*
X29200000Y-85075000D03*
X29200000Y-87615000D03*
X29200000Y-90155000D03*
X29200000Y-92695000D03*
X29200000Y-95235000D03*
D11*
X98298000Y-102616000D03*
D13*
X105918000Y-102616000D03*
D11*
X88148000Y-83820000D03*
D13*
X88148000Y-86360000D03*
X88148000Y-88900000D03*
X88148000Y-91440000D03*
X95768000Y-91440000D03*
X95768000Y-88900000D03*
X95768000Y-86360000D03*
X95768000Y-83820000D03*
D11*
X105704000Y-85344000D03*
D12*
X108204000Y-85344000D03*
D14*
X132080000Y-121920000D03*
D10*
X75184000Y-116078000D03*
D11*
X48260000Y-95250000D03*
D13*
X48260000Y-92710000D03*
X48260000Y-90170000D03*
X48260000Y-87630000D03*
X48260000Y-85090000D03*
X48260000Y-82550000D03*
X48260000Y-80010000D03*
X40640000Y-80010000D03*
X40640000Y-82550000D03*
X40640000Y-85090000D03*
X40640000Y-87630000D03*
X40640000Y-90170000D03*
X40640000Y-92710000D03*
X40640000Y-95250000D03*
D14*
X30480000Y-121920000D03*
D10*
X75184000Y-113030000D03*
D11*
X119370000Y-123180000D03*
D13*
X119370000Y-120640000D03*
X119370000Y-118100000D03*
X119370000Y-115560000D03*
X111750000Y-115560000D03*
X111750000Y-118100000D03*
X111750000Y-120640000D03*
X111750000Y-123180000D03*
D15*
X38100000Y-68580000D03*
D16*
X40640000Y-68580000D03*
X43180000Y-68580000D03*
X45720000Y-68580000D03*
X48260000Y-68580000D03*
D15*
X56388000Y-68580000D03*
D16*
X58928000Y-68580000D03*
X61468000Y-68580000D03*
D14*
X30480000Y-66040000D03*
D15*
X47720000Y-119380000D03*
D16*
X45180000Y-119380000D03*
X42640000Y-119380000D03*
X40100000Y-119380000D03*
X37560000Y-119380000D03*
D17*
X99568000Y-91684000D03*
D18*
X99568000Y-84064000D03*
D15*
X93980000Y-68580000D03*
D16*
X96520000Y-68580000D03*
X99060000Y-68580000D03*
D11*
X83439000Y-83907621D03*
D12*
X83439000Y-86407621D03*
D15*
X113030000Y-68310000D03*
D16*
X115570000Y-68310000D03*
X118110000Y-68310000D03*
X120650000Y-68310000D03*
X123190000Y-68310000D03*
D15*
X83820000Y-119380000D03*
D16*
X81280000Y-119380000D03*
X78740000Y-119380000D03*
D11*
X72390000Y-123190000D03*
D13*
X72390000Y-120650000D03*
X72390000Y-118110000D03*
X72390000Y-115570000D03*
X72390000Y-113030000D03*
X72390000Y-110490000D03*
X72390000Y-107950000D03*
X72390000Y-105410000D03*
X72390000Y-102870000D03*
X72390000Y-100330000D03*
X72390000Y-97790000D03*
X72390000Y-95250000D03*
X72390000Y-92710000D03*
X72390000Y-90170000D03*
X72390000Y-87630000D03*
X72390000Y-85090000D03*
X72390000Y-82550000D03*
X72390000Y-80010000D03*
X72390000Y-77470000D03*
X72390000Y-74930000D03*
X54610000Y-74930000D03*
X54610000Y-77470000D03*
X54610000Y-80010000D03*
X54610000Y-82550000D03*
X54610000Y-85090000D03*
X54610000Y-87630000D03*
X54610000Y-90170000D03*
X54610000Y-92710000D03*
X54610000Y-95250000D03*
X54610000Y-97790000D03*
X54610000Y-100330000D03*
X54610000Y-102870000D03*
X54610000Y-105410000D03*
X54610000Y-107950000D03*
X54610000Y-110490000D03*
X54610000Y-113030000D03*
X54610000Y-115570000D03*
X54610000Y-118110000D03*
X54610000Y-120650000D03*
X54610000Y-123190000D03*
D15*
X96535000Y-119380000D03*
D16*
X93995000Y-119380000D03*
X91455000Y-119380000D03*
D15*
X72385000Y-68580000D03*
D16*
X74925000Y-68580000D03*
X77465000Y-68580000D03*
X80005000Y-68580000D03*
X82545000Y-68580000D03*
X85085000Y-68580000D03*
X87625000Y-68580000D03*
D11*
X105704000Y-76708000D03*
D12*
X108204000Y-76708000D03*
D11*
X89956000Y-96764000D03*
D12*
X92456000Y-96764000D03*
D19*
X107188000Y-109220000D03*
D20*
X97028000Y-109220000D03*
D15*
X129540000Y-102870000D03*
D16*
X129540000Y-105410000D03*
X129540000Y-107950000D03*
X129540000Y-110490000D03*
X129540000Y-113030000D03*
D14*
X132080000Y-66040000D03*
D21*
X25400000Y-127000000D02*
X137160000Y-127000000D01*
X25400000Y-60960000D02*
X25400000Y-127000000D01*
X137160000Y-60960000D02*
X25400000Y-60960000D01*
X137160000Y-127000000D02*
X137160000Y-60960000D01*
M02*
