M48
INCH,TZ
T1C0.0197
T2C0.0295
T3C0.0315
T4C0.0315
T5C0.0394
T6C0.0551
T7C0.1260
%
G90
G05
T1
X11000Y-28000
X11000Y-39500
X11000Y-43500
X11000Y-46000
X12750Y-39950
X13000Y-28000
X13500Y-34500
X13900Y-40500
X13950Y-41418
X14000Y-25000
X14000Y-48000
X14300Y-43500
X15300Y-37000
X16100Y-38900
X16200Y-41550
X17100Y-37000
X17700Y-36000
X17700Y-45200
X18200Y-41300
X18510Y-42008
X19200Y-39000
X19900Y-44900
X20500Y-49300
X22150Y-39000
X22300Y-40000
X22400Y-28100
X22400Y-42150
X22600Y-40900
X22650Y-33550
X23150Y-34500
X23542Y-35500
X26500Y-27000
X27000Y-49000
X27700Y-40800
X27700Y-43600
X29500Y-27900
X29500Y-35100
X29500Y-43300
X29500Y-49000
X29800Y-24700
X29900Y-47400
X29950Y-39400
X30200Y-32900
X30600Y-38200
X31300Y-43900
X32000Y-46000
X32500Y-39500
X32500Y-41500
X32800Y-28500
X32800Y-38100
X32900Y-32100
X32950Y-35100
X33300Y-37350
X34000Y-44000
X34500Y-49000
X35600Y-32000
X35617Y-39700
X35617Y-40300
X35700Y-44500
X35800Y-36600
X36400Y-39700
X36900Y-40300
X37073Y-39327
X37700Y-40400
X38600Y-28700
X38800Y-45800
X39000Y-38600
X39000Y-42000
X39074Y-37050
X39500Y-49000
X40000Y-35407
X40100Y-29800
X40200Y-36700
X40300Y-38700
X40350Y-37500
X41400Y-46100
X41500Y-25500
X41594Y-36800
X41800Y-35200
X42100Y-38700
X42200Y-37400
X42300Y-36200
X42600Y-45100
X42700Y-38150
X43000Y-35200
X43774Y-36800
X44300Y-28000
X44300Y-35200
X44400Y-37900
X44700Y-34700
X44800Y-33800
X44969Y-45969
X45200Y-39600
X45300Y-41300
X45500Y-43300
X45500Y-45400
X45500Y-49000
X45600Y-34500
X45600Y-37200
X46000Y-39800
X46000Y-44600
X46200Y-37000
X46500Y-37900
X46800Y-28600
X46900Y-33800
X47200Y-41700
X47300Y-34300
X47300Y-43500
X47700Y-31200
X48400Y-34400
X48500Y-43500
X48623Y-31277
X48800Y-28600
X48800Y-41200
X49000Y-44500
X49527Y-30673
X49800Y-39400
X50000Y-26500
X50000Y-46500
X50000Y-49000
X50600Y-28600
X51800Y-38800
X52800Y-28600
X53000Y-31000
X53000Y-34000
X53000Y-39000
X53000Y-46000
T2
X39200Y-33096
X39200Y-36096
T3
X12700Y-37100
X15000Y-25400
X19700Y-24728
X25700Y-24669
X25700Y-46500
X25800Y-31500
X25800Y-36500
X25800Y-41600
X29000Y-25400
X34500Y-24669
X35900Y-26100
T4
X11496Y-30494
X11496Y-31494
X11496Y-32494
X11496Y-33494
X11496Y-34494
X11496Y-35494
X11496Y-36494
X11496Y-37494
X14496Y-30494
X14496Y-31494
X14496Y-32494
X14496Y-33494
X14496Y-34494
X14496Y-35494
X14496Y-36494
X14496Y-37494
X16000Y-31500
X16000Y-32500
X16000Y-33500
X16000Y-34500
X16000Y-35500
X16000Y-36500
X16000Y-37500
X19000Y-31500
X19000Y-32500
X19000Y-33500
X19000Y-34500
X19000Y-35500
X19000Y-36500
X19000Y-37500
X21500Y-29500
X21500Y-30500
X21500Y-31500
X21500Y-32500
X21500Y-33500
X21500Y-34500
X21500Y-35500
X21500Y-36500
X21500Y-37500
X21500Y-38500
X21500Y-39500
X21500Y-40500
X21500Y-41500
X21500Y-42500
X21500Y-43500
X21500Y-44500
X21500Y-45500
X21500Y-46500
X21500Y-47500
X21500Y-48500
X28500Y-29500
X28500Y-30500
X28500Y-31500
X28500Y-32500
X28500Y-33500
X28500Y-34500
X28500Y-35500
X28500Y-36500
X28500Y-37500
X28500Y-38500
X28500Y-39500
X28500Y-40500
X28500Y-41500
X28500Y-42500
X28500Y-43500
X28500Y-44500
X28500Y-45500
X28500Y-46500
X28500Y-47500
X28500Y-48500
X32850Y-33034
X32850Y-34019
X33934Y-30600
X34704Y-33000
X34704Y-34000
X34704Y-35000
X34704Y-36000
X34919Y-30600
X35416Y-38096
X36400Y-38096
X37704Y-33000
X37704Y-34000
X37704Y-35000
X37704Y-36000
X38700Y-40400
X41616Y-30200
X41616Y-33600
X41700Y-40400
X42600Y-30200
X42600Y-33600
X43996Y-45496
X43996Y-46496
X43996Y-47496
X43996Y-48496
X46996Y-45496
X46996Y-46496
X46996Y-47496
X46996Y-48496
T5
X14787Y-47000
X15000Y-27000
X15787Y-47000
X16000Y-27000
X16787Y-47000
X17000Y-27000
X17787Y-47000
X18000Y-27000
X18787Y-47000
X19000Y-27000
X20600Y-28500
X22200Y-27000
X23200Y-27000
X24200Y-27000
X28498Y-27000
X29498Y-27000
X29600Y-44500
X29600Y-45700
X30498Y-27000
X31000Y-47000
X31498Y-27000
X32000Y-47000
X32498Y-27000
X33000Y-47000
X33498Y-27000
X34498Y-27000
X36006Y-47000
X37000Y-27000
X37006Y-47000
X38000Y-27000
X38006Y-47000
X39000Y-27000
X44500Y-26894
X45500Y-26894
X46500Y-26894
X47500Y-26894
X48500Y-26894
X51000Y-40500
X51000Y-41500
X51000Y-42500
X51000Y-43500
X51000Y-44500
T6
X38200Y-43000
X42200Y-43000
T7
X12000Y-26000
X12000Y-48000
X52000Y-26000
X52000Y-48000
M30
