%TF.GenerationSoftware,KiCad,Pcbnew,7.0.11+dfsg-1build4*%
%TF.CreationDate,2025-09-15T10:53:29+02:00*%
%TF.ProjectId,upp10a3v1.1,75707031-3061-4337-9631-2e312e6b6963,rev?*%
%TF.SameCoordinates,Original*%
%TF.FileFunction,Legend,Bot*%
%TF.FilePolarity,Positive*%
%FSLAX46Y46*%
G04 Gerber Fmt 4.6, Leading zero omitted, Abs format (unit mm)*
G04 Created by KiCad (PCBNEW 7.0.11+dfsg-1build4) date 2025-09-15 10:53:29*
%MOMM*%
%LPD*%
G01*
G04 APERTURE LIST*
%ADD10C,0.150000*%
%ADD11C,0.120000*%
G04 APERTURE END LIST*
D10*
X72864819Y-90678095D02*
X73674342Y-90678095D01*
X73674342Y-90678095D02*
X73769580Y-90725714D01*
X73769580Y-90725714D02*
X73817200Y-90773333D01*
X73817200Y-90773333D02*
X73864819Y-90868571D01*
X73864819Y-90868571D02*
X73864819Y-91059047D01*
X73864819Y-91059047D02*
X73817200Y-91154285D01*
X73817200Y-91154285D02*
X73769580Y-91201904D01*
X73769580Y-91201904D02*
X73674342Y-91249523D01*
X73674342Y-91249523D02*
X72864819Y-91249523D01*
X72960057Y-91678095D02*
X72912438Y-91725714D01*
X72912438Y-91725714D02*
X72864819Y-91820952D01*
X72864819Y-91820952D02*
X72864819Y-92059047D01*
X72864819Y-92059047D02*
X72912438Y-92154285D01*
X72912438Y-92154285D02*
X72960057Y-92201904D01*
X72960057Y-92201904D02*
X73055295Y-92249523D01*
X73055295Y-92249523D02*
X73150533Y-92249523D01*
X73150533Y-92249523D02*
X73293390Y-92201904D01*
X73293390Y-92201904D02*
X73864819Y-91630476D01*
X73864819Y-91630476D02*
X73864819Y-92249523D01*
X72864819Y-117348095D02*
X73674342Y-117348095D01*
X73674342Y-117348095D02*
X73769580Y-117395714D01*
X73769580Y-117395714D02*
X73817200Y-117443333D01*
X73817200Y-117443333D02*
X73864819Y-117538571D01*
X73864819Y-117538571D02*
X73864819Y-117729047D01*
X73864819Y-117729047D02*
X73817200Y-117824285D01*
X73817200Y-117824285D02*
X73769580Y-117871904D01*
X73769580Y-117871904D02*
X73674342Y-117919523D01*
X73674342Y-117919523D02*
X72864819Y-117919523D01*
X73864819Y-118919523D02*
X73864819Y-118348095D01*
X73864819Y-118633809D02*
X72864819Y-118633809D01*
X72864819Y-118633809D02*
X73007676Y-118538571D01*
X73007676Y-118538571D02*
X73102914Y-118443333D01*
X73102914Y-118443333D02*
X73150533Y-118348095D01*
X108751666Y-80623580D02*
X108799285Y-80671200D01*
X108799285Y-80671200D02*
X108942142Y-80718819D01*
X108942142Y-80718819D02*
X109037380Y-80718819D01*
X109037380Y-80718819D02*
X109180237Y-80671200D01*
X109180237Y-80671200D02*
X109275475Y-80575961D01*
X109275475Y-80575961D02*
X109323094Y-80480723D01*
X109323094Y-80480723D02*
X109370713Y-80290247D01*
X109370713Y-80290247D02*
X109370713Y-80147390D01*
X109370713Y-80147390D02*
X109323094Y-79956914D01*
X109323094Y-79956914D02*
X109275475Y-79861676D01*
X109275475Y-79861676D02*
X109180237Y-79766438D01*
X109180237Y-79766438D02*
X109037380Y-79718819D01*
X109037380Y-79718819D02*
X108942142Y-79718819D01*
X108942142Y-79718819D02*
X108799285Y-79766438D01*
X108799285Y-79766438D02*
X108751666Y-79814057D01*
X108418332Y-79718819D02*
X107751666Y-79718819D01*
X107751666Y-79718819D02*
X108180237Y-80718819D01*
X82081666Y-100253580D02*
X82129285Y-100301200D01*
X82129285Y-100301200D02*
X82272142Y-100348819D01*
X82272142Y-100348819D02*
X82367380Y-100348819D01*
X82367380Y-100348819D02*
X82510237Y-100301200D01*
X82510237Y-100301200D02*
X82605475Y-100205961D01*
X82605475Y-100205961D02*
X82653094Y-100110723D01*
X82653094Y-100110723D02*
X82700713Y-99920247D01*
X82700713Y-99920247D02*
X82700713Y-99777390D01*
X82700713Y-99777390D02*
X82653094Y-99586914D01*
X82653094Y-99586914D02*
X82605475Y-99491676D01*
X82605475Y-99491676D02*
X82510237Y-99396438D01*
X82510237Y-99396438D02*
X82367380Y-99348819D01*
X82367380Y-99348819D02*
X82272142Y-99348819D01*
X82272142Y-99348819D02*
X82129285Y-99396438D01*
X82129285Y-99396438D02*
X82081666Y-99444057D01*
X81176904Y-99348819D02*
X81653094Y-99348819D01*
X81653094Y-99348819D02*
X81700713Y-99825009D01*
X81700713Y-99825009D02*
X81653094Y-99777390D01*
X81653094Y-99777390D02*
X81557856Y-99729771D01*
X81557856Y-99729771D02*
X81319761Y-99729771D01*
X81319761Y-99729771D02*
X81224523Y-99777390D01*
X81224523Y-99777390D02*
X81176904Y-99825009D01*
X81176904Y-99825009D02*
X81129285Y-99920247D01*
X81129285Y-99920247D02*
X81129285Y-100158342D01*
X81129285Y-100158342D02*
X81176904Y-100253580D01*
X81176904Y-100253580D02*
X81224523Y-100301200D01*
X81224523Y-100301200D02*
X81319761Y-100348819D01*
X81319761Y-100348819D02*
X81557856Y-100348819D01*
X81557856Y-100348819D02*
X81653094Y-100301200D01*
X81653094Y-100301200D02*
X81700713Y-100253580D01*
X98553166Y-130208580D02*
X98600785Y-130256200D01*
X98600785Y-130256200D02*
X98743642Y-130303819D01*
X98743642Y-130303819D02*
X98838880Y-130303819D01*
X98838880Y-130303819D02*
X98981737Y-130256200D01*
X98981737Y-130256200D02*
X99076975Y-130160961D01*
X99076975Y-130160961D02*
X99124594Y-130065723D01*
X99124594Y-130065723D02*
X99172213Y-129875247D01*
X99172213Y-129875247D02*
X99172213Y-129732390D01*
X99172213Y-129732390D02*
X99124594Y-129541914D01*
X99124594Y-129541914D02*
X99076975Y-129446676D01*
X99076975Y-129446676D02*
X98981737Y-129351438D01*
X98981737Y-129351438D02*
X98838880Y-129303819D01*
X98838880Y-129303819D02*
X98743642Y-129303819D01*
X98743642Y-129303819D02*
X98600785Y-129351438D01*
X98600785Y-129351438D02*
X98553166Y-129399057D01*
X97981737Y-129732390D02*
X98076975Y-129684771D01*
X98076975Y-129684771D02*
X98124594Y-129637152D01*
X98124594Y-129637152D02*
X98172213Y-129541914D01*
X98172213Y-129541914D02*
X98172213Y-129494295D01*
X98172213Y-129494295D02*
X98124594Y-129399057D01*
X98124594Y-129399057D02*
X98076975Y-129351438D01*
X98076975Y-129351438D02*
X97981737Y-129303819D01*
X97981737Y-129303819D02*
X97791261Y-129303819D01*
X97791261Y-129303819D02*
X97696023Y-129351438D01*
X97696023Y-129351438D02*
X97648404Y-129399057D01*
X97648404Y-129399057D02*
X97600785Y-129494295D01*
X97600785Y-129494295D02*
X97600785Y-129541914D01*
X97600785Y-129541914D02*
X97648404Y-129637152D01*
X97648404Y-129637152D02*
X97696023Y-129684771D01*
X97696023Y-129684771D02*
X97791261Y-129732390D01*
X97791261Y-129732390D02*
X97981737Y-129732390D01*
X97981737Y-129732390D02*
X98076975Y-129780009D01*
X98076975Y-129780009D02*
X98124594Y-129827628D01*
X98124594Y-129827628D02*
X98172213Y-129922866D01*
X98172213Y-129922866D02*
X98172213Y-130113342D01*
X98172213Y-130113342D02*
X98124594Y-130208580D01*
X98124594Y-130208580D02*
X98076975Y-130256200D01*
X98076975Y-130256200D02*
X97981737Y-130303819D01*
X97981737Y-130303819D02*
X97791261Y-130303819D01*
X97791261Y-130303819D02*
X97696023Y-130256200D01*
X97696023Y-130256200D02*
X97648404Y-130208580D01*
X97648404Y-130208580D02*
X97600785Y-130113342D01*
X97600785Y-130113342D02*
X97600785Y-129922866D01*
X97600785Y-129922866D02*
X97648404Y-129827628D01*
X97648404Y-129827628D02*
X97696023Y-129780009D01*
X97696023Y-129780009D02*
X97791261Y-129732390D01*
X67095666Y-103959819D02*
X67428999Y-103483628D01*
X67667094Y-103959819D02*
X67667094Y-102959819D01*
X67667094Y-102959819D02*
X67286142Y-102959819D01*
X67286142Y-102959819D02*
X67190904Y-103007438D01*
X67190904Y-103007438D02*
X67143285Y-103055057D01*
X67143285Y-103055057D02*
X67095666Y-103150295D01*
X67095666Y-103150295D02*
X67095666Y-103293152D01*
X67095666Y-103293152D02*
X67143285Y-103388390D01*
X67143285Y-103388390D02*
X67190904Y-103436009D01*
X67190904Y-103436009D02*
X67286142Y-103483628D01*
X67286142Y-103483628D02*
X67667094Y-103483628D01*
X66714713Y-103055057D02*
X66667094Y-103007438D01*
X66667094Y-103007438D02*
X66571856Y-102959819D01*
X66571856Y-102959819D02*
X66333761Y-102959819D01*
X66333761Y-102959819D02*
X66238523Y-103007438D01*
X66238523Y-103007438D02*
X66190904Y-103055057D01*
X66190904Y-103055057D02*
X66143285Y-103150295D01*
X66143285Y-103150295D02*
X66143285Y-103245533D01*
X66143285Y-103245533D02*
X66190904Y-103388390D01*
X66190904Y-103388390D02*
X66762332Y-103959819D01*
X66762332Y-103959819D02*
X66143285Y-103959819D01*
X82208666Y-115421580D02*
X82256285Y-115469200D01*
X82256285Y-115469200D02*
X82399142Y-115516819D01*
X82399142Y-115516819D02*
X82494380Y-115516819D01*
X82494380Y-115516819D02*
X82637237Y-115469200D01*
X82637237Y-115469200D02*
X82732475Y-115373961D01*
X82732475Y-115373961D02*
X82780094Y-115278723D01*
X82780094Y-115278723D02*
X82827713Y-115088247D01*
X82827713Y-115088247D02*
X82827713Y-114945390D01*
X82827713Y-114945390D02*
X82780094Y-114754914D01*
X82780094Y-114754914D02*
X82732475Y-114659676D01*
X82732475Y-114659676D02*
X82637237Y-114564438D01*
X82637237Y-114564438D02*
X82494380Y-114516819D01*
X82494380Y-114516819D02*
X82399142Y-114516819D01*
X82399142Y-114516819D02*
X82256285Y-114564438D01*
X82256285Y-114564438D02*
X82208666Y-114612057D01*
X81351523Y-114516819D02*
X81541999Y-114516819D01*
X81541999Y-114516819D02*
X81637237Y-114564438D01*
X81637237Y-114564438D02*
X81684856Y-114612057D01*
X81684856Y-114612057D02*
X81780094Y-114754914D01*
X81780094Y-114754914D02*
X81827713Y-114945390D01*
X81827713Y-114945390D02*
X81827713Y-115326342D01*
X81827713Y-115326342D02*
X81780094Y-115421580D01*
X81780094Y-115421580D02*
X81732475Y-115469200D01*
X81732475Y-115469200D02*
X81637237Y-115516819D01*
X81637237Y-115516819D02*
X81446761Y-115516819D01*
X81446761Y-115516819D02*
X81351523Y-115469200D01*
X81351523Y-115469200D02*
X81303904Y-115421580D01*
X81303904Y-115421580D02*
X81256285Y-115326342D01*
X81256285Y-115326342D02*
X81256285Y-115088247D01*
X81256285Y-115088247D02*
X81303904Y-114993009D01*
X81303904Y-114993009D02*
X81351523Y-114945390D01*
X81351523Y-114945390D02*
X81446761Y-114897771D01*
X81446761Y-114897771D02*
X81637237Y-114897771D01*
X81637237Y-114897771D02*
X81732475Y-114945390D01*
X81732475Y-114945390D02*
X81780094Y-114993009D01*
X81780094Y-114993009D02*
X81827713Y-115088247D01*
X69737266Y-129670980D02*
X69784885Y-129718600D01*
X69784885Y-129718600D02*
X69927742Y-129766219D01*
X69927742Y-129766219D02*
X70022980Y-129766219D01*
X70022980Y-129766219D02*
X70165837Y-129718600D01*
X70165837Y-129718600D02*
X70261075Y-129623361D01*
X70261075Y-129623361D02*
X70308694Y-129528123D01*
X70308694Y-129528123D02*
X70356313Y-129337647D01*
X70356313Y-129337647D02*
X70356313Y-129194790D01*
X70356313Y-129194790D02*
X70308694Y-129004314D01*
X70308694Y-129004314D02*
X70261075Y-128909076D01*
X70261075Y-128909076D02*
X70165837Y-128813838D01*
X70165837Y-128813838D02*
X70022980Y-128766219D01*
X70022980Y-128766219D02*
X69927742Y-128766219D01*
X69927742Y-128766219D02*
X69784885Y-128813838D01*
X69784885Y-128813838D02*
X69737266Y-128861457D01*
X69403932Y-128766219D02*
X68784885Y-128766219D01*
X68784885Y-128766219D02*
X69118218Y-129147171D01*
X69118218Y-129147171D02*
X68975361Y-129147171D01*
X68975361Y-129147171D02*
X68880123Y-129194790D01*
X68880123Y-129194790D02*
X68832504Y-129242409D01*
X68832504Y-129242409D02*
X68784885Y-129337647D01*
X68784885Y-129337647D02*
X68784885Y-129575742D01*
X68784885Y-129575742D02*
X68832504Y-129670980D01*
X68832504Y-129670980D02*
X68880123Y-129718600D01*
X68880123Y-129718600D02*
X68975361Y-129766219D01*
X68975361Y-129766219D02*
X69261075Y-129766219D01*
X69261075Y-129766219D02*
X69356313Y-129718600D01*
X69356313Y-129718600D02*
X69403932Y-129670980D01*
X64047666Y-101165819D02*
X64380999Y-100689628D01*
X64619094Y-101165819D02*
X64619094Y-100165819D01*
X64619094Y-100165819D02*
X64238142Y-100165819D01*
X64238142Y-100165819D02*
X64142904Y-100213438D01*
X64142904Y-100213438D02*
X64095285Y-100261057D01*
X64095285Y-100261057D02*
X64047666Y-100356295D01*
X64047666Y-100356295D02*
X64047666Y-100499152D01*
X64047666Y-100499152D02*
X64095285Y-100594390D01*
X64095285Y-100594390D02*
X64142904Y-100642009D01*
X64142904Y-100642009D02*
X64238142Y-100689628D01*
X64238142Y-100689628D02*
X64619094Y-100689628D01*
X63095285Y-101165819D02*
X63666713Y-101165819D01*
X63380999Y-101165819D02*
X63380999Y-100165819D01*
X63380999Y-100165819D02*
X63476237Y-100308676D01*
X63476237Y-100308676D02*
X63571475Y-100403914D01*
X63571475Y-100403914D02*
X63666713Y-100451533D01*
X71667666Y-79281580D02*
X71715285Y-79329200D01*
X71715285Y-79329200D02*
X71858142Y-79376819D01*
X71858142Y-79376819D02*
X71953380Y-79376819D01*
X71953380Y-79376819D02*
X72096237Y-79329200D01*
X72096237Y-79329200D02*
X72191475Y-79233961D01*
X72191475Y-79233961D02*
X72239094Y-79138723D01*
X72239094Y-79138723D02*
X72286713Y-78948247D01*
X72286713Y-78948247D02*
X72286713Y-78805390D01*
X72286713Y-78805390D02*
X72239094Y-78614914D01*
X72239094Y-78614914D02*
X72191475Y-78519676D01*
X72191475Y-78519676D02*
X72096237Y-78424438D01*
X72096237Y-78424438D02*
X71953380Y-78376819D01*
X71953380Y-78376819D02*
X71858142Y-78376819D01*
X71858142Y-78376819D02*
X71715285Y-78424438D01*
X71715285Y-78424438D02*
X71667666Y-78472057D01*
X70810523Y-78710152D02*
X70810523Y-79376819D01*
X71048618Y-78329200D02*
X71286713Y-79043485D01*
X71286713Y-79043485D02*
X70667666Y-79043485D01*
X70397666Y-99347580D02*
X70445285Y-99395200D01*
X70445285Y-99395200D02*
X70588142Y-99442819D01*
X70588142Y-99442819D02*
X70683380Y-99442819D01*
X70683380Y-99442819D02*
X70826237Y-99395200D01*
X70826237Y-99395200D02*
X70921475Y-99299961D01*
X70921475Y-99299961D02*
X70969094Y-99204723D01*
X70969094Y-99204723D02*
X71016713Y-99014247D01*
X71016713Y-99014247D02*
X71016713Y-98871390D01*
X71016713Y-98871390D02*
X70969094Y-98680914D01*
X70969094Y-98680914D02*
X70921475Y-98585676D01*
X70921475Y-98585676D02*
X70826237Y-98490438D01*
X70826237Y-98490438D02*
X70683380Y-98442819D01*
X70683380Y-98442819D02*
X70588142Y-98442819D01*
X70588142Y-98442819D02*
X70445285Y-98490438D01*
X70445285Y-98490438D02*
X70397666Y-98538057D01*
X70016713Y-98538057D02*
X69969094Y-98490438D01*
X69969094Y-98490438D02*
X69873856Y-98442819D01*
X69873856Y-98442819D02*
X69635761Y-98442819D01*
X69635761Y-98442819D02*
X69540523Y-98490438D01*
X69540523Y-98490438D02*
X69492904Y-98538057D01*
X69492904Y-98538057D02*
X69445285Y-98633295D01*
X69445285Y-98633295D02*
X69445285Y-98728533D01*
X69445285Y-98728533D02*
X69492904Y-98871390D01*
X69492904Y-98871390D02*
X70064332Y-99442819D01*
X70064332Y-99442819D02*
X69445285Y-99442819D01*
D11*
%TO.C,U2*%
X62050000Y-91440000D02*
X62050000Y-87580000D01*
X62050000Y-87580000D02*
X62305000Y-87580000D01*
X62050000Y-91440000D02*
X62050000Y-95300000D01*
X62050000Y-95300000D02*
X62305000Y-95300000D01*
X72570000Y-91440000D02*
X72570000Y-87580000D01*
X72570000Y-87580000D02*
X72315000Y-87580000D01*
X72570000Y-91440000D02*
X72570000Y-95300000D01*
X72570000Y-95300000D02*
X72315000Y-95300000D01*
X72785000Y-96492500D02*
X72315000Y-96152500D01*
X72785000Y-95812500D01*
X72785000Y-96492500D01*
G36*
X72785000Y-96492500D02*
G01*
X72315000Y-96152500D01*
X72785000Y-95812500D01*
X72785000Y-96492500D01*
G37*
%TO.C,U1*%
X62050000Y-118110000D02*
X62050000Y-114250000D01*
X62050000Y-114250000D02*
X62305000Y-114250000D01*
X62050000Y-118110000D02*
X62050000Y-121970000D01*
X62050000Y-121970000D02*
X62305000Y-121970000D01*
X72570000Y-118110000D02*
X72570000Y-114250000D01*
X72570000Y-114250000D02*
X72315000Y-114250000D01*
X72570000Y-118110000D02*
X72570000Y-121970000D01*
X72570000Y-121970000D02*
X72315000Y-121970000D01*
X72785000Y-123162500D02*
X72315000Y-122822500D01*
X72785000Y-122482500D01*
X72785000Y-123162500D01*
G36*
X72785000Y-123162500D02*
G01*
X72315000Y-122822500D01*
X72785000Y-122482500D01*
X72785000Y-123162500D01*
G37*
%TO.C,C7*%
X105135000Y-80428752D02*
X105135000Y-79006248D01*
X106955000Y-80428752D02*
X106955000Y-79006248D01*
%TO.C,C5*%
X81203748Y-97134000D02*
X82626252Y-97134000D01*
X81203748Y-98954000D02*
X82626252Y-98954000D01*
%TO.C,C8*%
X99097752Y-132609000D02*
X97675248Y-132609000D01*
X99097752Y-130789000D02*
X97675248Y-130789000D01*
%TO.C,R2*%
X62391936Y-102595000D02*
X63846064Y-102595000D01*
X62391936Y-104415000D02*
X63846064Y-104415000D01*
%TO.C,C6*%
X81203748Y-116184000D02*
X82626252Y-116184000D01*
X81203748Y-118004000D02*
X82626252Y-118004000D01*
%TO.C,C3*%
X70281852Y-128189400D02*
X68859348Y-128189400D01*
X70281852Y-126369400D02*
X68859348Y-126369400D01*
%TO.C,R1*%
X59343936Y-99674000D02*
X60798064Y-99674000D01*
X59343936Y-101494000D02*
X60798064Y-101494000D01*
%TO.C,C4*%
X72212252Y-81682000D02*
X70789748Y-81682000D01*
X72212252Y-79862000D02*
X70789748Y-79862000D01*
%TO.C,C2*%
X70942252Y-101748000D02*
X69519748Y-101748000D01*
X70942252Y-99928000D02*
X69519748Y-99928000D01*
%TD*%
M02*
