M48
; DRILL file {KiCad 7.0.11+dfsg-1build4} date Mon 15 Sep 2025 10:53:41 AM CEST
; FORMAT={2:4/ absolute / inch / suppress leading zeros}
; #@! TF.CreationDate,2025-09-15T10:53:41+02:00
; #@! TF.GenerationSoftware,Kicad,Pcbnew,7.0.11+dfsg-1build4
; #@! TF.FileFunction,Plated,1,2,PTH
FMAT,2
INCH,TZ
; #@! TA.AperFunction,Plated,PTH,ViaDrill
T1C0.0200
; #@! TA.AperFunction,Plated,PTH,ComponentDrill
T2C0.0315
; #@! TA.AperFunction,Plated,PTH,ComponentDrill
T3C0.0394
; #@! TA.AperFunction,Plated,PTH,ComponentDrill
T4C0.0472
%
G90
G05
T1
X21000Y-31000
X21000Y-53000
X22000Y-38500
X22000Y-50500
X23000Y-51500
X24000Y-32500
X24050Y-36850
X24050Y-47990
X25450Y-41450
X26080Y-49260
X26500Y-39700
X26500Y-52500
X27000Y-31800
X27150Y-41400
X27250Y-45680
X27260Y-33410
X27260Y-42400
X27455Y-36905
X27860Y-33410
X28000Y-42520
X28000Y-45680
X28800Y-45520
X28800Y-47810
X28800Y-49580
X28850Y-34800
X28850Y-37340
X28850Y-39750
X30750Y-46050
X31000Y-49500
X31000Y-51500
X31150Y-38050
X31500Y-31500
X32000Y-37000
X32000Y-41450
X33400Y-38600
X33500Y-31500
X33500Y-46100
X36500Y-34000
X36500Y-44000
X36500Y-51500
X37500Y-41000
X37500Y-48500
X38500Y-34000
X38500Y-38000
X41100Y-30663
X41500Y-52500
X41950Y-33000
X42500Y-39000
X42500Y-41000
X42550Y-50850
X42900Y-32950
X43000Y-31000
X43500Y-53000
X44150Y-49200
X44700Y-49870
X46490Y-47240
X46500Y-31000
X46500Y-36000
X46500Y-41000
X46510Y-44080
T2
X24500Y-51250
X25484Y-51250
X29750Y-31650
X29750Y-32650
X29750Y-33650
X29750Y-34650
X29750Y-35650
X29750Y-36650
X29750Y-37650
X29750Y-38650
X29750Y-39650
X29750Y-40650
X29750Y-42750
X29750Y-43750
X29750Y-44750
X29750Y-45750
X29750Y-46750
X29750Y-47750
X29750Y-48750
X29750Y-49750
X29750Y-50750
X29750Y-51750
X32000Y-32500
X32000Y-35500
X32000Y-40002
X32000Y-43002
X32000Y-47500
X32000Y-50500
X33000Y-32500
X33000Y-35500
X33000Y-40002
X33000Y-43002
X33000Y-47500
X33000Y-50500
X34000Y-32500
X34000Y-35500
X34000Y-40002
X34000Y-43002
X34000Y-47500
X34000Y-50500
X35000Y-32500
X35000Y-35500
X35000Y-40002
X35000Y-43002
X35000Y-47500
X35000Y-50500
X36000Y-32500
X36000Y-35500
X36000Y-40002
X36000Y-43002
X36000Y-47500
X36000Y-50500
X37000Y-32500
X37000Y-35500
X37000Y-40002
X37000Y-43002
X37000Y-47500
X37000Y-50500
X38000Y-32500
X38000Y-35500
X38000Y-40002
X38000Y-43002
X38000Y-47500
X38000Y-50500
X40500Y-31750
X40500Y-32750
X40500Y-33750
X40500Y-34750
X40500Y-35750
X40500Y-36750
X40500Y-37750
X40500Y-38750
X40500Y-39750
X40500Y-40750
X40500Y-42750
X40500Y-43750
X40500Y-44750
X40500Y-45750
X40500Y-46750
X40500Y-47750
X40500Y-48750
X40500Y-49750
X40500Y-50750
X40500Y-51750
T3
X43500Y-35500
X43500Y-36500
X43500Y-37500
X43500Y-38500
X43500Y-39500
X43500Y-40500
X43500Y-41500
X43500Y-42500
X43500Y-43500
X43500Y-44500
X43500Y-45500
X43500Y-46500
X43500Y-47500
X44500Y-35500
X44500Y-36500
X44500Y-37500
X44500Y-38500
X44500Y-39500
X44500Y-40500
X44500Y-41500
X44500Y-42500
X44500Y-43500
X44500Y-44500
X44500Y-45500
X44500Y-46500
X44500Y-47500
T4
X22000Y-34000
X22000Y-35378
X22000Y-41610
X22000Y-42988
X22000Y-44366
X22000Y-45744
X22000Y-47122
X22000Y-48500
M30
