%TF.GenerationSoftware,KiCad,Pcbnew,7.0.11+dfsg-1build4*%
%TF.CreationDate,2025-09-12T14:57:25+02:00*%
%TF.ProjectId,upp10a3v1.1,75707031-3061-4337-9631-2e312e6b6963,rev?*%
%TF.SameCoordinates,Original*%
%TF.FileFunction,Copper,L1,Top*%
%TF.FilePolarity,Positive*%
%FSLAX46Y46*%
G04 Gerber Fmt 4.6, Leading zero omitted, Abs format (unit mm)*
G04 Created by KiCad (PCBNEW 7.0.11+dfsg-1build4) date 2025-09-12 14:57:25*
%MOMM*%
%LPD*%
G01*
G04 APERTURE LIST*
G04 Aperture macros list*
%AMRoundRect*
0 Rectangle with rounded corners*
0 $1 Rounding radius*
0 $2 $3 $4 $5 $6 $7 $8 $9 X,Y pos of 4 corners*
0 Add a 4 corners polygon primitive as box body*
4,1,4,$2,$3,$4,$5,$6,$7,$8,$9,$2,$3,0*
0 Add four circle primitives for the rounded corners*
1,1,$1+$1,$2,$3*
1,1,$1+$1,$4,$5*
1,1,$1+$1,$6,$7*
1,1,$1+$1,$8,$9*
0 Add four rect primitives between the rounded corners*
20,1,$1+$1,$2,$3,$4,$5,0*
20,1,$1+$1,$4,$5,$6,$7,0*
20,1,$1+$1,$6,$7,$8,$9,0*
20,1,$1+$1,$8,$9,$2,$3,0*%
G04 Aperture macros list end*
%TA.AperFunction,ComponentPad*%
%ADD10R,1.600000X1.600000*%
%TD*%
%TA.AperFunction,ComponentPad*%
%ADD11O,1.600000X1.600000*%
%TD*%
%TA.AperFunction,ComponentPad*%
%ADD12RoundRect,0.250000X-0.600000X-0.600000X0.600000X-0.600000X0.600000X0.600000X-0.600000X0.600000X0*%
%TD*%
%TA.AperFunction,ComponentPad*%
%ADD13C,1.700000*%
%TD*%
%TA.AperFunction,ComponentPad*%
%ADD14RoundRect,0.250000X1.550000X-0.650000X1.550000X0.650000X-1.550000X0.650000X-1.550000X-0.650000X0*%
%TD*%
%TA.AperFunction,ComponentPad*%
%ADD15O,3.600000X1.800000*%
%TD*%
%TA.AperFunction,ComponentPad*%
%ADD16C,1.600000*%
%TD*%
%TA.AperFunction,ViaPad*%
%ADD17C,1.016000*%
%TD*%
%TA.AperFunction,Conductor*%
%ADD18C,0.381000*%
%TD*%
%TA.AperFunction,Conductor*%
%ADD19C,0.762000*%
%TD*%
%TA.AperFunction,Conductor*%
%ADD20C,1.524000*%
%TD*%
G04 APERTURE END LIST*
D10*
%TO.P,RN1,1,common*%
%TO.N,/+5V*%
X75565000Y-131445000D03*
D11*
%TO.P,RN1,2,R1*%
%TO.N,unconnected-(RN1-R1-Pad2)*%
X75565000Y-128905000D03*
%TO.P,RN1,3,R2*%
%TO.N,unconnected-(RN1-R2-Pad3)*%
X75565000Y-126365000D03*
%TO.P,RN1,4,R3*%
%TO.N,Net-(RN1-R3)*%
X75565000Y-123825000D03*
%TO.P,RN1,5,R4*%
%TO.N,Net-(RN1-R4)*%
X75565000Y-121285000D03*
%TO.P,RN1,6,R5*%
%TO.N,Net-(RN1-R5)*%
X75565000Y-118745000D03*
%TO.P,RN1,7,R6*%
%TO.N,Net-(RN1-R6)*%
X75565000Y-116205000D03*
%TO.P,RN1,8,R7*%
%TO.N,Net-(RN1-R7)*%
X75565000Y-113665000D03*
%TO.P,RN1,9,R8*%
%TO.N,Net-(RN1-R8)*%
X75565000Y-111125000D03*
%TO.P,RN1,10,R9*%
%TO.N,Net-(RN1-R9)*%
X75565000Y-108585000D03*
%TD*%
D12*
%TO.P,J3,1,Pin_1*%
%TO.N,/AD1*%
X110490000Y-90170000D03*
D13*
%TO.P,J3,2,Pin_2*%
%TO.N,/AD2*%
X113030000Y-90170000D03*
%TO.P,J3,3,Pin_3*%
%TO.N,/GND*%
X110490000Y-92710000D03*
%TO.P,J3,4,Pin_4*%
%TO.N,/AD0*%
X113030000Y-92710000D03*
%TO.P,J3,5,Pin_5*%
%TO.N,/GND*%
X110490000Y-95250000D03*
%TO.P,J3,6,Pin_6*%
X113030000Y-95250000D03*
%TO.P,J3,7,Pin_7*%
X110490000Y-97790000D03*
%TO.P,J3,8,Pin_8*%
X113030000Y-97790000D03*
%TO.P,J3,9,Pin_9*%
%TO.N,/DAC05*%
X110490000Y-100330000D03*
%TO.P,J3,10,Pin_10*%
%TO.N,/DAC04*%
X113030000Y-100330000D03*
%TO.P,J3,11,Pin_11*%
%TO.N,/DAC06*%
X110490000Y-102870000D03*
%TO.P,J3,12,Pin_12*%
%TO.N,/DAC03*%
X113030000Y-102870000D03*
%TO.P,J3,13,Pin_13*%
%TO.N,/DAC07*%
X110490000Y-105410000D03*
%TO.P,J3,14,Pin_14*%
%TO.N,/DAC02*%
X113030000Y-105410000D03*
%TO.P,J3,15,Pin_15*%
%TO.N,/DAC08*%
X110490000Y-107950000D03*
%TO.P,J3,16,Pin_16*%
%TO.N,/DAC01*%
X113030000Y-107950000D03*
%TO.P,J3,17,Pin_17*%
%TO.N,/DAC09*%
X110490000Y-110490000D03*
%TO.P,J3,18,Pin_18*%
%TO.N,/DAC00*%
X113030000Y-110490000D03*
%TO.P,J3,19,Pin_19*%
%TO.N,/DAC10*%
X110490000Y-113030000D03*
%TO.P,J3,20,Pin_20*%
%TO.N,/DAC11*%
X113030000Y-113030000D03*
%TO.P,J3,21,Pin_21*%
%TO.N,/~{WR}*%
X110490000Y-115570000D03*
%TO.P,J3,22,Pin_22*%
X113030000Y-115570000D03*
%TO.P,J3,23,Pin_23*%
%TO.N,/GND*%
X110490000Y-118110000D03*
%TO.P,J3,24,Pin_24*%
X113030000Y-118110000D03*
%TO.P,J3,25,Pin_25*%
%TO.N,/Sig2*%
X110490000Y-120650000D03*
%TO.P,J3,26,Pin_26*%
%TO.N,unconnected-(J3-Pin_26-Pad26)*%
X113030000Y-120650000D03*
%TD*%
D10*
%TO.P,RN2,1,common*%
%TO.N,/+15V*%
X102870000Y-80645000D03*
D11*
%TO.P,RN2,2,R1*%
%TO.N,/AD0*%
X102870000Y-83185000D03*
%TO.P,RN2,3,R2*%
%TO.N,/AD2*%
X102870000Y-85725000D03*
%TO.P,RN2,4,R3*%
%TO.N,/AD1*%
X102870000Y-88265000D03*
%TO.P,RN2,5,R4*%
%TO.N,/DAC04*%
X102870000Y-90805000D03*
%TO.P,RN2,6,R5*%
%TO.N,/DAC03*%
X102870000Y-93345000D03*
%TO.P,RN2,7,R6*%
%TO.N,/DAC01*%
X102870000Y-95885000D03*
%TO.P,RN2,8,R7*%
%TO.N,/DAC02*%
X102870000Y-98425000D03*
%TO.P,RN2,9,R8*%
%TO.N,/DAC05*%
X102870000Y-100965000D03*
%TO.P,RN2,10,R9*%
%TO.N,/DAC06*%
X102870000Y-103505000D03*
%TD*%
D14*
%TO.P,J2,1,Pin_1*%
%TO.N,/GND*%
X55880000Y-89860000D03*
D15*
%TO.P,J2,2,Pin_2*%
%TO.N,/+15V*%
X55880000Y-86360000D03*
%TD*%
D10*
%TO.P,C1,1*%
%TO.N,/+5V*%
X64730000Y-130175000D03*
D16*
%TO.P,C1,2*%
%TO.N,/GND*%
X62230000Y-130175000D03*
%TD*%
D10*
%TO.P,RN5,1,common*%
%TO.N,/+5V*%
X75565000Y-80391000D03*
D11*
%TO.P,RN5,2,R1*%
%TO.N,Net-(RN5-R1)*%
X75565000Y-82931000D03*
%TO.P,RN5,3,R2*%
%TO.N,Net-(RN5-R2)*%
X75565000Y-85471000D03*
%TO.P,RN5,4,R3*%
%TO.N,Net-(RN5-R3)*%
X75565000Y-88011000D03*
%TO.P,RN5,5,R4*%
%TO.N,Net-(RN5-R4)*%
X75565000Y-90551000D03*
%TO.P,RN5,6,R5*%
%TO.N,Net-(RN5-R5)*%
X75565000Y-93091000D03*
%TO.P,RN5,7,R6*%
%TO.N,Net-(RN5-R6)*%
X75565000Y-95631000D03*
%TO.P,RN5,8,R7*%
%TO.N,Net-(RN5-R7)*%
X75565000Y-98171000D03*
%TO.P,RN5,9,R8*%
%TO.N,Net-(RN5-R8)*%
X75565000Y-100711000D03*
%TO.P,RN5,10,R9*%
%TO.N,unconnected-(RN5-R9-Pad10)*%
X75565000Y-103251000D03*
%TD*%
D10*
%TO.P,U5,1*%
%TO.N,Net-(RN5-R6)*%
X81280000Y-90170000D03*
D16*
%TO.P,U5,2*%
%TO.N,/DAC01*%
X83820000Y-90170000D03*
%TO.P,U5,3*%
%TO.N,Net-(RN5-R5)*%
X86360000Y-90170000D03*
%TO.P,U5,4*%
%TO.N,/DAC03*%
X88900000Y-90170000D03*
%TO.P,U5,5*%
%TO.N,Net-(RN5-R4)*%
X91440000Y-90170000D03*
%TO.P,U5,6*%
%TO.N,/DAC04*%
X93980000Y-90170000D03*
%TO.P,U5,7,GND*%
%TO.N,/GND*%
X96520000Y-90170000D03*
%TO.P,U5,8*%
%TO.N,/AD1*%
X96520000Y-82550000D03*
%TO.P,U5,9*%
%TO.N,Net-(RN5-R3)*%
X93980000Y-82550000D03*
%TO.P,U5,10*%
%TO.N,/AD2*%
X91440000Y-82550000D03*
%TO.P,U5,11*%
%TO.N,Net-(RN5-R2)*%
X88900000Y-82550000D03*
%TO.P,U5,12*%
%TO.N,/AD0*%
X86360000Y-82550000D03*
%TO.P,U5,13*%
%TO.N,Net-(RN5-R1)*%
X83820000Y-82550000D03*
%TO.P,U5,14,VCC*%
%TO.N,/+5V*%
X81280000Y-82550000D03*
%TD*%
D14*
%TO.P,J1,1,Pin_1*%
%TO.N,/+5V*%
X55880000Y-123190000D03*
D15*
%TO.P,J1,2,Pin_2*%
%TO.N,Net-(J1-Pin_2)*%
X55880000Y-119690000D03*
%TO.P,J1,3,Pin_3*%
%TO.N,Net-(J1-Pin_3)*%
X55880000Y-116190000D03*
%TO.P,J1,4,Pin_4*%
%TO.N,Net-(J1-Pin_4)*%
X55880000Y-112690000D03*
%TO.P,J1,5,Pin_5*%
%TO.N,/Sig2*%
X55880000Y-109190000D03*
%TO.P,J1,6,Pin_6*%
%TO.N,/GND*%
X55880000Y-105690000D03*
%TD*%
D10*
%TO.P,RN3,1,common*%
%TO.N,/+15V*%
X102870000Y-131445000D03*
D11*
%TO.P,RN3,2,R1*%
%TO.N,unconnected-(RN3-R1-Pad2)*%
X102870000Y-128905000D03*
%TO.P,RN3,3,R2*%
%TO.N,unconnected-(RN3-R2-Pad3)*%
X102870000Y-126365000D03*
%TO.P,RN3,4,R3*%
%TO.N,/~{WR}*%
X102870000Y-123825000D03*
%TO.P,RN3,5,R4*%
%TO.N,/DAC00*%
X102870000Y-121285000D03*
%TO.P,RN3,6,R5*%
%TO.N,/DAC11*%
X102870000Y-118745000D03*
%TO.P,RN3,7,R6*%
%TO.N,/DAC10*%
X102870000Y-116205000D03*
%TO.P,RN3,8,R7*%
%TO.N,/DAC09*%
X102870000Y-113665000D03*
%TO.P,RN3,9,R8*%
%TO.N,/DAC08*%
X102870000Y-111125000D03*
%TO.P,RN3,10,R9*%
%TO.N,/DAC07*%
X102870000Y-108585000D03*
%TD*%
D10*
%TO.P,U4,1*%
%TO.N,/GND*%
X81280000Y-128270000D03*
D16*
%TO.P,U4,2*%
%TO.N,unconnected-(U4-Pad2)*%
X83820000Y-128270000D03*
%TO.P,U4,3*%
%TO.N,/GND*%
X86360000Y-128270000D03*
%TO.P,U4,4*%
%TO.N,unconnected-(U4-Pad4)*%
X88900000Y-128270000D03*
%TO.P,U4,5*%
%TO.N,Net-(J1-Pin_2)*%
X91440000Y-128270000D03*
%TO.P,U4,6*%
%TO.N,/~{WR}*%
X93980000Y-128270000D03*
%TO.P,U4,7,GND*%
%TO.N,/GND*%
X96520000Y-128270000D03*
%TO.P,U4,8*%
%TO.N,/DAC00*%
X96520000Y-120650000D03*
%TO.P,U4,9*%
%TO.N,Net-(RN1-R3)*%
X93980000Y-120650000D03*
%TO.P,U4,10*%
%TO.N,/DAC11*%
X91440000Y-120650000D03*
%TO.P,U4,11*%
%TO.N,Net-(RN1-R4)*%
X88900000Y-120650000D03*
%TO.P,U4,12*%
%TO.N,/DAC10*%
X86360000Y-120650000D03*
%TO.P,U4,13*%
%TO.N,Net-(RN1-R5)*%
X83820000Y-120650000D03*
%TO.P,U4,14,VCC*%
%TO.N,/+5V*%
X81280000Y-120650000D03*
%TD*%
D10*
%TO.P,U3,1*%
%TO.N,Net-(RN1-R8)*%
X81280000Y-109225000D03*
D16*
%TO.P,U3,2*%
%TO.N,/DAC07*%
X83820000Y-109225000D03*
%TO.P,U3,3*%
%TO.N,Net-(RN1-R7)*%
X86360000Y-109225000D03*
%TO.P,U3,4*%
%TO.N,/DAC08*%
X88900000Y-109225000D03*
%TO.P,U3,5*%
%TO.N,Net-(RN1-R6)*%
X91440000Y-109225000D03*
%TO.P,U3,6*%
%TO.N,/DAC09*%
X93980000Y-109225000D03*
%TO.P,U3,7,GND*%
%TO.N,/GND*%
X96520000Y-109225000D03*
%TO.P,U3,8*%
%TO.N,/DAC06*%
X96520000Y-101605000D03*
%TO.P,U3,9*%
%TO.N,Net-(RN1-R9)*%
X93980000Y-101605000D03*
%TO.P,U3,10*%
%TO.N,/DAC05*%
X91440000Y-101605000D03*
%TO.P,U3,11*%
%TO.N,Net-(RN5-R8)*%
X88900000Y-101605000D03*
%TO.P,U3,12*%
%TO.N,/DAC02*%
X86360000Y-101605000D03*
%TO.P,U3,13*%
%TO.N,Net-(RN5-R7)*%
X83820000Y-101605000D03*
%TO.P,U3,14,VCC*%
%TO.N,/+5V*%
X81280000Y-101605000D03*
%TD*%
D17*
%TO.N,/GND*%
X92710000Y-111760000D03*
X85090000Y-80010000D03*
X80010000Y-80010000D03*
X97790000Y-86360000D03*
X97790000Y-96520000D03*
X81280000Y-93980000D03*
X60960000Y-82550000D03*
X55880000Y-97790000D03*
X58420000Y-130810000D03*
X67310000Y-133350000D03*
X118110000Y-120650000D03*
X118110000Y-91440000D03*
X118110000Y-104140000D03*
X109220000Y-78740000D03*
X107950000Y-99060000D03*
X107950000Y-104140000D03*
X105410000Y-133350000D03*
X110490000Y-134620000D03*
X92710000Y-130810000D03*
X95250000Y-123190000D03*
X78740000Y-125730000D03*
X92710000Y-86360000D03*
X95250000Y-104140000D03*
X78740000Y-130810000D03*
X55880000Y-128270000D03*
X53340000Y-134620000D03*
X118110000Y-134620000D03*
X118110000Y-78740000D03*
X53340000Y-78740000D03*
X108077000Y-129159000D03*
X112141000Y-129159000D03*
X66675000Y-124206000D03*
%TO.N,/+5V*%
X73152000Y-124841000D03*
%TO.N,/GND*%
X67310000Y-100838000D03*
%TO.N,/+5V*%
X73279000Y-100965000D03*
%TO.N,/GND*%
X68580000Y-80772000D03*
X104394000Y-77885000D03*
%TO.N,/+5V*%
X79121000Y-96647000D03*
%TO.N,/GND*%
X84836000Y-98044000D03*
%TO.N,/+5V*%
X78105000Y-116967000D03*
%TO.N,/GND*%
X85090000Y-117094000D03*
X68961000Y-105156000D03*
X81280000Y-105283000D03*
%TO.N,Net-(J1-Pin_4)*%
X69215000Y-113411000D03*
X69596000Y-107696000D03*
%TO.N,Net-(J1-Pin_3)*%
X71120000Y-108839000D03*
%TO.N,/GND*%
X64643000Y-105283000D03*
%TO.N,/~{WR}*%
X112141000Y-124968000D03*
%TO.N,/+5V*%
X73152000Y-121793000D03*
X73152000Y-114808000D03*
%TO.N,Net-(J1-Pin_3)*%
X71120000Y-113411000D03*
%TO.N,/+5V*%
X73279000Y-88392000D03*
X73279000Y-92583000D03*
%TO.N,/GND*%
X61087000Y-93599000D03*
X61087000Y-120650000D03*
%TO.N,Net-(J1-Pin_4)*%
X69215000Y-86360000D03*
%TO.N,/DAC04*%
X106553000Y-83820000D03*
%TO.N,/DAC03*%
X108966000Y-83693000D03*
%TO.N,Net-(J1-Pin_3)*%
X71120000Y-86233000D03*
%TD*%
D18*
%TO.N,Net-(J1-Pin_4)*%
X69850000Y-107696000D02*
X71120000Y-106426000D01*
X71120000Y-106426000D02*
X71120000Y-89154000D01*
X71120000Y-89154000D02*
X69215000Y-87249000D01*
X69215000Y-87249000D02*
X69215000Y-86360000D01*
%TO.N,Net-(J1-Pin_3)*%
X71120000Y-108839000D02*
X71882000Y-108077000D01*
X71882000Y-108077000D02*
X71882000Y-86995000D01*
X71882000Y-86995000D02*
X71120000Y-86233000D01*
X71120000Y-113411000D02*
X71755000Y-112776000D01*
X71755000Y-112776000D02*
X71755000Y-109474000D01*
X71755000Y-109474000D02*
X71120000Y-108839000D01*
D19*
%TO.N,/+5V*%
X77470000Y-98811000D02*
X77470000Y-96647000D01*
X77470000Y-96647000D02*
X77470000Y-83312000D01*
X79121000Y-96647000D02*
X77470000Y-96647000D01*
D20*
X78105000Y-105537000D02*
X78105000Y-101600000D01*
X78105000Y-101600000D02*
X78105000Y-99446000D01*
D19*
X79126000Y-101605000D02*
X79121000Y-101600000D01*
X79121000Y-101600000D02*
X78105000Y-101600000D01*
D20*
X73406000Y-105791000D02*
X77851000Y-105791000D01*
X77851000Y-105791000D02*
X78105000Y-105537000D01*
D19*
X81280000Y-101605000D02*
X79126000Y-101605000D01*
X78232000Y-82550000D02*
X79121000Y-82550000D01*
X78105000Y-99446000D02*
X77470000Y-98811000D01*
X77470000Y-83312000D02*
X78232000Y-82550000D01*
X79121000Y-82550000D02*
X78105000Y-82550000D01*
X75946000Y-80391000D02*
X75565000Y-80391000D01*
X78105000Y-82550000D02*
X75946000Y-80391000D01*
D20*
%TO.N,/GND*%
X98698000Y-87268000D02*
X98698000Y-90043000D01*
X97790000Y-86360000D02*
X98698000Y-87268000D01*
X98698000Y-85452000D02*
X97790000Y-86360000D01*
X98698000Y-97428000D02*
X98698000Y-98044000D01*
X97790000Y-96520000D02*
X98698000Y-97428000D01*
X98698000Y-95612000D02*
X97790000Y-96520000D01*
X60960000Y-81915000D02*
X64736000Y-78139000D01*
X60960000Y-82550000D02*
X60960000Y-81915000D01*
X60325000Y-82550000D02*
X60960000Y-82550000D01*
X68326000Y-134366000D02*
X81280000Y-134366000D01*
X67310000Y-133350000D02*
X68326000Y-134366000D01*
X66294000Y-134366000D02*
X67310000Y-133350000D01*
X107696000Y-99314000D02*
X107696000Y-100711000D01*
X107950000Y-99060000D02*
X107696000Y-99314000D01*
X107696000Y-98806000D02*
X107950000Y-99060000D01*
X107696000Y-104394000D02*
X107696000Y-105791000D01*
X107950000Y-104140000D02*
X107696000Y-104394000D01*
X107696000Y-103886000D02*
X107950000Y-104140000D01*
X106045000Y-133350000D02*
X107950000Y-131445000D01*
X105410000Y-133350000D02*
X106045000Y-133350000D01*
X105410000Y-133985000D02*
X105410000Y-133350000D01*
X107950000Y-129159000D02*
X108077000Y-129159000D01*
X112141000Y-129159000D02*
X115951000Y-129159000D01*
D19*
X66675000Y-124206000D02*
X61087000Y-124206000D01*
D20*
X61087000Y-120650000D02*
X61087000Y-124206000D01*
X61087000Y-124206000D02*
X61087000Y-126492000D01*
%TO.N,/+5V*%
X73152000Y-121793000D02*
X73152000Y-124841000D01*
X73152000Y-124841000D02*
X73152000Y-130175000D01*
D19*
%TO.N,/GND*%
X67310000Y-100965000D02*
X66040000Y-102235000D01*
D20*
X64008000Y-100203000D02*
X66040000Y-102235000D01*
X66040000Y-102235000D02*
X68961000Y-105156000D01*
D19*
X67310000Y-100838000D02*
X67310000Y-100965000D01*
%TO.N,/+5V*%
X73279000Y-92583000D02*
X73279000Y-100965000D01*
X73279000Y-100965000D02*
X73279000Y-105664000D01*
D20*
%TO.N,/GND*%
X68707000Y-78139000D02*
X98298000Y-78139000D01*
X64736000Y-78139000D02*
X68707000Y-78139000D01*
D19*
X68580000Y-80772000D02*
X68580000Y-78266000D01*
X68580000Y-78266000D02*
X68707000Y-78139000D01*
X104394000Y-77885000D02*
X99352000Y-77885000D01*
X99352000Y-77885000D02*
X98698000Y-78539000D01*
D20*
X98698000Y-92837000D02*
X98698000Y-95612000D01*
X98698000Y-98044000D02*
X98698000Y-105791000D01*
D19*
X84836000Y-98044000D02*
X98698000Y-98044000D01*
%TO.N,/+5V*%
X78105000Y-117475000D02*
X78105000Y-116967000D01*
X78105000Y-116967000D02*
X78105000Y-106045000D01*
D20*
%TO.N,/GND*%
X98698000Y-109093000D02*
X98698000Y-114554000D01*
X98698000Y-114554000D02*
X98698000Y-126092000D01*
D19*
X85090000Y-117094000D02*
X87630000Y-114554000D01*
X87630000Y-114554000D02*
X98698000Y-114554000D01*
D20*
X81280000Y-105283000D02*
X94234000Y-105283000D01*
X61087000Y-100203000D02*
X64008000Y-100203000D01*
X61087000Y-93599000D02*
X61087000Y-100203000D01*
X61087000Y-100203000D02*
X61087000Y-104140000D01*
D18*
%TO.N,Net-(J1-Pin_4)*%
X69215000Y-108077000D02*
X69596000Y-107696000D01*
X69215000Y-113411000D02*
X69215000Y-108077000D01*
%TO.N,/GND*%
X64643000Y-105283000D02*
X61214000Y-105283000D01*
X61214000Y-105283000D02*
X61087000Y-105410000D01*
D19*
%TO.N,/+5V*%
X73279000Y-105664000D02*
X73406000Y-105791000D01*
D20*
%TO.N,/GND*%
X81280000Y-134366000D02*
X86360000Y-134366000D01*
X86360000Y-134366000D02*
X105029000Y-134366000D01*
D18*
X86360000Y-128270000D02*
X86360000Y-134366000D01*
D20*
X65289630Y-134366000D02*
X66294000Y-134366000D01*
D18*
X81280000Y-128270000D02*
X81280000Y-134366000D01*
%TO.N,/~{WR}*%
X112141000Y-124968000D02*
X113157000Y-124968000D01*
X115062000Y-123063000D02*
X113157000Y-124968000D01*
X115062000Y-116205000D02*
X115062000Y-123063000D01*
X113030000Y-115570000D02*
X114427000Y-115570000D01*
X114427000Y-115570000D02*
X115062000Y-116205000D01*
D20*
%TO.N,/GND*%
X107696000Y-100711000D02*
X107696000Y-103886000D01*
X107696000Y-105791000D02*
X107696000Y-117221000D01*
X98698000Y-105791000D02*
X107696000Y-105791000D01*
X107950000Y-131445000D02*
X107950000Y-129159000D01*
X105029000Y-134366000D02*
X105410000Y-133985000D01*
X62230000Y-130175000D02*
X62230000Y-131306370D01*
X62230000Y-131306370D02*
X65289630Y-134366000D01*
D18*
%TO.N,/Sig2*%
X55880000Y-109190000D02*
X59025000Y-109190000D01*
X59025000Y-109190000D02*
X59626500Y-109791500D01*
X59626500Y-109791500D02*
X59626500Y-132905500D01*
X59626500Y-132905500D02*
X62513500Y-135792500D01*
X62513500Y-135792500D02*
X106142500Y-135792500D01*
X106142500Y-135792500D02*
X110490000Y-131445000D01*
X110490000Y-131445000D02*
X110490000Y-120650000D01*
D19*
%TO.N,/~{WR}*%
X110490000Y-115570000D02*
X113030000Y-115570000D01*
%TO.N,/GND*%
X110490000Y-118110000D02*
X113030000Y-118110000D01*
X108585000Y-118110000D02*
X110490000Y-118110000D01*
X108585000Y-118110000D02*
X107696000Y-117221000D01*
D20*
X107696000Y-98552000D02*
X107696000Y-98806000D01*
D19*
%TO.N,/+5V*%
X81280000Y-120650000D02*
X78105000Y-117475000D01*
X78105000Y-106045000D02*
X78359000Y-105791000D01*
D20*
X73152000Y-130175000D02*
X73152000Y-131064000D01*
X64730000Y-130175000D02*
X73152000Y-130175000D01*
X73152000Y-131064000D02*
X73533000Y-131445000D01*
X73533000Y-131445000D02*
X75565000Y-131445000D01*
X73152000Y-114808000D02*
X73152000Y-121793000D01*
X73152000Y-106045000D02*
X73152000Y-114808000D01*
X73406000Y-105791000D02*
X73152000Y-106045000D01*
D19*
X73279000Y-92583000D02*
X73279000Y-88392000D01*
X81280000Y-82550000D02*
X79121000Y-82550000D01*
%TO.N,/GND*%
X110490000Y-97790000D02*
X113030000Y-97790000D01*
D20*
X55880000Y-89860000D02*
X57680000Y-89860000D01*
X60807000Y-105690000D02*
X61087000Y-105410000D01*
X59055000Y-83820000D02*
X60325000Y-82550000D01*
D19*
X98566000Y-109225000D02*
X98698000Y-109093000D01*
X110490000Y-95250000D02*
X113030000Y-95250000D01*
D20*
X61087000Y-105410000D02*
X61087000Y-120650000D01*
X108458000Y-97790000D02*
X107696000Y-98552000D01*
X57348000Y-89860000D02*
X61087000Y-93599000D01*
X61087000Y-104140000D02*
X61087000Y-105410000D01*
X55880000Y-89860000D02*
X57348000Y-89860000D01*
D19*
X110490000Y-92710000D02*
X110490000Y-97790000D01*
D20*
X98698000Y-126092000D02*
X96520000Y-128270000D01*
X98698000Y-78539000D02*
X98698000Y-85452000D01*
X110490000Y-97790000D02*
X108458000Y-97790000D01*
X59055000Y-88485000D02*
X59055000Y-83820000D01*
D19*
X96520000Y-109225000D02*
X98566000Y-109225000D01*
D20*
X62230000Y-127635000D02*
X62230000Y-130175000D01*
X61087000Y-126492000D02*
X62230000Y-127635000D01*
X98698000Y-105791000D02*
X98698000Y-109093000D01*
D19*
X96520000Y-90170000D02*
X98571000Y-90170000D01*
D20*
X57680000Y-89860000D02*
X59055000Y-88485000D01*
X98298000Y-78139000D02*
X98698000Y-78539000D01*
X55880000Y-105690000D02*
X60807000Y-105690000D01*
D19*
X98571000Y-90170000D02*
X98698000Y-90043000D01*
D20*
X98698000Y-90043000D02*
X98698000Y-92837000D01*
%TO.N,/+15V*%
X55880000Y-86360000D02*
X55382678Y-86360000D01*
D18*
%TO.N,/AD1*%
X108585000Y-88265000D02*
X102870000Y-88265000D01*
X110490000Y-90170000D02*
X108585000Y-88265000D01*
%TO.N,/AD2*%
X113030000Y-90170000D02*
X113030000Y-89916000D01*
X110617000Y-87503000D02*
X105537000Y-87503000D01*
X113030000Y-89916000D02*
X110617000Y-87503000D01*
X103759000Y-85725000D02*
X102870000Y-85725000D01*
X105537000Y-87503000D02*
X103759000Y-85725000D01*
%TO.N,/AD0*%
X113030000Y-92710000D02*
X114736500Y-91003500D01*
X114736500Y-89463500D02*
X112014000Y-86741000D01*
X114736500Y-91003500D02*
X114736500Y-89463500D01*
X103759000Y-83185000D02*
X102870000Y-83185000D01*
X112014000Y-86741000D02*
X107315000Y-86741000D01*
X107315000Y-86741000D02*
X103759000Y-83185000D01*
%TO.N,/DAC04*%
X108585000Y-85852000D02*
X112268000Y-85852000D01*
X112268000Y-85852000D02*
X115443000Y-89027000D01*
X115443000Y-89027000D02*
X115443000Y-97917000D01*
X106553000Y-83820000D02*
X108585000Y-85852000D01*
X115443000Y-97917000D02*
X113030000Y-100330000D01*
%TO.N,/DAC03*%
X110363000Y-85090000D02*
X108966000Y-83693000D01*
X114808000Y-102870000D02*
X116332000Y-101346000D01*
X113030000Y-102870000D02*
X114808000Y-102870000D01*
X113157000Y-85090000D02*
X110363000Y-85090000D01*
X116332000Y-88265000D02*
X113157000Y-85090000D01*
X116332000Y-101346000D02*
X116332000Y-88265000D01*
D19*
%TO.N,Net-(RN5-R1)*%
X83820000Y-82550000D02*
X83820000Y-82548658D01*
%TD*%
%TA.AperFunction,Conductor*%
%TO.N,/GND*%
G36*
X119323039Y-77489685D02*
G01*
X119368794Y-77542489D01*
X119380000Y-77594000D01*
X119380000Y-135766000D01*
X119360315Y-135833039D01*
X119307511Y-135878794D01*
X119256000Y-135890000D01*
X107321583Y-135890000D01*
X107254544Y-135870315D01*
X107208789Y-135817511D01*
X107198845Y-135748353D01*
X107227870Y-135684797D01*
X107233902Y-135678319D01*
X107847040Y-135065181D01*
X110961217Y-131951003D01*
X110966619Y-131945917D01*
X111011020Y-131906583D01*
X111044704Y-131857782D01*
X111049131Y-131851767D01*
X111085688Y-131805106D01*
X111089729Y-131796126D01*
X111100750Y-131776584D01*
X111106344Y-131768482D01*
X111127372Y-131713032D01*
X111130229Y-131706138D01*
X111154557Y-131652085D01*
X111156330Y-131642403D01*
X111162356Y-131620788D01*
X111165848Y-131611582D01*
X111172993Y-131552732D01*
X111174119Y-131545338D01*
X111184804Y-131487034D01*
X111184805Y-131487027D01*
X111181226Y-131427861D01*
X111181000Y-131420374D01*
X111181000Y-125747112D01*
X111200685Y-125680073D01*
X111253489Y-125634318D01*
X111322647Y-125624374D01*
X111386203Y-125653399D01*
X111400854Y-125668448D01*
X111418747Y-125690252D01*
X111484770Y-125744434D01*
X111573531Y-125817278D01*
X111573534Y-125817280D01*
X111573536Y-125817281D01*
X111750118Y-125911666D01*
X111750120Y-125911667D01*
X111941731Y-125969792D01*
X112141000Y-125989418D01*
X112340269Y-125969792D01*
X112531880Y-125911667D01*
X112708469Y-125817278D01*
X112863252Y-125690252D01*
X112863253Y-125690250D01*
X112867036Y-125687146D01*
X112931346Y-125659834D01*
X112945700Y-125659000D01*
X113132374Y-125659000D01*
X113139861Y-125659226D01*
X113199026Y-125662805D01*
X113199026Y-125662804D01*
X113199028Y-125662805D01*
X113257336Y-125652119D01*
X113264730Y-125650993D01*
X113323582Y-125643848D01*
X113332788Y-125640356D01*
X113354403Y-125634330D01*
X113364085Y-125632557D01*
X113418161Y-125608218D01*
X113425017Y-125605378D01*
X113480482Y-125584344D01*
X113488580Y-125578754D01*
X113508139Y-125567722D01*
X113517105Y-125563688D01*
X113563766Y-125527130D01*
X113569798Y-125522692D01*
X113618583Y-125489020D01*
X113657917Y-125444619D01*
X113663003Y-125439217D01*
X115533209Y-123569010D01*
X115538611Y-123563924D01*
X115583020Y-123524583D01*
X115616718Y-123475760D01*
X115621108Y-123469793D01*
X115657688Y-123423105D01*
X115661722Y-123414139D01*
X115672754Y-123394580D01*
X115678342Y-123386485D01*
X115678342Y-123386484D01*
X115678344Y-123386482D01*
X115699378Y-123331017D01*
X115702218Y-123324161D01*
X115726557Y-123270085D01*
X115728330Y-123260403D01*
X115734356Y-123238788D01*
X115737848Y-123229582D01*
X115744993Y-123170730D01*
X115746119Y-123163336D01*
X115756804Y-123105033D01*
X115756805Y-123105026D01*
X115753226Y-123045860D01*
X115753000Y-123038373D01*
X115753000Y-116229637D01*
X115753226Y-116222149D01*
X115754263Y-116205000D01*
X115756806Y-116162972D01*
X115746114Y-116104636D01*
X115744989Y-116097235D01*
X115737848Y-116038418D01*
X115737847Y-116038416D01*
X115734363Y-116029230D01*
X115728332Y-116007600D01*
X115726558Y-115997916D01*
X115702218Y-115943836D01*
X115699360Y-115936933D01*
X115678346Y-115881522D01*
X115678345Y-115881520D01*
X115678344Y-115881518D01*
X115672748Y-115873411D01*
X115661725Y-115853866D01*
X115657688Y-115844895D01*
X115621134Y-115798238D01*
X115616699Y-115792211D01*
X115607179Y-115778419D01*
X115583020Y-115743417D01*
X115538638Y-115704098D01*
X115533185Y-115698964D01*
X114933027Y-115098805D01*
X114927893Y-115093351D01*
X114888583Y-115048980D01*
X114839792Y-115015302D01*
X114833760Y-115010863D01*
X114787108Y-114974314D01*
X114787099Y-114974308D01*
X114778134Y-114970274D01*
X114758586Y-114959250D01*
X114750482Y-114953656D01*
X114750478Y-114953653D01*
X114695061Y-114932636D01*
X114688144Y-114929772D01*
X114634081Y-114905441D01*
X114634082Y-114905441D01*
X114624395Y-114903666D01*
X114602792Y-114897644D01*
X114593582Y-114894152D01*
X114534735Y-114887006D01*
X114527333Y-114885879D01*
X114469030Y-114875195D01*
X114469025Y-114875195D01*
X114409861Y-114878774D01*
X114402374Y-114879000D01*
X114259363Y-114879000D01*
X114192324Y-114859315D01*
X114157788Y-114826123D01*
X114068498Y-114698603D01*
X114068493Y-114698597D01*
X113901402Y-114531506D01*
X113901396Y-114531501D01*
X113715842Y-114401575D01*
X113672217Y-114346998D01*
X113665023Y-114277500D01*
X113696546Y-114215145D01*
X113715842Y-114198425D01*
X113738026Y-114182891D01*
X113901401Y-114068495D01*
X114068495Y-113901401D01*
X114204035Y-113707830D01*
X114303903Y-113493663D01*
X114365063Y-113265408D01*
X114385659Y-113030000D01*
X114365063Y-112794592D01*
X114303903Y-112566337D01*
X114204035Y-112352171D01*
X114202339Y-112349748D01*
X114068494Y-112158597D01*
X113901402Y-111991506D01*
X113901396Y-111991501D01*
X113715842Y-111861575D01*
X113672217Y-111806998D01*
X113665023Y-111737500D01*
X113696546Y-111675145D01*
X113715842Y-111658425D01*
X113738026Y-111642891D01*
X113901401Y-111528495D01*
X114068495Y-111361401D01*
X114204035Y-111167830D01*
X114303903Y-110953663D01*
X114365063Y-110725408D01*
X114385659Y-110490000D01*
X114365063Y-110254592D01*
X114307440Y-110039536D01*
X114303905Y-110026344D01*
X114303904Y-110026343D01*
X114303903Y-110026337D01*
X114204035Y-109812171D01*
X114201561Y-109808637D01*
X114068494Y-109618597D01*
X113901402Y-109451506D01*
X113901396Y-109451501D01*
X113715842Y-109321575D01*
X113672217Y-109266998D01*
X113665023Y-109197500D01*
X113696546Y-109135145D01*
X113715842Y-109118425D01*
X113830316Y-109038269D01*
X113901401Y-108988495D01*
X114068495Y-108821401D01*
X114204035Y-108627830D01*
X114303903Y-108413663D01*
X114365063Y-108185408D01*
X114385659Y-107950000D01*
X114384728Y-107939364D01*
X114375142Y-107829789D01*
X114365063Y-107714592D01*
X114303903Y-107486337D01*
X114204035Y-107272171D01*
X114201529Y-107268591D01*
X114068494Y-107078597D01*
X113901402Y-106911506D01*
X113901396Y-106911501D01*
X113715842Y-106781575D01*
X113672217Y-106726998D01*
X113665023Y-106657500D01*
X113696546Y-106595145D01*
X113715842Y-106578425D01*
X113791435Y-106525494D01*
X113901401Y-106448495D01*
X114068495Y-106281401D01*
X114204035Y-106087830D01*
X114303903Y-105873663D01*
X114365063Y-105645408D01*
X114385659Y-105410000D01*
X114365063Y-105174592D01*
X114303903Y-104946337D01*
X114204035Y-104732171D01*
X114198425Y-104724158D01*
X114068494Y-104538597D01*
X113901402Y-104371506D01*
X113901396Y-104371501D01*
X113715842Y-104241575D01*
X113672217Y-104186998D01*
X113665023Y-104117500D01*
X113696546Y-104055145D01*
X113715842Y-104038425D01*
X113810102Y-103972423D01*
X113901401Y-103908495D01*
X114068495Y-103741401D01*
X114157788Y-103613876D01*
X114212365Y-103570252D01*
X114259363Y-103561000D01*
X114783374Y-103561000D01*
X114790861Y-103561226D01*
X114850026Y-103564805D01*
X114850026Y-103564804D01*
X114850028Y-103564805D01*
X114908336Y-103554119D01*
X114915730Y-103552993D01*
X114974582Y-103545848D01*
X114983788Y-103542356D01*
X115005403Y-103536330D01*
X115015085Y-103534557D01*
X115069161Y-103510218D01*
X115076017Y-103507378D01*
X115131482Y-103486344D01*
X115139580Y-103480754D01*
X115159139Y-103469722D01*
X115168105Y-103465688D01*
X115214766Y-103429130D01*
X115220798Y-103424692D01*
X115269583Y-103391020D01*
X115308917Y-103346619D01*
X115314003Y-103341217D01*
X116803217Y-101852003D01*
X116808619Y-101846917D01*
X116853020Y-101807583D01*
X116886704Y-101758782D01*
X116891131Y-101752767D01*
X116927688Y-101706106D01*
X116931729Y-101697126D01*
X116942750Y-101677584D01*
X116948344Y-101669482D01*
X116969372Y-101614032D01*
X116972229Y-101607138D01*
X116973191Y-101605001D01*
X116996557Y-101553085D01*
X116998330Y-101543403D01*
X117004356Y-101521788D01*
X117007848Y-101512582D01*
X117014993Y-101453732D01*
X117016119Y-101446338D01*
X117026804Y-101388034D01*
X117026805Y-101388027D01*
X117023226Y-101328861D01*
X117023000Y-101321374D01*
X117023000Y-88289624D01*
X117023226Y-88282137D01*
X117026805Y-88222972D01*
X117021495Y-88194000D01*
X117016114Y-88164636D01*
X117014991Y-88157253D01*
X117007848Y-88098418D01*
X117004359Y-88089218D01*
X116998331Y-88067596D01*
X116996557Y-88057915D01*
X116972221Y-88003842D01*
X116969362Y-87996938D01*
X116948346Y-87941522D01*
X116948345Y-87941520D01*
X116948344Y-87941518D01*
X116942748Y-87933411D01*
X116931725Y-87913866D01*
X116927688Y-87904895D01*
X116927687Y-87904894D01*
X116927687Y-87904893D01*
X116927685Y-87904890D01*
X116891138Y-87858243D01*
X116886696Y-87852206D01*
X116853022Y-87803419D01*
X116831450Y-87784308D01*
X116808639Y-87764099D01*
X116803201Y-87758979D01*
X113663027Y-84618805D01*
X113657893Y-84613351D01*
X113618583Y-84568980D01*
X113569792Y-84535302D01*
X113563760Y-84530863D01*
X113517108Y-84494314D01*
X113517099Y-84494308D01*
X113508134Y-84490274D01*
X113488586Y-84479250D01*
X113480482Y-84473656D01*
X113480478Y-84473653D01*
X113425061Y-84452636D01*
X113418144Y-84449772D01*
X113364081Y-84425441D01*
X113364082Y-84425441D01*
X113354395Y-84423666D01*
X113332792Y-84417644D01*
X113323582Y-84414152D01*
X113264735Y-84407006D01*
X113257333Y-84405879D01*
X113199030Y-84395195D01*
X113199025Y-84395195D01*
X113139861Y-84398774D01*
X113132374Y-84399000D01*
X110700584Y-84399000D01*
X110633545Y-84379315D01*
X110612903Y-84362681D01*
X110023619Y-83773397D01*
X109990134Y-83712074D01*
X109987897Y-83697870D01*
X109987417Y-83693003D01*
X109987418Y-83693000D01*
X109967792Y-83493731D01*
X109909667Y-83302120D01*
X109856541Y-83202728D01*
X109815281Y-83125536D01*
X109815280Y-83125534D01*
X109815278Y-83125531D01*
X109742434Y-83036770D01*
X109688252Y-82970747D01*
X109607801Y-82904724D01*
X109533469Y-82843722D01*
X109533465Y-82843720D01*
X109533463Y-82843718D01*
X109356881Y-82749333D01*
X109165271Y-82691208D01*
X108966000Y-82671582D01*
X108766728Y-82691208D01*
X108575118Y-82749333D01*
X108398536Y-82843718D01*
X108243747Y-82970747D01*
X108116718Y-83125536D01*
X108022333Y-83302118D01*
X107964208Y-83493728D01*
X107944582Y-83693000D01*
X107964207Y-83892267D01*
X107978011Y-83937771D01*
X107978634Y-84007638D01*
X107941386Y-84066751D01*
X107878092Y-84096342D01*
X107808847Y-84087016D01*
X107771669Y-84061447D01*
X107610619Y-83900397D01*
X107577134Y-83839074D01*
X107574897Y-83824870D01*
X107574417Y-83820003D01*
X107574418Y-83820000D01*
X107554792Y-83620731D01*
X107496667Y-83429120D01*
X107402278Y-83252531D01*
X107329434Y-83163770D01*
X107275252Y-83097747D01*
X107151876Y-82996497D01*
X107120469Y-82970722D01*
X107120465Y-82970720D01*
X107120463Y-82970718D01*
X106943881Y-82876333D01*
X106752271Y-82818208D01*
X106553000Y-82798582D01*
X106353728Y-82818208D01*
X106162118Y-82876333D01*
X105985536Y-82970718D01*
X105830747Y-83097747D01*
X105703718Y-83252536D01*
X105609333Y-83429118D01*
X105551208Y-83620728D01*
X105542901Y-83705069D01*
X105516740Y-83769856D01*
X105459705Y-83810214D01*
X105389905Y-83813331D01*
X105331817Y-83780595D01*
X104265027Y-82713805D01*
X104259893Y-82708351D01*
X104220583Y-82663980D01*
X104171792Y-82630302D01*
X104165760Y-82625863D01*
X104119108Y-82589314D01*
X104119099Y-82589308D01*
X104110134Y-82585274D01*
X104090586Y-82574250D01*
X104082482Y-82568656D01*
X104082481Y-82568655D01*
X104057084Y-82559023D01*
X104041344Y-82553054D01*
X103985644Y-82510876D01*
X103983743Y-82508236D01*
X103870046Y-82345859D01*
X103709143Y-82184956D01*
X103684536Y-82167726D01*
X103640912Y-82113149D01*
X103633719Y-82043650D01*
X103665241Y-81981296D01*
X103725471Y-81945882D01*
X103742404Y-81942861D01*
X103777483Y-81939091D01*
X103912331Y-81888796D01*
X104027546Y-81802546D01*
X104113796Y-81687331D01*
X104164091Y-81552483D01*
X104170500Y-81492873D01*
X104170499Y-79797128D01*
X104164091Y-79737517D01*
X104113796Y-79602669D01*
X104113795Y-79602668D01*
X104113793Y-79602664D01*
X104027547Y-79487455D01*
X104027544Y-79487452D01*
X103912335Y-79401206D01*
X103912328Y-79401202D01*
X103777482Y-79350908D01*
X103777483Y-79350908D01*
X103717883Y-79344501D01*
X103717881Y-79344500D01*
X103717873Y-79344500D01*
X103717864Y-79344500D01*
X102022129Y-79344500D01*
X102022123Y-79344501D01*
X101962516Y-79350908D01*
X101827671Y-79401202D01*
X101827664Y-79401206D01*
X101712455Y-79487452D01*
X101712452Y-79487455D01*
X101626206Y-79602664D01*
X101626202Y-79602671D01*
X101575908Y-79737517D01*
X101569501Y-79797116D01*
X101569501Y-79797123D01*
X101569500Y-79797135D01*
X101569500Y-81492870D01*
X101569501Y-81492876D01*
X101575908Y-81552483D01*
X101626202Y-81687328D01*
X101626206Y-81687335D01*
X101712452Y-81802544D01*
X101712455Y-81802547D01*
X101827664Y-81888793D01*
X101827671Y-81888797D01*
X101850378Y-81897266D01*
X101962517Y-81939091D01*
X101997596Y-81942862D01*
X102062144Y-81969599D01*
X102101993Y-82026991D01*
X102104488Y-82096816D01*
X102068836Y-82156905D01*
X102055464Y-82167725D01*
X102030858Y-82184954D01*
X101869954Y-82345858D01*
X101739432Y-82532265D01*
X101739431Y-82532267D01*
X101643261Y-82738502D01*
X101643258Y-82738511D01*
X101584366Y-82958302D01*
X101584364Y-82958313D01*
X101564532Y-83184998D01*
X101564532Y-83185001D01*
X101584364Y-83411686D01*
X101584366Y-83411697D01*
X101643258Y-83631488D01*
X101643261Y-83631497D01*
X101739431Y-83837732D01*
X101739432Y-83837734D01*
X101869954Y-84024141D01*
X102030858Y-84185045D01*
X102053644Y-84201000D01*
X102217266Y-84315568D01*
X102270585Y-84340431D01*
X102275275Y-84342618D01*
X102327714Y-84388791D01*
X102346866Y-84455984D01*
X102326650Y-84522865D01*
X102275275Y-84567382D01*
X102217267Y-84594431D01*
X102217265Y-84594432D01*
X102030858Y-84724954D01*
X101869954Y-84885858D01*
X101739432Y-85072265D01*
X101739431Y-85072267D01*
X101643261Y-85278502D01*
X101643258Y-85278511D01*
X101584366Y-85498302D01*
X101584364Y-85498313D01*
X101564532Y-85724998D01*
X101564532Y-85725001D01*
X101584364Y-85951686D01*
X101584366Y-85951697D01*
X101643258Y-86171488D01*
X101643261Y-86171497D01*
X101739431Y-86377732D01*
X101739432Y-86377734D01*
X101869954Y-86564141D01*
X102030858Y-86725045D01*
X102053644Y-86741000D01*
X102217266Y-86855568D01*
X102270585Y-86880431D01*
X102275275Y-86882618D01*
X102327714Y-86928791D01*
X102346866Y-86995984D01*
X102326650Y-87062865D01*
X102275275Y-87107381D01*
X102258272Y-87115310D01*
X102217267Y-87134431D01*
X102217265Y-87134432D01*
X102030858Y-87264954D01*
X101869954Y-87425858D01*
X101739432Y-87612265D01*
X101739431Y-87612267D01*
X101643261Y-87818502D01*
X101643258Y-87818511D01*
X101584366Y-88038302D01*
X101584364Y-88038313D01*
X101564532Y-88264998D01*
X101564532Y-88265001D01*
X101584364Y-88491686D01*
X101584366Y-88491697D01*
X101643258Y-88711488D01*
X101643261Y-88711497D01*
X101739431Y-88917732D01*
X101739432Y-88917734D01*
X101869954Y-89104141D01*
X102030858Y-89265045D01*
X102053644Y-89281000D01*
X102217266Y-89395568D01*
X102270585Y-89420431D01*
X102275275Y-89422618D01*
X102327714Y-89468791D01*
X102346866Y-89535984D01*
X102326650Y-89602865D01*
X102275275Y-89647382D01*
X102217267Y-89674431D01*
X102217265Y-89674432D01*
X102030858Y-89804954D01*
X101869954Y-89965858D01*
X101739432Y-90152265D01*
X101739431Y-90152267D01*
X101643261Y-90358502D01*
X101643258Y-90358511D01*
X101584366Y-90578302D01*
X101584364Y-90578313D01*
X101564532Y-90804998D01*
X101564532Y-90805001D01*
X101584364Y-91031686D01*
X101584366Y-91031697D01*
X101643258Y-91251488D01*
X101643261Y-91251497D01*
X101739431Y-91457732D01*
X101739432Y-91457734D01*
X101869954Y-91644141D01*
X102030858Y-91805045D01*
X102053644Y-91821000D01*
X102217266Y-91935568D01*
X102270585Y-91960431D01*
X102275275Y-91962618D01*
X102327714Y-92008791D01*
X102346866Y-92075984D01*
X102326650Y-92142865D01*
X102275275Y-92187382D01*
X102217267Y-92214431D01*
X102217265Y-92214432D01*
X102030858Y-92344954D01*
X101869954Y-92505858D01*
X101739432Y-92692265D01*
X101739431Y-92692267D01*
X101643261Y-92898502D01*
X101643258Y-92898511D01*
X101584366Y-93118302D01*
X101584364Y-93118313D01*
X101564532Y-93344998D01*
X101564532Y-93345001D01*
X101584364Y-93571686D01*
X101584366Y-93571697D01*
X101643258Y-93791488D01*
X101643261Y-93791497D01*
X101739431Y-93997732D01*
X101739432Y-93997734D01*
X101869954Y-94184141D01*
X102030858Y-94345045D01*
X102053644Y-94361000D01*
X102217266Y-94475568D01*
X102270585Y-94500431D01*
X102275275Y-94502618D01*
X102327714Y-94548791D01*
X102346866Y-94615984D01*
X102326650Y-94682865D01*
X102275275Y-94727382D01*
X102217267Y-94754431D01*
X102217265Y-94754432D01*
X102030858Y-94884954D01*
X101869954Y-95045858D01*
X101739432Y-95232265D01*
X101739431Y-95232267D01*
X101643261Y-95438502D01*
X101643258Y-95438511D01*
X101584366Y-95658302D01*
X101584364Y-95658313D01*
X101564532Y-95884998D01*
X101564532Y-95885001D01*
X101584364Y-96111686D01*
X101584366Y-96111697D01*
X101643258Y-96331488D01*
X101643261Y-96331497D01*
X101739431Y-96537732D01*
X101739432Y-96537734D01*
X101869954Y-96724141D01*
X102030858Y-96885045D01*
X102053644Y-96901000D01*
X102217266Y-97015568D01*
X102270585Y-97040431D01*
X102275275Y-97042618D01*
X102327714Y-97088791D01*
X102346866Y-97155984D01*
X102326650Y-97222865D01*
X102275275Y-97267382D01*
X102217267Y-97294431D01*
X102217265Y-97294432D01*
X102030858Y-97424954D01*
X101869954Y-97585858D01*
X101739432Y-97772265D01*
X101739431Y-97772267D01*
X101643261Y-97978502D01*
X101643258Y-97978511D01*
X101584366Y-98198302D01*
X101584364Y-98198313D01*
X101564532Y-98424998D01*
X101564532Y-98425001D01*
X101584364Y-98651686D01*
X101584366Y-98651697D01*
X101643258Y-98871488D01*
X101643261Y-98871497D01*
X101739431Y-99077732D01*
X101739432Y-99077734D01*
X101869954Y-99264141D01*
X102030858Y-99425045D01*
X102053644Y-99441000D01*
X102217266Y-99555568D01*
X102270585Y-99580431D01*
X102275275Y-99582618D01*
X102327714Y-99628791D01*
X102346866Y-99695984D01*
X102326650Y-99762865D01*
X102275275Y-99807382D01*
X102217267Y-99834431D01*
X102217265Y-99834432D01*
X102030858Y-99964954D01*
X101869954Y-100125858D01*
X101739432Y-100312265D01*
X101739431Y-100312267D01*
X101643261Y-100518502D01*
X101643258Y-100518511D01*
X101584366Y-100738302D01*
X101584364Y-100738313D01*
X101564532Y-100964998D01*
X101564532Y-100965001D01*
X101584364Y-101191686D01*
X101584366Y-101191697D01*
X101643258Y-101411488D01*
X101643261Y-101411497D01*
X101739431Y-101617732D01*
X101739432Y-101617734D01*
X101869954Y-101804141D01*
X102030858Y-101965045D01*
X102053644Y-101981000D01*
X102217266Y-102095568D01*
X102270585Y-102120431D01*
X102275275Y-102122618D01*
X102327714Y-102168791D01*
X102346866Y-102235984D01*
X102326650Y-102302865D01*
X102275275Y-102347382D01*
X102217267Y-102374431D01*
X102217265Y-102374432D01*
X102030858Y-102504954D01*
X101869954Y-102665858D01*
X101739432Y-102852265D01*
X101739431Y-102852267D01*
X101643261Y-103058502D01*
X101643258Y-103058511D01*
X101584366Y-103278302D01*
X101584364Y-103278313D01*
X101564532Y-103504998D01*
X101564532Y-103505001D01*
X101584364Y-103731686D01*
X101584366Y-103731697D01*
X101643258Y-103951488D01*
X101643261Y-103951497D01*
X101739431Y-104157732D01*
X101739432Y-104157734D01*
X101869954Y-104344141D01*
X102030858Y-104505045D01*
X102030861Y-104505047D01*
X102217266Y-104635568D01*
X102423504Y-104731739D01*
X102423509Y-104731740D01*
X102423511Y-104731741D01*
X102425116Y-104732171D01*
X102643308Y-104790635D01*
X102805230Y-104804801D01*
X102869998Y-104810468D01*
X102870000Y-104810468D01*
X102870002Y-104810468D01*
X102926673Y-104805509D01*
X103096692Y-104790635D01*
X103316496Y-104731739D01*
X103522734Y-104635568D01*
X103709139Y-104505047D01*
X103870047Y-104344139D01*
X104000568Y-104157734D01*
X104096739Y-103951496D01*
X104155635Y-103731692D01*
X104175468Y-103505000D01*
X104172786Y-103474350D01*
X104165496Y-103391020D01*
X104155635Y-103278308D01*
X104096739Y-103058504D01*
X104000568Y-102852266D01*
X103870047Y-102665861D01*
X103870045Y-102665858D01*
X103709141Y-102504954D01*
X103522734Y-102374432D01*
X103522728Y-102374429D01*
X103464725Y-102347382D01*
X103412285Y-102301210D01*
X103393133Y-102234017D01*
X103413348Y-102167135D01*
X103464725Y-102122618D01*
X103469415Y-102120431D01*
X103522734Y-102095568D01*
X103709139Y-101965047D01*
X103870047Y-101804139D01*
X104000568Y-101617734D01*
X104096739Y-101411496D01*
X104155635Y-101191692D01*
X104175468Y-100965000D01*
X104155635Y-100738308D01*
X104096739Y-100518504D01*
X104000568Y-100312266D01*
X103870047Y-100125861D01*
X103870045Y-100125858D01*
X103709141Y-99964954D01*
X103522734Y-99834432D01*
X103522728Y-99834429D01*
X103464725Y-99807382D01*
X103412285Y-99761210D01*
X103393133Y-99694017D01*
X103413348Y-99627135D01*
X103464725Y-99582618D01*
X103469415Y-99580431D01*
X103522734Y-99555568D01*
X103709139Y-99425047D01*
X103870047Y-99264139D01*
X104000568Y-99077734D01*
X104096739Y-98871496D01*
X104155635Y-98651692D01*
X104175468Y-98425000D01*
X104155635Y-98198308D01*
X104096739Y-97978504D01*
X104000568Y-97772266D01*
X103873412Y-97590667D01*
X103870045Y-97585858D01*
X103709141Y-97424954D01*
X103522734Y-97294432D01*
X103522728Y-97294429D01*
X103464725Y-97267382D01*
X103412285Y-97221210D01*
X103393133Y-97154017D01*
X103413348Y-97087135D01*
X103464725Y-97042618D01*
X103469415Y-97040431D01*
X103522734Y-97015568D01*
X103709139Y-96885047D01*
X103870047Y-96724139D01*
X104000568Y-96537734D01*
X104096739Y-96331496D01*
X104155635Y-96111692D01*
X104175468Y-95885000D01*
X104155635Y-95658308D01*
X104096739Y-95438504D01*
X104000568Y-95232266D01*
X103870047Y-95045861D01*
X103870045Y-95045858D01*
X103709141Y-94884954D01*
X103522734Y-94754432D01*
X103522728Y-94754429D01*
X103464725Y-94727382D01*
X103412285Y-94681210D01*
X103393133Y-94614017D01*
X103413348Y-94547135D01*
X103464725Y-94502618D01*
X103469415Y-94500431D01*
X103522734Y-94475568D01*
X103709139Y-94345047D01*
X103870047Y-94184139D01*
X104000568Y-93997734D01*
X104096739Y-93791496D01*
X104155635Y-93571692D01*
X104175468Y-93345000D01*
X104155635Y-93118308D01*
X104096739Y-92898504D01*
X104000568Y-92692266D01*
X103870047Y-92505861D01*
X103870045Y-92505858D01*
X103709141Y-92344954D01*
X103522734Y-92214432D01*
X103522728Y-92214429D01*
X103474886Y-92192120D01*
X103464724Y-92187381D01*
X103412285Y-92141210D01*
X103393133Y-92074017D01*
X103413348Y-92007135D01*
X103464725Y-91962618D01*
X103469415Y-91960431D01*
X103522734Y-91935568D01*
X103709139Y-91805047D01*
X103870047Y-91644139D01*
X104000568Y-91457734D01*
X104096739Y-91251496D01*
X104155635Y-91031692D01*
X104173358Y-90829119D01*
X104175468Y-90805001D01*
X104175468Y-90804998D01*
X104158976Y-90616496D01*
X104155635Y-90578308D01*
X104106949Y-90396610D01*
X104096741Y-90358511D01*
X104096738Y-90358502D01*
X104008838Y-90170002D01*
X104000568Y-90152266D01*
X103870047Y-89965861D01*
X103870045Y-89965858D01*
X103709141Y-89804954D01*
X103522734Y-89674432D01*
X103522728Y-89674429D01*
X103464725Y-89647382D01*
X103412285Y-89601210D01*
X103393133Y-89534017D01*
X103413348Y-89467135D01*
X103464725Y-89422618D01*
X103469415Y-89420431D01*
X103522734Y-89395568D01*
X103709139Y-89265047D01*
X103870047Y-89104139D01*
X103933677Y-89013265D01*
X103936750Y-89008877D01*
X103991327Y-88965252D01*
X104038325Y-88956000D01*
X108247416Y-88956000D01*
X108314455Y-88975685D01*
X108335097Y-88992319D01*
X109103181Y-89760402D01*
X109136666Y-89821725D01*
X109139500Y-89848083D01*
X109139500Y-90820001D01*
X109139501Y-90820019D01*
X109150000Y-90922796D01*
X109150001Y-90922799D01*
X109205185Y-91089331D01*
X109205187Y-91089336D01*
X109226079Y-91123207D01*
X109297288Y-91238656D01*
X109421344Y-91362712D01*
X109570666Y-91454814D01*
X109643032Y-91478793D01*
X109700476Y-91518566D01*
X109727299Y-91583081D01*
X109727412Y-91593859D01*
X110357466Y-92223913D01*
X110347685Y-92225320D01*
X110216900Y-92285048D01*
X110108239Y-92379202D01*
X110030507Y-92500156D01*
X110006923Y-92580476D01*
X109375072Y-91948625D01*
X109316401Y-92032419D01*
X109216570Y-92246507D01*
X109216566Y-92246516D01*
X109155432Y-92474673D01*
X109155430Y-92474684D01*
X109134843Y-92709998D01*
X109134843Y-92710001D01*
X109155430Y-92945315D01*
X109155432Y-92945326D01*
X109216566Y-93173483D01*
X109216570Y-93173492D01*
X109316400Y-93387579D01*
X109316402Y-93387583D01*
X109375072Y-93471373D01*
X109375073Y-93471373D01*
X110006923Y-92839523D01*
X110030507Y-92919844D01*
X110108239Y-93040798D01*
X110216900Y-93134952D01*
X110347685Y-93194680D01*
X110357466Y-93196086D01*
X109728625Y-93824925D01*
X109805031Y-93878425D01*
X109848655Y-93933002D01*
X109855848Y-94002501D01*
X109824326Y-94064855D01*
X109805029Y-94081576D01*
X109728625Y-94135072D01*
X110357466Y-94763913D01*
X110347685Y-94765320D01*
X110216900Y-94825048D01*
X110108239Y-94919202D01*
X110030507Y-95040156D01*
X110006923Y-95120476D01*
X109375072Y-94488625D01*
X109316401Y-94572419D01*
X109216570Y-94786507D01*
X109216566Y-94786516D01*
X109155432Y-95014673D01*
X109155430Y-95014684D01*
X109134843Y-95249998D01*
X109134843Y-95250001D01*
X109155430Y-95485315D01*
X109155432Y-95485326D01*
X109216566Y-95713483D01*
X109216570Y-95713492D01*
X109316400Y-95927579D01*
X109316402Y-95927583D01*
X109375072Y-96011373D01*
X109375073Y-96011373D01*
X110006923Y-95379523D01*
X110030507Y-95459844D01*
X110108239Y-95580798D01*
X110216900Y-95674952D01*
X110347685Y-95734680D01*
X110357466Y-95736086D01*
X109728625Y-96364925D01*
X109805031Y-96418425D01*
X109848655Y-96473002D01*
X109855848Y-96542501D01*
X109824326Y-96604855D01*
X109805029Y-96621576D01*
X109728625Y-96675072D01*
X110357466Y-97303913D01*
X110347685Y-97305320D01*
X110216900Y-97365048D01*
X110108239Y-97459202D01*
X110030507Y-97580156D01*
X110006923Y-97660476D01*
X109375072Y-97028625D01*
X109316401Y-97112419D01*
X109216570Y-97326507D01*
X109216566Y-97326516D01*
X109155432Y-97554673D01*
X109155430Y-97554684D01*
X109134843Y-97789998D01*
X109134843Y-97790001D01*
X109155430Y-98025315D01*
X109155432Y-98025326D01*
X109216566Y-98253483D01*
X109216570Y-98253492D01*
X109316400Y-98467579D01*
X109316402Y-98467583D01*
X109375072Y-98551373D01*
X109375073Y-98551373D01*
X110006923Y-97919523D01*
X110030507Y-97999844D01*
X110108239Y-98120798D01*
X110216900Y-98214952D01*
X110347685Y-98274680D01*
X110357466Y-98276086D01*
X109728625Y-98904925D01*
X109804594Y-98958119D01*
X109848219Y-99012696D01*
X109855413Y-99082194D01*
X109823890Y-99144549D01*
X109804595Y-99161269D01*
X109618594Y-99291508D01*
X109451505Y-99458597D01*
X109315965Y-99652169D01*
X109315964Y-99652171D01*
X109216098Y-99866335D01*
X109216094Y-99866344D01*
X109154938Y-100094586D01*
X109154936Y-100094596D01*
X109134341Y-100329999D01*
X109134341Y-100330000D01*
X109154936Y-100565403D01*
X109154938Y-100565413D01*
X109216094Y-100793655D01*
X109216096Y-100793659D01*
X109216097Y-100793663D01*
X109296004Y-100965023D01*
X109315965Y-101007830D01*
X109315967Y-101007834D01*
X109377770Y-101096097D01*
X109451501Y-101201396D01*
X109451506Y-101201402D01*
X109618597Y-101368493D01*
X109618603Y-101368498D01*
X109804158Y-101498425D01*
X109847783Y-101553002D01*
X109854977Y-101622500D01*
X109823454Y-101684855D01*
X109804158Y-101701575D01*
X109618597Y-101831505D01*
X109451505Y-101998597D01*
X109315965Y-102192169D01*
X109315964Y-102192171D01*
X109216098Y-102406335D01*
X109216094Y-102406344D01*
X109154938Y-102634586D01*
X109154936Y-102634596D01*
X109134341Y-102869999D01*
X109134341Y-102870000D01*
X109154936Y-103105403D01*
X109154938Y-103105413D01*
X109216094Y-103333655D01*
X109216096Y-103333659D01*
X109216097Y-103333663D01*
X109296004Y-103505023D01*
X109315965Y-103547830D01*
X109315967Y-103547834D01*
X109420762Y-103697496D01*
X109451501Y-103741396D01*
X109451506Y-103741402D01*
X109618597Y-103908493D01*
X109618603Y-103908498D01*
X109804158Y-104038425D01*
X109847783Y-104093002D01*
X109854977Y-104162500D01*
X109823454Y-104224855D01*
X109804158Y-104241575D01*
X109618597Y-104371505D01*
X109451505Y-104538597D01*
X109315965Y-104732169D01*
X109315964Y-104732171D01*
X109216098Y-104946335D01*
X109216094Y-104946344D01*
X109154938Y-105174586D01*
X109154936Y-105174596D01*
X109134341Y-105409999D01*
X109134341Y-105410000D01*
X109154936Y-105645403D01*
X109154938Y-105645413D01*
X109216094Y-105873655D01*
X109216096Y-105873659D01*
X109216097Y-105873663D01*
X109296004Y-106045023D01*
X109315965Y-106087830D01*
X109315967Y-106087834D01*
X109424281Y-106242521D01*
X109451501Y-106281396D01*
X109451506Y-106281402D01*
X109618597Y-106448493D01*
X109618603Y-106448498D01*
X109804158Y-106578425D01*
X109847783Y-106633002D01*
X109854977Y-106702500D01*
X109823454Y-106764855D01*
X109804158Y-106781575D01*
X109618597Y-106911505D01*
X109451505Y-107078597D01*
X109315965Y-107272169D01*
X109315964Y-107272171D01*
X109216098Y-107486335D01*
X109216094Y-107486344D01*
X109154938Y-107714586D01*
X109154936Y-107714596D01*
X109134341Y-107949999D01*
X109134341Y-107950000D01*
X109154936Y-108185403D01*
X109154938Y-108185413D01*
X109216094Y-108413655D01*
X109216096Y-108413659D01*
X109216097Y-108413663D01*
X109296004Y-108585023D01*
X109315965Y-108627830D01*
X109315967Y-108627834D01*
X109377806Y-108716148D01*
X109451501Y-108821396D01*
X109451506Y-108821402D01*
X109618597Y-108988493D01*
X109618603Y-108988498D01*
X109804158Y-109118425D01*
X109847783Y-109173002D01*
X109854977Y-109242500D01*
X109823454Y-109304855D01*
X109804158Y-109321575D01*
X109618597Y-109451505D01*
X109451505Y-109618597D01*
X109315965Y-109812169D01*
X109315964Y-109812171D01*
X109216098Y-110026335D01*
X109216094Y-110026344D01*
X109154938Y-110254586D01*
X109154936Y-110254596D01*
X109134341Y-110489999D01*
X109134341Y-110490000D01*
X109154936Y-110725403D01*
X109154938Y-110725413D01*
X109216094Y-110953655D01*
X109216096Y-110953659D01*
X109216097Y-110953663D01*
X109296004Y-111125023D01*
X109315965Y-111167830D01*
X109315967Y-111167834D01*
X109401159Y-111289500D01*
X109451501Y-111361396D01*
X109451506Y-111361402D01*
X109618597Y-111528493D01*
X109618603Y-111528498D01*
X109804158Y-111658425D01*
X109847783Y-111713002D01*
X109854977Y-111782500D01*
X109823454Y-111844855D01*
X109804158Y-111861575D01*
X109618597Y-111991505D01*
X109451505Y-112158597D01*
X109315965Y-112352169D01*
X109315964Y-112352171D01*
X109216098Y-112566335D01*
X109216094Y-112566344D01*
X109154938Y-112794586D01*
X109154936Y-112794596D01*
X109134341Y-113029999D01*
X109134341Y-113030000D01*
X109154936Y-113265403D01*
X109154938Y-113265413D01*
X109216094Y-113493655D01*
X109216096Y-113493659D01*
X109216097Y-113493663D01*
X109296004Y-113665023D01*
X109315965Y-113707830D01*
X109315967Y-113707834D01*
X109381820Y-113801881D01*
X109451501Y-113901396D01*
X109451506Y-113901402D01*
X109618597Y-114068493D01*
X109618603Y-114068498D01*
X109804158Y-114198425D01*
X109847783Y-114253002D01*
X109854977Y-114322500D01*
X109823454Y-114384855D01*
X109804158Y-114401575D01*
X109618597Y-114531505D01*
X109451505Y-114698597D01*
X109315965Y-114892169D01*
X109315964Y-114892171D01*
X109216098Y-115106335D01*
X109216094Y-115106344D01*
X109154938Y-115334586D01*
X109154936Y-115334596D01*
X109134341Y-115569999D01*
X109134341Y-115570000D01*
X109154936Y-115805403D01*
X109154938Y-115805413D01*
X109216094Y-116033655D01*
X109216096Y-116033659D01*
X109216097Y-116033663D01*
X109303990Y-116222149D01*
X109315965Y-116247830D01*
X109315967Y-116247834D01*
X109401655Y-116370208D01*
X109451505Y-116441401D01*
X109618599Y-116608495D01*
X109804594Y-116738730D01*
X109848218Y-116793307D01*
X109855411Y-116862806D01*
X109823889Y-116925160D01*
X109804593Y-116941880D01*
X109728626Y-116995072D01*
X109728625Y-116995072D01*
X110357466Y-117623913D01*
X110347685Y-117625320D01*
X110216900Y-117685048D01*
X110108239Y-117779202D01*
X110030507Y-117900156D01*
X110006923Y-117980476D01*
X109375072Y-117348625D01*
X109316401Y-117432419D01*
X109216570Y-117646507D01*
X109216566Y-117646516D01*
X109155432Y-117874673D01*
X109155430Y-117874684D01*
X109134843Y-118109998D01*
X109134843Y-118110001D01*
X109155430Y-118345315D01*
X109155432Y-118345326D01*
X109216566Y-118573483D01*
X109216570Y-118573492D01*
X109316400Y-118787579D01*
X109316402Y-118787583D01*
X109375072Y-118871373D01*
X109375073Y-118871373D01*
X110006923Y-118239523D01*
X110030507Y-118319844D01*
X110108239Y-118440798D01*
X110216900Y-118534952D01*
X110347685Y-118594680D01*
X110357466Y-118596086D01*
X109728625Y-119224925D01*
X109804594Y-119278119D01*
X109848219Y-119332696D01*
X109855413Y-119402194D01*
X109823890Y-119464549D01*
X109804595Y-119481269D01*
X109618594Y-119611508D01*
X109451505Y-119778597D01*
X109315965Y-119972169D01*
X109315964Y-119972171D01*
X109216098Y-120186335D01*
X109216094Y-120186344D01*
X109154938Y-120414586D01*
X109154936Y-120414596D01*
X109134341Y-120649999D01*
X109134341Y-120650000D01*
X109154936Y-120885403D01*
X109154938Y-120885413D01*
X109216094Y-121113655D01*
X109216096Y-121113659D01*
X109216097Y-121113663D01*
X109296004Y-121285023D01*
X109315965Y-121327830D01*
X109315967Y-121327834D01*
X109424281Y-121482521D01*
X109451501Y-121521396D01*
X109451506Y-121521402D01*
X109618597Y-121688493D01*
X109618603Y-121688498D01*
X109746123Y-121777788D01*
X109789748Y-121832365D01*
X109799000Y-121879363D01*
X109799000Y-131107416D01*
X109779315Y-131174455D01*
X109762681Y-131195097D01*
X105892597Y-135065181D01*
X105831274Y-135098666D01*
X105804916Y-135101500D01*
X62851083Y-135101500D01*
X62784044Y-135081815D01*
X62763402Y-135065181D01*
X60353819Y-132655597D01*
X60320334Y-132594274D01*
X60317500Y-132567916D01*
X60317500Y-130175002D01*
X60925034Y-130175002D01*
X60944858Y-130401599D01*
X60944860Y-130401610D01*
X61003730Y-130621317D01*
X61003735Y-130621331D01*
X61099863Y-130827478D01*
X61150974Y-130900472D01*
X61832046Y-130219400D01*
X61844835Y-130300148D01*
X61902359Y-130413045D01*
X61991955Y-130502641D01*
X62104852Y-130560165D01*
X62185599Y-130572953D01*
X61504526Y-131254025D01*
X61577513Y-131305132D01*
X61577521Y-131305136D01*
X61783668Y-131401264D01*
X61783682Y-131401269D01*
X62003389Y-131460139D01*
X62003400Y-131460141D01*
X62229998Y-131479966D01*
X62230002Y-131479966D01*
X62456599Y-131460141D01*
X62456610Y-131460139D01*
X62676317Y-131401269D01*
X62676331Y-131401264D01*
X62882478Y-131305136D01*
X62955471Y-131254024D01*
X62274400Y-130572953D01*
X62355148Y-130560165D01*
X62468045Y-130502641D01*
X62557641Y-130413045D01*
X62615165Y-130300148D01*
X62627953Y-130219400D01*
X63314197Y-130905644D01*
X63363192Y-130915491D01*
X63413375Y-130964106D01*
X63428049Y-131019632D01*
X63429099Y-131019576D01*
X63429146Y-131019571D01*
X63429146Y-131019573D01*
X63429324Y-131019564D01*
X63429501Y-131022876D01*
X63435908Y-131082483D01*
X63486202Y-131217328D01*
X63486206Y-131217335D01*
X63572452Y-131332544D01*
X63572455Y-131332547D01*
X63687664Y-131418793D01*
X63687671Y-131418797D01*
X63822517Y-131469091D01*
X63822516Y-131469091D01*
X63829444Y-131469835D01*
X63882127Y-131475500D01*
X65577872Y-131475499D01*
X65637483Y-131469091D01*
X65701222Y-131445318D01*
X65744555Y-131437500D01*
X71852685Y-131437500D01*
X71919724Y-131457185D01*
X71964406Y-131507699D01*
X71965224Y-131509398D01*
X71965226Y-131509404D01*
X71984305Y-131549021D01*
X72007791Y-131597791D01*
X72008969Y-131600311D01*
X72049511Y-131689567D01*
X72049512Y-131689570D01*
X72052083Y-131693281D01*
X72061866Y-131710081D01*
X72063824Y-131714147D01*
X72063827Y-131714152D01*
X72121454Y-131793468D01*
X72123064Y-131795737D01*
X72152725Y-131838549D01*
X72178931Y-131876376D01*
X72178933Y-131876378D01*
X72182115Y-131879560D01*
X72194750Y-131894353D01*
X72197399Y-131898000D01*
X72197406Y-131898007D01*
X72268296Y-131965784D01*
X72270286Y-131967730D01*
X72585214Y-132282658D01*
X72594480Y-132293027D01*
X72616780Y-132320990D01*
X72616782Y-132320991D01*
X72616783Y-132320993D01*
X72667197Y-132365038D01*
X72673294Y-132370738D01*
X72680375Y-132377819D01*
X72697499Y-132392114D01*
X72711980Y-132404203D01*
X72714063Y-132405983D01*
X72787913Y-132470505D01*
X72787917Y-132470507D01*
X72787922Y-132470512D01*
X72791786Y-132472820D01*
X72807664Y-132484087D01*
X72811120Y-132486973D01*
X72811122Y-132486974D01*
X72896405Y-132535365D01*
X72898811Y-132536766D01*
X72983002Y-132587068D01*
X72983005Y-132587069D01*
X72983008Y-132587071D01*
X72985458Y-132587990D01*
X72987223Y-132588653D01*
X73004852Y-132596900D01*
X73008772Y-132599124D01*
X73101390Y-132631532D01*
X73103903Y-132632443D01*
X73195771Y-132666922D01*
X73200206Y-132667726D01*
X73219031Y-132672696D01*
X73223274Y-132674181D01*
X73320251Y-132689540D01*
X73322799Y-132689973D01*
X73401759Y-132704303D01*
X73419372Y-132707500D01*
X73419373Y-132707500D01*
X73423880Y-132707500D01*
X73443266Y-132709025D01*
X73447729Y-132709732D01*
X73545800Y-132707531D01*
X73548582Y-132707500D01*
X74550445Y-132707500D01*
X74593778Y-132715318D01*
X74657517Y-132739091D01*
X74657516Y-132739091D01*
X74664444Y-132739835D01*
X74717127Y-132745500D01*
X76412872Y-132745499D01*
X76472483Y-132739091D01*
X76607331Y-132688796D01*
X76722546Y-132602546D01*
X76808796Y-132487331D01*
X76859091Y-132352483D01*
X76865500Y-132292873D01*
X76865499Y-130597128D01*
X76859091Y-130537517D01*
X76808796Y-130402669D01*
X76808795Y-130402668D01*
X76808793Y-130402664D01*
X76722547Y-130287455D01*
X76722544Y-130287452D01*
X76607335Y-130201206D01*
X76607328Y-130201202D01*
X76472482Y-130150908D01*
X76472483Y-130150908D01*
X76437404Y-130147137D01*
X76372853Y-130120399D01*
X76333005Y-130063006D01*
X76330512Y-129993181D01*
X76366165Y-129933092D01*
X76379539Y-129922272D01*
X76404140Y-129905046D01*
X76565045Y-129744141D01*
X76565047Y-129744139D01*
X76695568Y-129557734D01*
X76791739Y-129351496D01*
X76850635Y-129131692D01*
X76851847Y-129117844D01*
X79980000Y-129117844D01*
X79986401Y-129177372D01*
X79986403Y-129177379D01*
X80036645Y-129312086D01*
X80036649Y-129312093D01*
X80122809Y-129427187D01*
X80122812Y-129427190D01*
X80237906Y-129513350D01*
X80237913Y-129513354D01*
X80372620Y-129563596D01*
X80372627Y-129563598D01*
X80432155Y-129569999D01*
X80432172Y-129570000D01*
X81030000Y-129570000D01*
X81030000Y-128585686D01*
X81041955Y-128597641D01*
X81154852Y-128655165D01*
X81248519Y-128670000D01*
X81311481Y-128670000D01*
X81405148Y-128655165D01*
X81518045Y-128597641D01*
X81530000Y-128585686D01*
X81530000Y-129570000D01*
X82127828Y-129570000D01*
X82127844Y-129569999D01*
X82187372Y-129563598D01*
X82187379Y-129563596D01*
X82322086Y-129513354D01*
X82322093Y-129513350D01*
X82437187Y-129427190D01*
X82437190Y-129427187D01*
X82523350Y-129312093D01*
X82523354Y-129312086D01*
X82573596Y-129177380D01*
X82577424Y-129141781D01*
X82604162Y-129077230D01*
X82661555Y-129037382D01*
X82731380Y-129034888D01*
X82791469Y-129070540D01*
X82802289Y-129083912D01*
X82819956Y-129109143D01*
X82980858Y-129270045D01*
X82980861Y-129270047D01*
X83167266Y-129400568D01*
X83373504Y-129496739D01*
X83593308Y-129555635D01*
X83755230Y-129569801D01*
X83819998Y-129575468D01*
X83820000Y-129575468D01*
X83820002Y-129575468D01*
X83882511Y-129569999D01*
X84046692Y-129555635D01*
X84266496Y-129496739D01*
X84472734Y-129400568D01*
X84659139Y-129270047D01*
X84820047Y-129109139D01*
X84950568Y-128922734D01*
X84977893Y-128864134D01*
X85024065Y-128811695D01*
X85091258Y-128792543D01*
X85158139Y-128812758D01*
X85202657Y-128864134D01*
X85229864Y-128922480D01*
X85280974Y-128995472D01*
X85962046Y-128314400D01*
X85974835Y-128395148D01*
X86032359Y-128508045D01*
X86121955Y-128597641D01*
X86234852Y-128655165D01*
X86315599Y-128667953D01*
X85634526Y-129349025D01*
X85707513Y-129400132D01*
X85707521Y-129400136D01*
X85913668Y-129496264D01*
X85913682Y-129496269D01*
X86133389Y-129555139D01*
X86133400Y-129555141D01*
X86359998Y-129574966D01*
X86360002Y-129574966D01*
X86586599Y-129555141D01*
X86586610Y-129555139D01*
X86806317Y-129496269D01*
X86806331Y-129496264D01*
X87012478Y-129400136D01*
X87085471Y-129349024D01*
X86404400Y-128667953D01*
X86485148Y-128655165D01*
X86598045Y-128597641D01*
X86687641Y-128508045D01*
X86745165Y-128395148D01*
X86757953Y-128314400D01*
X87439024Y-128995471D01*
X87490133Y-128922482D01*
X87517341Y-128864135D01*
X87563513Y-128811696D01*
X87630707Y-128792543D01*
X87697588Y-128812758D01*
X87742105Y-128864132D01*
X87769432Y-128922734D01*
X87787637Y-128948734D01*
X87899954Y-129109141D01*
X88060858Y-129270045D01*
X88060861Y-129270047D01*
X88247266Y-129400568D01*
X88453504Y-129496739D01*
X88673308Y-129555635D01*
X88835230Y-129569801D01*
X88899998Y-129575468D01*
X88900000Y-129575468D01*
X88900002Y-129575468D01*
X88962511Y-129569999D01*
X89126692Y-129555635D01*
X89346496Y-129496739D01*
X89552734Y-129400568D01*
X89739139Y-129270047D01*
X89900047Y-129109139D01*
X90030568Y-128922734D01*
X90057618Y-128864724D01*
X90103790Y-128812285D01*
X90170983Y-128793133D01*
X90237865Y-128813348D01*
X90282381Y-128864724D01*
X90296517Y-128895038D01*
X90309429Y-128922728D01*
X90309432Y-128922734D01*
X90439954Y-129109141D01*
X90600858Y-129270045D01*
X90600861Y-129270047D01*
X90787266Y-129400568D01*
X90993504Y-129496739D01*
X91213308Y-129555635D01*
X91375230Y-129569801D01*
X91439998Y-129575468D01*
X91440000Y-129575468D01*
X91440002Y-129575468D01*
X91502511Y-129569999D01*
X91666692Y-129555635D01*
X91886496Y-129496739D01*
X92092734Y-129400568D01*
X92279139Y-129270047D01*
X92440047Y-129109139D01*
X92570568Y-128922734D01*
X92597618Y-128864724D01*
X92643790Y-128812285D01*
X92710983Y-128793133D01*
X92777865Y-128813348D01*
X92822381Y-128864724D01*
X92836517Y-128895038D01*
X92849429Y-128922728D01*
X92849432Y-128922734D01*
X92979954Y-129109141D01*
X93140858Y-129270045D01*
X93140861Y-129270047D01*
X93327266Y-129400568D01*
X93533504Y-129496739D01*
X93753308Y-129555635D01*
X93915230Y-129569801D01*
X93979998Y-129575468D01*
X93980000Y-129575468D01*
X93980002Y-129575468D01*
X94042511Y-129569999D01*
X94206692Y-129555635D01*
X94426496Y-129496739D01*
X94632734Y-129400568D01*
X94819139Y-129270047D01*
X94980047Y-129109139D01*
X95110568Y-128922734D01*
X95137893Y-128864134D01*
X95184065Y-128811695D01*
X95251258Y-128792543D01*
X95318139Y-128812758D01*
X95362657Y-128864134D01*
X95389864Y-128922480D01*
X95440974Y-128995472D01*
X96122046Y-128314400D01*
X96134835Y-128395148D01*
X96192359Y-128508045D01*
X96281955Y-128597641D01*
X96394852Y-128655165D01*
X96475599Y-128667953D01*
X95794526Y-129349025D01*
X95867513Y-129400132D01*
X95867521Y-129400136D01*
X96073668Y-129496264D01*
X96073682Y-129496269D01*
X96293389Y-129555139D01*
X96293400Y-129555141D01*
X96519998Y-129574966D01*
X96520002Y-129574966D01*
X96746599Y-129555141D01*
X96746610Y-129555139D01*
X96966317Y-129496269D01*
X96966331Y-129496264D01*
X97172478Y-129400136D01*
X97245471Y-129349024D01*
X96564400Y-128667953D01*
X96645148Y-128655165D01*
X96758045Y-128597641D01*
X96847641Y-128508045D01*
X96905165Y-128395148D01*
X96917953Y-128314400D01*
X97599024Y-128995471D01*
X97650136Y-128922478D01*
X97658286Y-128905001D01*
X101564532Y-128905001D01*
X101584364Y-129131686D01*
X101584366Y-129131697D01*
X101643258Y-129351488D01*
X101643261Y-129351497D01*
X101739431Y-129557732D01*
X101739432Y-129557734D01*
X101869954Y-129744141D01*
X102030858Y-129905045D01*
X102055462Y-129922273D01*
X102099087Y-129976849D01*
X102106281Y-130046348D01*
X102074758Y-130108703D01*
X102014529Y-130144117D01*
X101997593Y-130147138D01*
X101962516Y-130150908D01*
X101827671Y-130201202D01*
X101827664Y-130201206D01*
X101712455Y-130287452D01*
X101712452Y-130287455D01*
X101626206Y-130402664D01*
X101626202Y-130402671D01*
X101575908Y-130537517D01*
X101571879Y-130575000D01*
X101569501Y-130597123D01*
X101569500Y-130597135D01*
X101569500Y-132292870D01*
X101569501Y-132292876D01*
X101575908Y-132352483D01*
X101626202Y-132487328D01*
X101626206Y-132487335D01*
X101712452Y-132602544D01*
X101712455Y-132602547D01*
X101827664Y-132688793D01*
X101827671Y-132688797D01*
X101962517Y-132739091D01*
X101962516Y-132739091D01*
X101969444Y-132739835D01*
X102022127Y-132745500D01*
X103717872Y-132745499D01*
X103777483Y-132739091D01*
X103912331Y-132688796D01*
X104027546Y-132602546D01*
X104113796Y-132487331D01*
X104164091Y-132352483D01*
X104170500Y-132292873D01*
X104170499Y-130597128D01*
X104164091Y-130537517D01*
X104113796Y-130402669D01*
X104113795Y-130402668D01*
X104113793Y-130402664D01*
X104027547Y-130287455D01*
X104027544Y-130287452D01*
X103912335Y-130201206D01*
X103912328Y-130201202D01*
X103777482Y-130150908D01*
X103777483Y-130150908D01*
X103742404Y-130147137D01*
X103677853Y-130120399D01*
X103638005Y-130063006D01*
X103635512Y-129993181D01*
X103671165Y-129933092D01*
X103684539Y-129922272D01*
X103709140Y-129905046D01*
X103870045Y-129744141D01*
X103870047Y-129744139D01*
X104000568Y-129557734D01*
X104096739Y-129351496D01*
X104155635Y-129131692D01*
X104173916Y-128922735D01*
X104175468Y-128905001D01*
X104175468Y-128904998D01*
X104165629Y-128792543D01*
X104155635Y-128678308D01*
X104106949Y-128496610D01*
X104096741Y-128458511D01*
X104096738Y-128458502D01*
X104008838Y-128270002D01*
X104000568Y-128252266D01*
X103870047Y-128065861D01*
X103870045Y-128065858D01*
X103709141Y-127904954D01*
X103522734Y-127774432D01*
X103522728Y-127774429D01*
X103464725Y-127747382D01*
X103412285Y-127701210D01*
X103393133Y-127634017D01*
X103413348Y-127567135D01*
X103464725Y-127522618D01*
X103522734Y-127495568D01*
X103709139Y-127365047D01*
X103870047Y-127204139D01*
X104000568Y-127017734D01*
X104096739Y-126811496D01*
X104155635Y-126591692D01*
X104175468Y-126365000D01*
X104155635Y-126138308D01*
X104096739Y-125918504D01*
X104000568Y-125712266D01*
X103870047Y-125525861D01*
X103870045Y-125525858D01*
X103709141Y-125364954D01*
X103522734Y-125234432D01*
X103522728Y-125234429D01*
X103464725Y-125207382D01*
X103412285Y-125161210D01*
X103393133Y-125094017D01*
X103413348Y-125027135D01*
X103464725Y-124982618D01*
X103522734Y-124955568D01*
X103709139Y-124825047D01*
X103870047Y-124664139D01*
X104000568Y-124477734D01*
X104096739Y-124271496D01*
X104155635Y-124051692D01*
X104175468Y-123825000D01*
X104155635Y-123598308D01*
X104101047Y-123394580D01*
X104096741Y-123378511D01*
X104096738Y-123378502D01*
X104074612Y-123331053D01*
X104000568Y-123172266D01*
X103870047Y-122985861D01*
X103870045Y-122985858D01*
X103709141Y-122824954D01*
X103522734Y-122694432D01*
X103522728Y-122694429D01*
X103464725Y-122667382D01*
X103412285Y-122621210D01*
X103393133Y-122554017D01*
X103413348Y-122487135D01*
X103464725Y-122442618D01*
X103522734Y-122415568D01*
X103709139Y-122285047D01*
X103870047Y-122124139D01*
X104000568Y-121937734D01*
X104096739Y-121731496D01*
X104155635Y-121511692D01*
X104172708Y-121316546D01*
X104175468Y-121285001D01*
X104175468Y-121284998D01*
X104158451Y-121090499D01*
X104155635Y-121058308D01*
X104096739Y-120838504D01*
X104000568Y-120632266D01*
X103870047Y-120445861D01*
X103870045Y-120445858D01*
X103709141Y-120284954D01*
X103522734Y-120154432D01*
X103522728Y-120154429D01*
X103464725Y-120127382D01*
X103412285Y-120081210D01*
X103393133Y-120014017D01*
X103413348Y-119947135D01*
X103464725Y-119902618D01*
X103522734Y-119875568D01*
X103709139Y-119745047D01*
X103870047Y-119584139D01*
X104000568Y-119397734D01*
X104096739Y-119191496D01*
X104155635Y-118971692D01*
X104175468Y-118745000D01*
X104155635Y-118518308D01*
X104105122Y-118329789D01*
X104096741Y-118298511D01*
X104096738Y-118298502D01*
X104027937Y-118150959D01*
X104000568Y-118092266D01*
X103870047Y-117905861D01*
X103870045Y-117905858D01*
X103709141Y-117744954D01*
X103522734Y-117614432D01*
X103522728Y-117614429D01*
X103471412Y-117590500D01*
X103464724Y-117587381D01*
X103412285Y-117541210D01*
X103393133Y-117474017D01*
X103413348Y-117407135D01*
X103464725Y-117362618D01*
X103522734Y-117335568D01*
X103709139Y-117205047D01*
X103870047Y-117044139D01*
X104000568Y-116857734D01*
X104096739Y-116651496D01*
X104155635Y-116431692D01*
X104175468Y-116205000D01*
X104155635Y-115978308D01*
X104096739Y-115758504D01*
X104000568Y-115552266D01*
X103870047Y-115365861D01*
X103870045Y-115365858D01*
X103709141Y-115204954D01*
X103522734Y-115074432D01*
X103522728Y-115074429D01*
X103464725Y-115047382D01*
X103412285Y-115001210D01*
X103393133Y-114934017D01*
X103413348Y-114867135D01*
X103464725Y-114822618D01*
X103522734Y-114795568D01*
X103709139Y-114665047D01*
X103870047Y-114504139D01*
X104000568Y-114317734D01*
X104096739Y-114111496D01*
X104155635Y-113891692D01*
X104175468Y-113665000D01*
X104155635Y-113438308D01*
X104096739Y-113218504D01*
X104000568Y-113012266D01*
X103870047Y-112825861D01*
X103870045Y-112825858D01*
X103709141Y-112664954D01*
X103522734Y-112534432D01*
X103522728Y-112534429D01*
X103473488Y-112511468D01*
X103464724Y-112507381D01*
X103412285Y-112461210D01*
X103393133Y-112394017D01*
X103413348Y-112327135D01*
X103464725Y-112282618D01*
X103473730Y-112278419D01*
X103522734Y-112255568D01*
X103709139Y-112125047D01*
X103870047Y-111964139D01*
X104000568Y-111777734D01*
X104096739Y-111571496D01*
X104155635Y-111351692D01*
X104175468Y-111125000D01*
X104155635Y-110898308D01*
X104096739Y-110678504D01*
X104000568Y-110472266D01*
X103902839Y-110332693D01*
X103870045Y-110285858D01*
X103709141Y-110124954D01*
X103522734Y-109994432D01*
X103522728Y-109994429D01*
X103464725Y-109967382D01*
X103412285Y-109921210D01*
X103393133Y-109854017D01*
X103413348Y-109787135D01*
X103464725Y-109742618D01*
X103522734Y-109715568D01*
X103709139Y-109585047D01*
X103870047Y-109424139D01*
X104000568Y-109237734D01*
X104096739Y-109031496D01*
X104155635Y-108811692D01*
X104175468Y-108585000D01*
X104174375Y-108572512D01*
X104164644Y-108461280D01*
X104155635Y-108358308D01*
X104096739Y-108138504D01*
X104000568Y-107932266D01*
X103870047Y-107745861D01*
X103870045Y-107745858D01*
X103709141Y-107584954D01*
X103522734Y-107454432D01*
X103522732Y-107454431D01*
X103316497Y-107358261D01*
X103316488Y-107358258D01*
X103096697Y-107299366D01*
X103096693Y-107299365D01*
X103096692Y-107299365D01*
X103096691Y-107299364D01*
X103096686Y-107299364D01*
X102870002Y-107279532D01*
X102869998Y-107279532D01*
X102643313Y-107299364D01*
X102643302Y-107299366D01*
X102423511Y-107358258D01*
X102423502Y-107358261D01*
X102217267Y-107454431D01*
X102217265Y-107454432D01*
X102030858Y-107584954D01*
X101869954Y-107745858D01*
X101739432Y-107932265D01*
X101739431Y-107932267D01*
X101643261Y-108138502D01*
X101643258Y-108138511D01*
X101584366Y-108358302D01*
X101584364Y-108358313D01*
X101564532Y-108584998D01*
X101564532Y-108585001D01*
X101584364Y-108811686D01*
X101584366Y-108811697D01*
X101643258Y-109031488D01*
X101643261Y-109031497D01*
X101739431Y-109237732D01*
X101739432Y-109237734D01*
X101869954Y-109424141D01*
X102030858Y-109585045D01*
X102030861Y-109585047D01*
X102217266Y-109715568D01*
X102275275Y-109742618D01*
X102327714Y-109788791D01*
X102346866Y-109855984D01*
X102326650Y-109922865D01*
X102275275Y-109967382D01*
X102217267Y-109994431D01*
X102217265Y-109994432D01*
X102030858Y-110124954D01*
X101869954Y-110285858D01*
X101739432Y-110472265D01*
X101739431Y-110472267D01*
X101643261Y-110678502D01*
X101643258Y-110678511D01*
X101584366Y-110898302D01*
X101584364Y-110898313D01*
X101564532Y-111124998D01*
X101564532Y-111125001D01*
X101584364Y-111351686D01*
X101584366Y-111351697D01*
X101643258Y-111571488D01*
X101643261Y-111571497D01*
X101739431Y-111777732D01*
X101739432Y-111777734D01*
X101869954Y-111964141D01*
X102030858Y-112125045D01*
X102030861Y-112125047D01*
X102217266Y-112255568D01*
X102266270Y-112278419D01*
X102275275Y-112282618D01*
X102327714Y-112328791D01*
X102346866Y-112395984D01*
X102326650Y-112462865D01*
X102275275Y-112507381D01*
X102266512Y-112511468D01*
X102217267Y-112534431D01*
X102217265Y-112534432D01*
X102030858Y-112664954D01*
X101869954Y-112825858D01*
X101739432Y-113012265D01*
X101739431Y-113012267D01*
X101643261Y-113218502D01*
X101643258Y-113218511D01*
X101584366Y-113438302D01*
X101584364Y-113438313D01*
X101564532Y-113664998D01*
X101564532Y-113665001D01*
X101584364Y-113891686D01*
X101584366Y-113891697D01*
X101643258Y-114111488D01*
X101643261Y-114111497D01*
X101739431Y-114317732D01*
X101739432Y-114317734D01*
X101869954Y-114504141D01*
X102030858Y-114665045D01*
X102030861Y-114665047D01*
X102217266Y-114795568D01*
X102275275Y-114822618D01*
X102327714Y-114868791D01*
X102346866Y-114935984D01*
X102326650Y-115002865D01*
X102275275Y-115047382D01*
X102217267Y-115074431D01*
X102217265Y-115074432D01*
X102030858Y-115204954D01*
X101869954Y-115365858D01*
X101739432Y-115552265D01*
X101739431Y-115552267D01*
X101643261Y-115758502D01*
X101643258Y-115758511D01*
X101584366Y-115978302D01*
X101584364Y-115978313D01*
X101564532Y-116204998D01*
X101564532Y-116205001D01*
X101584364Y-116431686D01*
X101584366Y-116431697D01*
X101643258Y-116651488D01*
X101643261Y-116651497D01*
X101739431Y-116857732D01*
X101739432Y-116857734D01*
X101869954Y-117044141D01*
X102030858Y-117205045D01*
X102030861Y-117205047D01*
X102217266Y-117335568D01*
X102275275Y-117362618D01*
X102327714Y-117408791D01*
X102346866Y-117475984D01*
X102326650Y-117542865D01*
X102275275Y-117587382D01*
X102217267Y-117614431D01*
X102217265Y-117614432D01*
X102030858Y-117744954D01*
X101869954Y-117905858D01*
X101739432Y-118092265D01*
X101739431Y-118092267D01*
X101643261Y-118298502D01*
X101643258Y-118298511D01*
X101584366Y-118518302D01*
X101584364Y-118518313D01*
X101564532Y-118744998D01*
X101564532Y-118745001D01*
X101584364Y-118971686D01*
X101584366Y-118971697D01*
X101643258Y-119191488D01*
X101643261Y-119191497D01*
X101739431Y-119397732D01*
X101739432Y-119397734D01*
X101869954Y-119584141D01*
X102030858Y-119745045D01*
X102077693Y-119777839D01*
X102217266Y-119875568D01*
X102236168Y-119884382D01*
X102275275Y-119902618D01*
X102327714Y-119948791D01*
X102346866Y-120015984D01*
X102326650Y-120082865D01*
X102275275Y-120127382D01*
X102217267Y-120154431D01*
X102217265Y-120154432D01*
X102030858Y-120284954D01*
X101869954Y-120445858D01*
X101739432Y-120632265D01*
X101739431Y-120632267D01*
X101643261Y-120838502D01*
X101643258Y-120838511D01*
X101584366Y-121058302D01*
X101584364Y-121058313D01*
X101564532Y-121284998D01*
X101564532Y-121285001D01*
X101584364Y-121511686D01*
X101584366Y-121511697D01*
X101643258Y-121731488D01*
X101643261Y-121731497D01*
X101739431Y-121937732D01*
X101739432Y-121937734D01*
X101869954Y-122124141D01*
X102030858Y-122285045D01*
X102030861Y-122285047D01*
X102217266Y-122415568D01*
X102275275Y-122442618D01*
X102327714Y-122488791D01*
X102346866Y-122555984D01*
X102326650Y-122622865D01*
X102275275Y-122667382D01*
X102217267Y-122694431D01*
X102217265Y-122694432D01*
X102030858Y-122824954D01*
X101869954Y-122985858D01*
X101739432Y-123172265D01*
X101739431Y-123172267D01*
X101643261Y-123378502D01*
X101643258Y-123378511D01*
X101584366Y-123598302D01*
X101584364Y-123598313D01*
X101564532Y-123824998D01*
X101564532Y-123825001D01*
X101584364Y-124051686D01*
X101584366Y-124051697D01*
X101643258Y-124271488D01*
X101643261Y-124271497D01*
X101739431Y-124477732D01*
X101739432Y-124477734D01*
X101869954Y-124664141D01*
X102030858Y-124825045D01*
X102030861Y-124825047D01*
X102217266Y-124955568D01*
X102275275Y-124982618D01*
X102327714Y-125028791D01*
X102346866Y-125095984D01*
X102326650Y-125162865D01*
X102275275Y-125207382D01*
X102217267Y-125234431D01*
X102217265Y-125234432D01*
X102030858Y-125364954D01*
X101869954Y-125525858D01*
X101739432Y-125712265D01*
X101739431Y-125712267D01*
X101643261Y-125918502D01*
X101643258Y-125918511D01*
X101584366Y-126138302D01*
X101584364Y-126138313D01*
X101564532Y-126364998D01*
X101564532Y-126365001D01*
X101584364Y-126591686D01*
X101584366Y-126591697D01*
X101643258Y-126811488D01*
X101643261Y-126811497D01*
X101739431Y-127017732D01*
X101739432Y-127017734D01*
X101869954Y-127204141D01*
X102030858Y-127365045D01*
X102030861Y-127365047D01*
X102217266Y-127495568D01*
X102275275Y-127522618D01*
X102327714Y-127568791D01*
X102346866Y-127635984D01*
X102326650Y-127702865D01*
X102275275Y-127747382D01*
X102217267Y-127774431D01*
X102217265Y-127774432D01*
X102030858Y-127904954D01*
X101869954Y-128065858D01*
X101739432Y-128252265D01*
X101739431Y-128252267D01*
X101643261Y-128458502D01*
X101643258Y-128458511D01*
X101584366Y-128678302D01*
X101584364Y-128678313D01*
X101564532Y-128904998D01*
X101564532Y-128905001D01*
X97658286Y-128905001D01*
X97746264Y-128716331D01*
X97746269Y-128716317D01*
X97805139Y-128496610D01*
X97805141Y-128496599D01*
X97824966Y-128270002D01*
X97824966Y-128269997D01*
X97805141Y-128043400D01*
X97805139Y-128043389D01*
X97746269Y-127823682D01*
X97746264Y-127823668D01*
X97650136Y-127617521D01*
X97650132Y-127617513D01*
X97599025Y-127544526D01*
X96917953Y-128225598D01*
X96905165Y-128144852D01*
X96847641Y-128031955D01*
X96758045Y-127942359D01*
X96645148Y-127884835D01*
X96564401Y-127872046D01*
X97245472Y-127190974D01*
X97172478Y-127139863D01*
X96966331Y-127043735D01*
X96966317Y-127043730D01*
X96746610Y-126984860D01*
X96746599Y-126984858D01*
X96520002Y-126965034D01*
X96519998Y-126965034D01*
X96293400Y-126984858D01*
X96293389Y-126984860D01*
X96073682Y-127043730D01*
X96073673Y-127043734D01*
X95867516Y-127139866D01*
X95867512Y-127139868D01*
X95794526Y-127190973D01*
X95794526Y-127190974D01*
X96475599Y-127872046D01*
X96394852Y-127884835D01*
X96281955Y-127942359D01*
X96192359Y-128031955D01*
X96134835Y-128144852D01*
X96122046Y-128225598D01*
X95440974Y-127544526D01*
X95440973Y-127544526D01*
X95389868Y-127617512D01*
X95389868Y-127617513D01*
X95362657Y-127675867D01*
X95316484Y-127728306D01*
X95249290Y-127747457D01*
X95182409Y-127727241D01*
X95137893Y-127675865D01*
X95118837Y-127635000D01*
X95110568Y-127617266D01*
X94980047Y-127430861D01*
X94980045Y-127430858D01*
X94819141Y-127269954D01*
X94632734Y-127139432D01*
X94632732Y-127139431D01*
X94426497Y-127043261D01*
X94426488Y-127043258D01*
X94206697Y-126984366D01*
X94206693Y-126984365D01*
X94206692Y-126984365D01*
X94206691Y-126984364D01*
X94206686Y-126984364D01*
X93980002Y-126964532D01*
X93979998Y-126964532D01*
X93753313Y-126984364D01*
X93753302Y-126984366D01*
X93533511Y-127043258D01*
X93533502Y-127043261D01*
X93327267Y-127139431D01*
X93327265Y-127139432D01*
X93140858Y-127269954D01*
X92979954Y-127430858D01*
X92849432Y-127617265D01*
X92849431Y-127617267D01*
X92822382Y-127675275D01*
X92776209Y-127727714D01*
X92709016Y-127746866D01*
X92642135Y-127726650D01*
X92597618Y-127675275D01*
X92579296Y-127635984D01*
X92570568Y-127617266D01*
X92440047Y-127430861D01*
X92440045Y-127430858D01*
X92279141Y-127269954D01*
X92092734Y-127139432D01*
X92092732Y-127139431D01*
X91886497Y-127043261D01*
X91886488Y-127043258D01*
X91666697Y-126984366D01*
X91666693Y-126984365D01*
X91666692Y-126984365D01*
X91666691Y-126984364D01*
X91666686Y-126984364D01*
X91440002Y-126964532D01*
X91439998Y-126964532D01*
X91213313Y-126984364D01*
X91213302Y-126984366D01*
X90993511Y-127043258D01*
X90993502Y-127043261D01*
X90787267Y-127139431D01*
X90787265Y-127139432D01*
X90600858Y-127269954D01*
X90439954Y-127430858D01*
X90309432Y-127617265D01*
X90309431Y-127617267D01*
X90282382Y-127675275D01*
X90236209Y-127727714D01*
X90169016Y-127746866D01*
X90102135Y-127726650D01*
X90057618Y-127675275D01*
X90039296Y-127635984D01*
X90030568Y-127617266D01*
X89900047Y-127430861D01*
X89900045Y-127430858D01*
X89739141Y-127269954D01*
X89552734Y-127139432D01*
X89552732Y-127139431D01*
X89346497Y-127043261D01*
X89346488Y-127043258D01*
X89126697Y-126984366D01*
X89126693Y-126984365D01*
X89126692Y-126984365D01*
X89126691Y-126984364D01*
X89126686Y-126984364D01*
X88900002Y-126964532D01*
X88899998Y-126964532D01*
X88673313Y-126984364D01*
X88673302Y-126984366D01*
X88453511Y-127043258D01*
X88453502Y-127043261D01*
X88247267Y-127139431D01*
X88247265Y-127139432D01*
X88060858Y-127269954D01*
X87899954Y-127430858D01*
X87769432Y-127617265D01*
X87769428Y-127617272D01*
X87742105Y-127675866D01*
X87695932Y-127728305D01*
X87628738Y-127747456D01*
X87561858Y-127727239D01*
X87517342Y-127675864D01*
X87490136Y-127617521D01*
X87490132Y-127617513D01*
X87439025Y-127544526D01*
X86757953Y-128225598D01*
X86745165Y-128144852D01*
X86687641Y-128031955D01*
X86598045Y-127942359D01*
X86485148Y-127884835D01*
X86404401Y-127872046D01*
X87085472Y-127190974D01*
X87012478Y-127139863D01*
X86806331Y-127043735D01*
X86806317Y-127043730D01*
X86586610Y-126984860D01*
X86586599Y-126984858D01*
X86360002Y-126965034D01*
X86359998Y-126965034D01*
X86133400Y-126984858D01*
X86133389Y-126984860D01*
X85913682Y-127043730D01*
X85913673Y-127043734D01*
X85707516Y-127139866D01*
X85707512Y-127139868D01*
X85634526Y-127190973D01*
X85634526Y-127190974D01*
X86315599Y-127872046D01*
X86234852Y-127884835D01*
X86121955Y-127942359D01*
X86032359Y-128031955D01*
X85974835Y-128144852D01*
X85962046Y-128225598D01*
X85280974Y-127544526D01*
X85280973Y-127544526D01*
X85229868Y-127617512D01*
X85229868Y-127617513D01*
X85202657Y-127675867D01*
X85156484Y-127728306D01*
X85089290Y-127747457D01*
X85022409Y-127727241D01*
X84977893Y-127675865D01*
X84958837Y-127635000D01*
X84950568Y-127617266D01*
X84820047Y-127430861D01*
X84820045Y-127430858D01*
X84659141Y-127269954D01*
X84472734Y-127139432D01*
X84472732Y-127139431D01*
X84266497Y-127043261D01*
X84266488Y-127043258D01*
X84046697Y-126984366D01*
X84046693Y-126984365D01*
X84046692Y-126984365D01*
X84046691Y-126984364D01*
X84046686Y-126984364D01*
X83820002Y-126964532D01*
X83819998Y-126964532D01*
X83593313Y-126984364D01*
X83593302Y-126984366D01*
X83373511Y-127043258D01*
X83373502Y-127043261D01*
X83167267Y-127139431D01*
X83167265Y-127139432D01*
X82980858Y-127269954D01*
X82819951Y-127430861D01*
X82802287Y-127456088D01*
X82747710Y-127499712D01*
X82678211Y-127506904D01*
X82615857Y-127475380D01*
X82580445Y-127415150D01*
X82577425Y-127398218D01*
X82573598Y-127362627D01*
X82573596Y-127362620D01*
X82523354Y-127227913D01*
X82523350Y-127227906D01*
X82437190Y-127112812D01*
X82437187Y-127112809D01*
X82322093Y-127026649D01*
X82322086Y-127026645D01*
X82187379Y-126976403D01*
X82187372Y-126976401D01*
X82127844Y-126970000D01*
X81530000Y-126970000D01*
X81530000Y-127954314D01*
X81518045Y-127942359D01*
X81405148Y-127884835D01*
X81311481Y-127870000D01*
X81248519Y-127870000D01*
X81154852Y-127884835D01*
X81041955Y-127942359D01*
X81030000Y-127954314D01*
X81030000Y-126970000D01*
X80432155Y-126970000D01*
X80372627Y-126976401D01*
X80372620Y-126976403D01*
X80237913Y-127026645D01*
X80237906Y-127026649D01*
X80122812Y-127112809D01*
X80122809Y-127112812D01*
X80036649Y-127227906D01*
X80036645Y-127227913D01*
X79986403Y-127362620D01*
X79986401Y-127362627D01*
X79980000Y-127422155D01*
X79980000Y-128020000D01*
X80964314Y-128020000D01*
X80952359Y-128031955D01*
X80894835Y-128144852D01*
X80875014Y-128270000D01*
X80894835Y-128395148D01*
X80952359Y-128508045D01*
X80964314Y-128520000D01*
X79980000Y-128520000D01*
X79980000Y-129117844D01*
X76851847Y-129117844D01*
X76868916Y-128922735D01*
X76870468Y-128905001D01*
X76870468Y-128904998D01*
X76860629Y-128792543D01*
X76850635Y-128678308D01*
X76801949Y-128496610D01*
X76791741Y-128458511D01*
X76791738Y-128458502D01*
X76703838Y-128270002D01*
X76695568Y-128252266D01*
X76565047Y-128065861D01*
X76565045Y-128065858D01*
X76404141Y-127904954D01*
X76217734Y-127774432D01*
X76217728Y-127774429D01*
X76159725Y-127747382D01*
X76107285Y-127701210D01*
X76088133Y-127634017D01*
X76108348Y-127567135D01*
X76159725Y-127522618D01*
X76217734Y-127495568D01*
X76404139Y-127365047D01*
X76565047Y-127204139D01*
X76695568Y-127017734D01*
X76791739Y-126811496D01*
X76850635Y-126591692D01*
X76870468Y-126365000D01*
X76850635Y-126138308D01*
X76791739Y-125918504D01*
X76695568Y-125712266D01*
X76565047Y-125525861D01*
X76565045Y-125525858D01*
X76404141Y-125364954D01*
X76217734Y-125234432D01*
X76217728Y-125234429D01*
X76159725Y-125207382D01*
X76107285Y-125161210D01*
X76088133Y-125094017D01*
X76108348Y-125027135D01*
X76159725Y-124982618D01*
X76217734Y-124955568D01*
X76404139Y-124825047D01*
X76565047Y-124664139D01*
X76695568Y-124477734D01*
X76791739Y-124271496D01*
X76850635Y-124051692D01*
X76870468Y-123825000D01*
X76850635Y-123598308D01*
X76796047Y-123394580D01*
X76791741Y-123378511D01*
X76791738Y-123378502D01*
X76769612Y-123331053D01*
X76695568Y-123172266D01*
X76565047Y-122985861D01*
X76565045Y-122985858D01*
X76404141Y-122824954D01*
X76217734Y-122694432D01*
X76217728Y-122694429D01*
X76159725Y-122667382D01*
X76107285Y-122621210D01*
X76088133Y-122554017D01*
X76108348Y-122487135D01*
X76159725Y-122442618D01*
X76217734Y-122415568D01*
X76404139Y-122285047D01*
X76565047Y-122124139D01*
X76695568Y-121937734D01*
X76791739Y-121731496D01*
X76850635Y-121511692D01*
X76867708Y-121316546D01*
X76870468Y-121285001D01*
X76870468Y-121284998D01*
X76853451Y-121090499D01*
X76850635Y-121058308D01*
X76791739Y-120838504D01*
X76695568Y-120632266D01*
X76565047Y-120445861D01*
X76565045Y-120445858D01*
X76404141Y-120284954D01*
X76217734Y-120154432D01*
X76217728Y-120154429D01*
X76159725Y-120127382D01*
X76107285Y-120081210D01*
X76088133Y-120014017D01*
X76108348Y-119947135D01*
X76159725Y-119902618D01*
X76217734Y-119875568D01*
X76404139Y-119745047D01*
X76565047Y-119584139D01*
X76695568Y-119397734D01*
X76791739Y-119191496D01*
X76850635Y-118971692D01*
X76870468Y-118745000D01*
X76850635Y-118518308D01*
X76800122Y-118329789D01*
X76791741Y-118298511D01*
X76791738Y-118298502D01*
X76722937Y-118150959D01*
X76695568Y-118092266D01*
X76565047Y-117905861D01*
X76565045Y-117905858D01*
X76404141Y-117744954D01*
X76217734Y-117614432D01*
X76217728Y-117614429D01*
X76166412Y-117590500D01*
X76159724Y-117587381D01*
X76107285Y-117541210D01*
X76088133Y-117474017D01*
X76108348Y-117407135D01*
X76159725Y-117362618D01*
X76217734Y-117335568D01*
X76404139Y-117205047D01*
X76565047Y-117044139D01*
X76695568Y-116857734D01*
X76791739Y-116651496D01*
X76850635Y-116431692D01*
X76870468Y-116205000D01*
X76850635Y-115978308D01*
X76791739Y-115758504D01*
X76695568Y-115552266D01*
X76565047Y-115365861D01*
X76565045Y-115365858D01*
X76404141Y-115204954D01*
X76217734Y-115074432D01*
X76217728Y-115074429D01*
X76159725Y-115047382D01*
X76107285Y-115001210D01*
X76088133Y-114934017D01*
X76108348Y-114867135D01*
X76159725Y-114822618D01*
X76217734Y-114795568D01*
X76404139Y-114665047D01*
X76565047Y-114504139D01*
X76695568Y-114317734D01*
X76791739Y-114111496D01*
X76850635Y-113891692D01*
X76870468Y-113665000D01*
X76850635Y-113438308D01*
X76791739Y-113218504D01*
X76695568Y-113012266D01*
X76565047Y-112825861D01*
X76565045Y-112825858D01*
X76404141Y-112664954D01*
X76217734Y-112534432D01*
X76217728Y-112534429D01*
X76168488Y-112511468D01*
X76159724Y-112507381D01*
X76107285Y-112461210D01*
X76088133Y-112394017D01*
X76108348Y-112327135D01*
X76159725Y-112282618D01*
X76168730Y-112278419D01*
X76217734Y-112255568D01*
X76404139Y-112125047D01*
X76565047Y-111964139D01*
X76695568Y-111777734D01*
X76791739Y-111571496D01*
X76850635Y-111351692D01*
X76870468Y-111125000D01*
X76850635Y-110898308D01*
X76791739Y-110678504D01*
X76695568Y-110472266D01*
X76597839Y-110332693D01*
X76565045Y-110285858D01*
X76404141Y-110124954D01*
X76217734Y-109994432D01*
X76217728Y-109994429D01*
X76159725Y-109967382D01*
X76107285Y-109921210D01*
X76088133Y-109854017D01*
X76108348Y-109787135D01*
X76159725Y-109742618D01*
X76217734Y-109715568D01*
X76404139Y-109585047D01*
X76565047Y-109424139D01*
X76695568Y-109237734D01*
X76791739Y-109031496D01*
X76850635Y-108811692D01*
X76870468Y-108585000D01*
X76869375Y-108572512D01*
X76859644Y-108461280D01*
X76850635Y-108358308D01*
X76791739Y-108138504D01*
X76695568Y-107932266D01*
X76565047Y-107745861D01*
X76565045Y-107745858D01*
X76404141Y-107584954D01*
X76217734Y-107454432D01*
X76217732Y-107454431D01*
X76011497Y-107358261D01*
X76011488Y-107358258D01*
X75809798Y-107304216D01*
X75791692Y-107299365D01*
X75791691Y-107299364D01*
X75786463Y-107297964D01*
X75786852Y-107296511D01*
X75730515Y-107268591D01*
X75694623Y-107208645D01*
X75696838Y-107138810D01*
X75736457Y-107081260D01*
X75800901Y-107054264D01*
X75814648Y-107053500D01*
X77099500Y-107053500D01*
X77166539Y-107073185D01*
X77212294Y-107125989D01*
X77223500Y-107177500D01*
X77223500Y-116428753D01*
X77208858Y-116487206D01*
X77161333Y-116576118D01*
X77103208Y-116767728D01*
X77083582Y-116967000D01*
X77103208Y-117166271D01*
X77161333Y-117357881D01*
X77203854Y-117437432D01*
X77218450Y-117492515D01*
X77218626Y-117499006D01*
X77229733Y-117580536D01*
X77230141Y-117583864D01*
X77239033Y-117665613D01*
X77239033Y-117665616D01*
X77239120Y-117665872D01*
X77244471Y-117688705D01*
X77244509Y-117688987D01*
X77244511Y-117688994D01*
X77272892Y-117766248D01*
X77274007Y-117769414D01*
X77300256Y-117847318D01*
X77300401Y-117847559D01*
X77310532Y-117868700D01*
X77310627Y-117868960D01*
X77310632Y-117868970D01*
X77354947Y-117938301D01*
X77356690Y-117941111D01*
X77399107Y-118011608D01*
X77399108Y-118011610D01*
X77399294Y-118011806D01*
X77413748Y-118030294D01*
X77413896Y-118030525D01*
X77472075Y-118088704D01*
X77474382Y-118091075D01*
X77530961Y-118150805D01*
X77530963Y-118150807D01*
X77531187Y-118150959D01*
X77549286Y-118165915D01*
X79938379Y-120555008D01*
X79971864Y-120616331D01*
X79973660Y-120644587D01*
X79974532Y-120644587D01*
X79974532Y-120650001D01*
X79994364Y-120876686D01*
X79994366Y-120876697D01*
X80053258Y-121096488D01*
X80053261Y-121096497D01*
X80149431Y-121302732D01*
X80149432Y-121302734D01*
X80279954Y-121489141D01*
X80440858Y-121650045D01*
X80440861Y-121650047D01*
X80627266Y-121780568D01*
X80833504Y-121876739D01*
X81053308Y-121935635D01*
X81215230Y-121949801D01*
X81279998Y-121955468D01*
X81280000Y-121955468D01*
X81280002Y-121955468D01*
X81336673Y-121950509D01*
X81506692Y-121935635D01*
X81726496Y-121876739D01*
X81932734Y-121780568D01*
X82119139Y-121650047D01*
X82280047Y-121489139D01*
X82410568Y-121302734D01*
X82437618Y-121244724D01*
X82483790Y-121192285D01*
X82550983Y-121173133D01*
X82617865Y-121193348D01*
X82662382Y-121244725D01*
X82689429Y-121302728D01*
X82689432Y-121302734D01*
X82819954Y-121489141D01*
X82980858Y-121650045D01*
X82980861Y-121650047D01*
X83167266Y-121780568D01*
X83373504Y-121876739D01*
X83593308Y-121935635D01*
X83755230Y-121949801D01*
X83819998Y-121955468D01*
X83820000Y-121955468D01*
X83820002Y-121955468D01*
X83876673Y-121950509D01*
X84046692Y-121935635D01*
X84266496Y-121876739D01*
X84472734Y-121780568D01*
X84659139Y-121650047D01*
X84820047Y-121489139D01*
X84950568Y-121302734D01*
X84977618Y-121244724D01*
X85023790Y-121192285D01*
X85090983Y-121173133D01*
X85157865Y-121193348D01*
X85202382Y-121244725D01*
X85229429Y-121302728D01*
X85229432Y-121302734D01*
X85359954Y-121489141D01*
X85520858Y-121650045D01*
X85520861Y-121650047D01*
X85707266Y-121780568D01*
X85913504Y-121876739D01*
X86133308Y-121935635D01*
X86295230Y-121949801D01*
X86359998Y-121955468D01*
X86360000Y-121955468D01*
X86360002Y-121955468D01*
X86416673Y-121950509D01*
X86586692Y-121935635D01*
X86806496Y-121876739D01*
X87012734Y-121780568D01*
X87199139Y-121650047D01*
X87360047Y-121489139D01*
X87490568Y-121302734D01*
X87517618Y-121244724D01*
X87563790Y-121192285D01*
X87630983Y-121173133D01*
X87697865Y-121193348D01*
X87742382Y-121244725D01*
X87769429Y-121302728D01*
X87769432Y-121302734D01*
X87899954Y-121489141D01*
X88060858Y-121650045D01*
X88060861Y-121650047D01*
X88247266Y-121780568D01*
X88453504Y-121876739D01*
X88673308Y-121935635D01*
X88835230Y-121949801D01*
X88899998Y-121955468D01*
X88900000Y-121955468D01*
X88900002Y-121955468D01*
X88956673Y-121950509D01*
X89126692Y-121935635D01*
X89346496Y-121876739D01*
X89552734Y-121780568D01*
X89739139Y-121650047D01*
X89900047Y-121489139D01*
X90030568Y-121302734D01*
X90057618Y-121244724D01*
X90103790Y-121192285D01*
X90170983Y-121173133D01*
X90237865Y-121193348D01*
X90282382Y-121244725D01*
X90309429Y-121302728D01*
X90309432Y-121302734D01*
X90439954Y-121489141D01*
X90600858Y-121650045D01*
X90600861Y-121650047D01*
X90787266Y-121780568D01*
X90993504Y-121876739D01*
X91213308Y-121935635D01*
X91375230Y-121949801D01*
X91439998Y-121955468D01*
X91440000Y-121955468D01*
X91440002Y-121955468D01*
X91496673Y-121950509D01*
X91666692Y-121935635D01*
X91886496Y-121876739D01*
X92092734Y-121780568D01*
X92279139Y-121650047D01*
X92440047Y-121489139D01*
X92570568Y-121302734D01*
X92597618Y-121244724D01*
X92643790Y-121192285D01*
X92710983Y-121173133D01*
X92777865Y-121193348D01*
X92822382Y-121244725D01*
X92849429Y-121302728D01*
X92849432Y-121302734D01*
X92979954Y-121489141D01*
X93140858Y-121650045D01*
X93140861Y-121650047D01*
X93327266Y-121780568D01*
X93533504Y-121876739D01*
X93753308Y-121935635D01*
X93915230Y-121949801D01*
X93979998Y-121955468D01*
X93980000Y-121955468D01*
X93980002Y-121955468D01*
X94036673Y-121950509D01*
X94206692Y-121935635D01*
X94426496Y-121876739D01*
X94632734Y-121780568D01*
X94819139Y-121650047D01*
X94980047Y-121489139D01*
X95110568Y-121302734D01*
X95137618Y-121244724D01*
X95183790Y-121192285D01*
X95250983Y-121173133D01*
X95317865Y-121193348D01*
X95362382Y-121244725D01*
X95389429Y-121302728D01*
X95389432Y-121302734D01*
X95519954Y-121489141D01*
X95680858Y-121650045D01*
X95680861Y-121650047D01*
X95867266Y-121780568D01*
X96073504Y-121876739D01*
X96293308Y-121935635D01*
X96455230Y-121949801D01*
X96519998Y-121955468D01*
X96520000Y-121955468D01*
X96520002Y-121955468D01*
X96576673Y-121950509D01*
X96746692Y-121935635D01*
X96966496Y-121876739D01*
X97172734Y-121780568D01*
X97359139Y-121650047D01*
X97520047Y-121489139D01*
X97650568Y-121302734D01*
X97746739Y-121096496D01*
X97805635Y-120876692D01*
X97825468Y-120650000D01*
X97824994Y-120644587D01*
X97817157Y-120555008D01*
X97805635Y-120423308D01*
X97746739Y-120203504D01*
X97650568Y-119997266D01*
X97520047Y-119810861D01*
X97520045Y-119810858D01*
X97359141Y-119649954D01*
X97172734Y-119519432D01*
X97172732Y-119519431D01*
X96966497Y-119423261D01*
X96966488Y-119423258D01*
X96746697Y-119364366D01*
X96746693Y-119364365D01*
X96746692Y-119364365D01*
X96746691Y-119364364D01*
X96746686Y-119364364D01*
X96520002Y-119344532D01*
X96519998Y-119344532D01*
X96293313Y-119364364D01*
X96293302Y-119364366D01*
X96073511Y-119423258D01*
X96073502Y-119423261D01*
X95867267Y-119519431D01*
X95867265Y-119519432D01*
X95680858Y-119649954D01*
X95519954Y-119810858D01*
X95389432Y-119997265D01*
X95389431Y-119997267D01*
X95362382Y-120055275D01*
X95316209Y-120107714D01*
X95249016Y-120126866D01*
X95182135Y-120106650D01*
X95137618Y-120055275D01*
X95119296Y-120015984D01*
X95110568Y-119997266D01*
X94980047Y-119810861D01*
X94980045Y-119810858D01*
X94819141Y-119649954D01*
X94632734Y-119519432D01*
X94632732Y-119519431D01*
X94426497Y-119423261D01*
X94426488Y-119423258D01*
X94206697Y-119364366D01*
X94206693Y-119364365D01*
X94206692Y-119364365D01*
X94206691Y-119364364D01*
X94206686Y-119364364D01*
X93980002Y-119344532D01*
X93979998Y-119344532D01*
X93753313Y-119364364D01*
X93753302Y-119364366D01*
X93533511Y-119423258D01*
X93533502Y-119423261D01*
X93327267Y-119519431D01*
X93327265Y-119519432D01*
X93140858Y-119649954D01*
X92979954Y-119810858D01*
X92849432Y-119997265D01*
X92849431Y-119997267D01*
X92822382Y-120055275D01*
X92776209Y-120107714D01*
X92709016Y-120126866D01*
X92642135Y-120106650D01*
X92597618Y-120055275D01*
X92579296Y-120015984D01*
X92570568Y-119997266D01*
X92440047Y-119810861D01*
X92440045Y-119810858D01*
X92279141Y-119649954D01*
X92092734Y-119519432D01*
X92092732Y-119519431D01*
X91886497Y-119423261D01*
X91886488Y-119423258D01*
X91666697Y-119364366D01*
X91666693Y-119364365D01*
X91666692Y-119364365D01*
X91666691Y-119364364D01*
X91666686Y-119364364D01*
X91440002Y-119344532D01*
X91439998Y-119344532D01*
X91213313Y-119364364D01*
X91213302Y-119364366D01*
X90993511Y-119423258D01*
X90993502Y-119423261D01*
X90787267Y-119519431D01*
X90787265Y-119519432D01*
X90600858Y-119649954D01*
X90439954Y-119810858D01*
X90309432Y-119997265D01*
X90309431Y-119997267D01*
X90282382Y-120055275D01*
X90236209Y-120107714D01*
X90169016Y-120126866D01*
X90102135Y-120106650D01*
X90057618Y-120055275D01*
X90039296Y-120015984D01*
X90030568Y-119997266D01*
X89900047Y-119810861D01*
X89900045Y-119810858D01*
X89739141Y-119649954D01*
X89552734Y-119519432D01*
X89552732Y-119519431D01*
X89346497Y-119423261D01*
X89346488Y-119423258D01*
X89126697Y-119364366D01*
X89126693Y-119364365D01*
X89126692Y-119364365D01*
X89126691Y-119364364D01*
X89126686Y-119364364D01*
X88900002Y-119344532D01*
X88899998Y-119344532D01*
X88673313Y-119364364D01*
X88673302Y-119364366D01*
X88453511Y-119423258D01*
X88453502Y-119423261D01*
X88247267Y-119519431D01*
X88247265Y-119519432D01*
X88060858Y-119649954D01*
X87899954Y-119810858D01*
X87769432Y-119997265D01*
X87769431Y-119997267D01*
X87742382Y-120055275D01*
X87696209Y-120107714D01*
X87629016Y-120126866D01*
X87562135Y-120106650D01*
X87517618Y-120055275D01*
X87499296Y-120015984D01*
X87490568Y-119997266D01*
X87360047Y-119810861D01*
X87360045Y-119810858D01*
X87199141Y-119649954D01*
X87012734Y-119519432D01*
X87012732Y-119519431D01*
X86806497Y-119423261D01*
X86806488Y-119423258D01*
X86586697Y-119364366D01*
X86586693Y-119364365D01*
X86586692Y-119364365D01*
X86586691Y-119364364D01*
X86586686Y-119364364D01*
X86360002Y-119344532D01*
X86359998Y-119344532D01*
X86133313Y-119364364D01*
X86133302Y-119364366D01*
X85913511Y-119423258D01*
X85913502Y-119423261D01*
X85707267Y-119519431D01*
X85707265Y-119519432D01*
X85520858Y-119649954D01*
X85359954Y-119810858D01*
X85229432Y-119997265D01*
X85229431Y-119997267D01*
X85202382Y-120055275D01*
X85156209Y-120107714D01*
X85089016Y-120126866D01*
X85022135Y-120106650D01*
X84977618Y-120055275D01*
X84959296Y-120015984D01*
X84950568Y-119997266D01*
X84820047Y-119810861D01*
X84820045Y-119810858D01*
X84659141Y-119649954D01*
X84472734Y-119519432D01*
X84472732Y-119519431D01*
X84266497Y-119423261D01*
X84266488Y-119423258D01*
X84046697Y-119364366D01*
X84046693Y-119364365D01*
X84046692Y-119364365D01*
X84046691Y-119364364D01*
X84046686Y-119364364D01*
X83820002Y-119344532D01*
X83819998Y-119344532D01*
X83593313Y-119364364D01*
X83593302Y-119364366D01*
X83373511Y-119423258D01*
X83373502Y-119423261D01*
X83167267Y-119519431D01*
X83167265Y-119519432D01*
X82980858Y-119649954D01*
X82819954Y-119810858D01*
X82689432Y-119997265D01*
X82689431Y-119997267D01*
X82662382Y-120055275D01*
X82616209Y-120107714D01*
X82549016Y-120126866D01*
X82482135Y-120106650D01*
X82437618Y-120055275D01*
X82419296Y-120015984D01*
X82410568Y-119997266D01*
X82280047Y-119810861D01*
X82280045Y-119810858D01*
X82119141Y-119649954D01*
X81932734Y-119519432D01*
X81932732Y-119519431D01*
X81726497Y-119423261D01*
X81726488Y-119423258D01*
X81506697Y-119364366D01*
X81506693Y-119364365D01*
X81506692Y-119364365D01*
X81506691Y-119364364D01*
X81506686Y-119364364D01*
X81280002Y-119344532D01*
X81274587Y-119344532D01*
X81274587Y-119342435D01*
X81214993Y-119330458D01*
X81185008Y-119308379D01*
X79142533Y-117265904D01*
X79109048Y-117204581D01*
X79106811Y-117166073D01*
X79126418Y-116967000D01*
X79106792Y-116767731D01*
X79048667Y-116576120D01*
X79003288Y-116491221D01*
X79001142Y-116487206D01*
X78986500Y-116428753D01*
X78986500Y-110072870D01*
X79979500Y-110072870D01*
X79979501Y-110072876D01*
X79985908Y-110132483D01*
X80036202Y-110267328D01*
X80036206Y-110267335D01*
X80122452Y-110382544D01*
X80122455Y-110382547D01*
X80237664Y-110468793D01*
X80237671Y-110468797D01*
X80372517Y-110519091D01*
X80372516Y-110519091D01*
X80379444Y-110519835D01*
X80432127Y-110525500D01*
X82127872Y-110525499D01*
X82187483Y-110519091D01*
X82322331Y-110468796D01*
X82437546Y-110382546D01*
X82523796Y-110267331D01*
X82574091Y-110132483D01*
X82577862Y-110097401D01*
X82604599Y-110032855D01*
X82661990Y-109993006D01*
X82731816Y-109990511D01*
X82791905Y-110026163D01*
X82802726Y-110039536D01*
X82819956Y-110064143D01*
X82980858Y-110225045D01*
X82980861Y-110225047D01*
X83167266Y-110355568D01*
X83373504Y-110451739D01*
X83593308Y-110510635D01*
X83755230Y-110524801D01*
X83819998Y-110530468D01*
X83820000Y-110530468D01*
X83820002Y-110530468D01*
X83876807Y-110525498D01*
X84046692Y-110510635D01*
X84266496Y-110451739D01*
X84472734Y-110355568D01*
X84659139Y-110225047D01*
X84820047Y-110064139D01*
X84950568Y-109877734D01*
X84977618Y-109819724D01*
X85023790Y-109767285D01*
X85090983Y-109748133D01*
X85157865Y-109768348D01*
X85202382Y-109819725D01*
X85229429Y-109877728D01*
X85229432Y-109877734D01*
X85359954Y-110064141D01*
X85520858Y-110225045D01*
X85520861Y-110225047D01*
X85707266Y-110355568D01*
X85913504Y-110451739D01*
X86133308Y-110510635D01*
X86295230Y-110524801D01*
X86359998Y-110530468D01*
X86360000Y-110530468D01*
X86360002Y-110530468D01*
X86416807Y-110525498D01*
X86586692Y-110510635D01*
X86806496Y-110451739D01*
X87012734Y-110355568D01*
X87199139Y-110225047D01*
X87360047Y-110064139D01*
X87490568Y-109877734D01*
X87517618Y-109819724D01*
X87563790Y-109767285D01*
X87630983Y-109748133D01*
X87697865Y-109768348D01*
X87742382Y-109819725D01*
X87769429Y-109877728D01*
X87769432Y-109877734D01*
X87899954Y-110064141D01*
X88060858Y-110225045D01*
X88060861Y-110225047D01*
X88247266Y-110355568D01*
X88453504Y-110451739D01*
X88673308Y-110510635D01*
X88835230Y-110524801D01*
X88899998Y-110530468D01*
X88900000Y-110530468D01*
X88900002Y-110530468D01*
X88956807Y-110525498D01*
X89126692Y-110510635D01*
X89346496Y-110451739D01*
X89552734Y-110355568D01*
X89739139Y-110225047D01*
X89900047Y-110064139D01*
X90030568Y-109877734D01*
X90057618Y-109819724D01*
X90103790Y-109767285D01*
X90170983Y-109748133D01*
X90237865Y-109768348D01*
X90282382Y-109819725D01*
X90309429Y-109877728D01*
X90309432Y-109877734D01*
X90439954Y-110064141D01*
X90600858Y-110225045D01*
X90600861Y-110225047D01*
X90787266Y-110355568D01*
X90993504Y-110451739D01*
X91213308Y-110510635D01*
X91375230Y-110524801D01*
X91439998Y-110530468D01*
X91440000Y-110530468D01*
X91440002Y-110530468D01*
X91496807Y-110525498D01*
X91666692Y-110510635D01*
X91886496Y-110451739D01*
X92092734Y-110355568D01*
X92279139Y-110225047D01*
X92440047Y-110064139D01*
X92570568Y-109877734D01*
X92597618Y-109819724D01*
X92643790Y-109767285D01*
X92710983Y-109748133D01*
X92777865Y-109768348D01*
X92822382Y-109819725D01*
X92849429Y-109877728D01*
X92849432Y-109877734D01*
X92979954Y-110064141D01*
X93140858Y-110225045D01*
X93140861Y-110225047D01*
X93327266Y-110355568D01*
X93533504Y-110451739D01*
X93753308Y-110510635D01*
X93915230Y-110524801D01*
X93979998Y-110530468D01*
X93980000Y-110530468D01*
X93980002Y-110530468D01*
X94036807Y-110525498D01*
X94206692Y-110510635D01*
X94426496Y-110451739D01*
X94632734Y-110355568D01*
X94819139Y-110225047D01*
X94980047Y-110064139D01*
X95110568Y-109877734D01*
X95137893Y-109819134D01*
X95184065Y-109766695D01*
X95251258Y-109747543D01*
X95318139Y-109767758D01*
X95362657Y-109819134D01*
X95389864Y-109877480D01*
X95440974Y-109950472D01*
X96122046Y-109269400D01*
X96134835Y-109350148D01*
X96192359Y-109463045D01*
X96281955Y-109552641D01*
X96394852Y-109610165D01*
X96475599Y-109622953D01*
X95794526Y-110304025D01*
X95867513Y-110355132D01*
X95867521Y-110355136D01*
X96073668Y-110451264D01*
X96073682Y-110451269D01*
X96293389Y-110510139D01*
X96293400Y-110510141D01*
X96519998Y-110529966D01*
X96520002Y-110529966D01*
X96746599Y-110510141D01*
X96746610Y-110510139D01*
X96966317Y-110451269D01*
X96966331Y-110451264D01*
X97172478Y-110355136D01*
X97245471Y-110304024D01*
X96564400Y-109622953D01*
X96645148Y-109610165D01*
X96758045Y-109552641D01*
X96847641Y-109463045D01*
X96905165Y-109350148D01*
X96917953Y-109269400D01*
X97599024Y-109950471D01*
X97650136Y-109877478D01*
X97746264Y-109671331D01*
X97746269Y-109671317D01*
X97805139Y-109451610D01*
X97805141Y-109451599D01*
X97824966Y-109225002D01*
X97824966Y-109224997D01*
X97805141Y-108998400D01*
X97805139Y-108998389D01*
X97746269Y-108778682D01*
X97746264Y-108778668D01*
X97650136Y-108572521D01*
X97650132Y-108572513D01*
X97599025Y-108499526D01*
X96917953Y-109180598D01*
X96905165Y-109099852D01*
X96847641Y-108986955D01*
X96758045Y-108897359D01*
X96645148Y-108839835D01*
X96564401Y-108827046D01*
X97245472Y-108145974D01*
X97172478Y-108094863D01*
X96966331Y-107998735D01*
X96966317Y-107998730D01*
X96746610Y-107939860D01*
X96746599Y-107939858D01*
X96520002Y-107920034D01*
X96519998Y-107920034D01*
X96293400Y-107939858D01*
X96293389Y-107939860D01*
X96073682Y-107998730D01*
X96073673Y-107998734D01*
X95867516Y-108094866D01*
X95867512Y-108094868D01*
X95794526Y-108145973D01*
X95794526Y-108145974D01*
X96475599Y-108827046D01*
X96394852Y-108839835D01*
X96281955Y-108897359D01*
X96192359Y-108986955D01*
X96134835Y-109099852D01*
X96122046Y-109180598D01*
X95440974Y-108499526D01*
X95440973Y-108499526D01*
X95389868Y-108572512D01*
X95389868Y-108572513D01*
X95362657Y-108630867D01*
X95316484Y-108683306D01*
X95249290Y-108702457D01*
X95182409Y-108682241D01*
X95137893Y-108630865D01*
X95116808Y-108585649D01*
X95110568Y-108572266D01*
X94980047Y-108385861D01*
X94980045Y-108385858D01*
X94819141Y-108224954D01*
X94632734Y-108094432D01*
X94632732Y-108094431D01*
X94426497Y-107998261D01*
X94426488Y-107998258D01*
X94206697Y-107939366D01*
X94206693Y-107939365D01*
X94206692Y-107939365D01*
X94206691Y-107939364D01*
X94206686Y-107939364D01*
X93980002Y-107919532D01*
X93979998Y-107919532D01*
X93753313Y-107939364D01*
X93753302Y-107939366D01*
X93533511Y-107998258D01*
X93533502Y-107998261D01*
X93327267Y-108094431D01*
X93327265Y-108094432D01*
X93140858Y-108224954D01*
X92979954Y-108385858D01*
X92849432Y-108572265D01*
X92849431Y-108572267D01*
X92822382Y-108630275D01*
X92776209Y-108682714D01*
X92709016Y-108701866D01*
X92642135Y-108681650D01*
X92597618Y-108630275D01*
X92578965Y-108590274D01*
X92570568Y-108572266D01*
X92440047Y-108385861D01*
X92440045Y-108385858D01*
X92279141Y-108224954D01*
X92092734Y-108094432D01*
X92092732Y-108094431D01*
X91886497Y-107998261D01*
X91886488Y-107998258D01*
X91666697Y-107939366D01*
X91666693Y-107939365D01*
X91666692Y-107939365D01*
X91666691Y-107939364D01*
X91666686Y-107939364D01*
X91440002Y-107919532D01*
X91439998Y-107919532D01*
X91213313Y-107939364D01*
X91213302Y-107939366D01*
X90993511Y-107998258D01*
X90993502Y-107998261D01*
X90787267Y-108094431D01*
X90787265Y-108094432D01*
X90600858Y-108224954D01*
X90439954Y-108385858D01*
X90309432Y-108572265D01*
X90309431Y-108572267D01*
X90282382Y-108630275D01*
X90236209Y-108682714D01*
X90169016Y-108701866D01*
X90102135Y-108681650D01*
X90057618Y-108630275D01*
X90038965Y-108590274D01*
X90030568Y-108572266D01*
X89900047Y-108385861D01*
X89900045Y-108385858D01*
X89739141Y-108224954D01*
X89552734Y-108094432D01*
X89552732Y-108094431D01*
X89346497Y-107998261D01*
X89346488Y-107998258D01*
X89126697Y-107939366D01*
X89126693Y-107939365D01*
X89126692Y-107939365D01*
X89126691Y-107939364D01*
X89126686Y-107939364D01*
X88900002Y-107919532D01*
X88899998Y-107919532D01*
X88673313Y-107939364D01*
X88673302Y-107939366D01*
X88453511Y-107998258D01*
X88453502Y-107998261D01*
X88247267Y-108094431D01*
X88247265Y-108094432D01*
X88060858Y-108224954D01*
X87899954Y-108385858D01*
X87769432Y-108572265D01*
X87769431Y-108572267D01*
X87742382Y-108630275D01*
X87696209Y-108682714D01*
X87629016Y-108701866D01*
X87562135Y-108681650D01*
X87517618Y-108630275D01*
X87498965Y-108590274D01*
X87490568Y-108572266D01*
X87360047Y-108385861D01*
X87360045Y-108385858D01*
X87199141Y-108224954D01*
X87012734Y-108094432D01*
X87012732Y-108094431D01*
X86806497Y-107998261D01*
X86806488Y-107998258D01*
X86586697Y-107939366D01*
X86586693Y-107939365D01*
X86586692Y-107939365D01*
X86586691Y-107939364D01*
X86586686Y-107939364D01*
X86360002Y-107919532D01*
X86359998Y-107919532D01*
X86133313Y-107939364D01*
X86133302Y-107939366D01*
X85913511Y-107998258D01*
X85913502Y-107998261D01*
X85707267Y-108094431D01*
X85707265Y-108094432D01*
X85520858Y-108224954D01*
X85359954Y-108385858D01*
X85229432Y-108572265D01*
X85229431Y-108572267D01*
X85202382Y-108630275D01*
X85156209Y-108682714D01*
X85089016Y-108701866D01*
X85022135Y-108681650D01*
X84977618Y-108630275D01*
X84958965Y-108590274D01*
X84950568Y-108572266D01*
X84820047Y-108385861D01*
X84820045Y-108385858D01*
X84659141Y-108224954D01*
X84472734Y-108094432D01*
X84472732Y-108094431D01*
X84266497Y-107998261D01*
X84266488Y-107998258D01*
X84046697Y-107939366D01*
X84046693Y-107939365D01*
X84046692Y-107939365D01*
X84046691Y-107939364D01*
X84046686Y-107939364D01*
X83820002Y-107919532D01*
X83819998Y-107919532D01*
X83593313Y-107939364D01*
X83593302Y-107939366D01*
X83373511Y-107998258D01*
X83373502Y-107998261D01*
X83167267Y-108094431D01*
X83167265Y-108094432D01*
X82980858Y-108224954D01*
X82819954Y-108385858D01*
X82802725Y-108410464D01*
X82748147Y-108454088D01*
X82678648Y-108461280D01*
X82616294Y-108429757D01*
X82580882Y-108369526D01*
X82577861Y-108352591D01*
X82574091Y-108317516D01*
X82523797Y-108182671D01*
X82523793Y-108182664D01*
X82437547Y-108067455D01*
X82437544Y-108067452D01*
X82322335Y-107981206D01*
X82322328Y-107981202D01*
X82187482Y-107930908D01*
X82187483Y-107930908D01*
X82127883Y-107924501D01*
X82127881Y-107924500D01*
X82127873Y-107924500D01*
X82127864Y-107924500D01*
X80432129Y-107924500D01*
X80432123Y-107924501D01*
X80372516Y-107930908D01*
X80237671Y-107981202D01*
X80237664Y-107981206D01*
X80122455Y-108067452D01*
X80122452Y-108067455D01*
X80036206Y-108182664D01*
X80036202Y-108182671D01*
X79985908Y-108317517D01*
X79979501Y-108377116D01*
X79979500Y-108377135D01*
X79979500Y-110072870D01*
X78986500Y-110072870D01*
X78986500Y-106493450D01*
X79006185Y-106426411D01*
X79017115Y-106411871D01*
X79018736Y-106410015D01*
X79025036Y-106402804D01*
X79030736Y-106396707D01*
X79037814Y-106389630D01*
X79064248Y-106357965D01*
X79065903Y-106356026D01*
X79130512Y-106282078D01*
X79132811Y-106278228D01*
X79144088Y-106262334D01*
X79146972Y-106258881D01*
X79195398Y-106173534D01*
X79196742Y-106171227D01*
X79247071Y-106086992D01*
X79248648Y-106082787D01*
X79256903Y-106065140D01*
X79259124Y-106061228D01*
X79291532Y-105968606D01*
X79292422Y-105966150D01*
X79326922Y-105874229D01*
X79327726Y-105869795D01*
X79332695Y-105850971D01*
X79334181Y-105846726D01*
X79349538Y-105749762D01*
X79349974Y-105747197D01*
X79367500Y-105650627D01*
X79367500Y-105646120D01*
X79369027Y-105626721D01*
X79369732Y-105622271D01*
X79367531Y-105524200D01*
X79367500Y-105521418D01*
X79367500Y-102610500D01*
X79387185Y-102543461D01*
X79439989Y-102497706D01*
X79491500Y-102486500D01*
X80270952Y-102486500D01*
X80337991Y-102506185D01*
X80358628Y-102522814D01*
X80434079Y-102598265D01*
X80440862Y-102605048D01*
X80527709Y-102665858D01*
X80627266Y-102735568D01*
X80833504Y-102831739D01*
X81053308Y-102890635D01*
X81215230Y-102904801D01*
X81279998Y-102910468D01*
X81280000Y-102910468D01*
X81280002Y-102910468D01*
X81336673Y-102905509D01*
X81506692Y-102890635D01*
X81726496Y-102831739D01*
X81932734Y-102735568D01*
X82119139Y-102605047D01*
X82280047Y-102444139D01*
X82410568Y-102257734D01*
X82437618Y-102199724D01*
X82483790Y-102147285D01*
X82550983Y-102128133D01*
X82617865Y-102148348D01*
X82662382Y-102199725D01*
X82689429Y-102257728D01*
X82689432Y-102257734D01*
X82819954Y-102444141D01*
X82980858Y-102605045D01*
X82980861Y-102605047D01*
X83167266Y-102735568D01*
X83373504Y-102831739D01*
X83593308Y-102890635D01*
X83755230Y-102904801D01*
X83819998Y-102910468D01*
X83820000Y-102910468D01*
X83820002Y-102910468D01*
X83876673Y-102905509D01*
X84046692Y-102890635D01*
X84266496Y-102831739D01*
X84472734Y-102735568D01*
X84659139Y-102605047D01*
X84820047Y-102444139D01*
X84950568Y-102257734D01*
X84977618Y-102199724D01*
X85023790Y-102147285D01*
X85090983Y-102128133D01*
X85157865Y-102148348D01*
X85202382Y-102199725D01*
X85229429Y-102257728D01*
X85229432Y-102257734D01*
X85359954Y-102444141D01*
X85520858Y-102605045D01*
X85520861Y-102605047D01*
X85707266Y-102735568D01*
X85913504Y-102831739D01*
X86133308Y-102890635D01*
X86295230Y-102904801D01*
X86359998Y-102910468D01*
X86360000Y-102910468D01*
X86360002Y-102910468D01*
X86416673Y-102905509D01*
X86586692Y-102890635D01*
X86806496Y-102831739D01*
X87012734Y-102735568D01*
X87199139Y-102605047D01*
X87360047Y-102444139D01*
X87490568Y-102257734D01*
X87517618Y-102199724D01*
X87563790Y-102147285D01*
X87630983Y-102128133D01*
X87697865Y-102148348D01*
X87742382Y-102199725D01*
X87769429Y-102257728D01*
X87769432Y-102257734D01*
X87899954Y-102444141D01*
X88060858Y-102605045D01*
X88060861Y-102605047D01*
X88247266Y-102735568D01*
X88453504Y-102831739D01*
X88673308Y-102890635D01*
X88835230Y-102904801D01*
X88899998Y-102910468D01*
X88900000Y-102910468D01*
X88900002Y-102910468D01*
X88956673Y-102905509D01*
X89126692Y-102890635D01*
X89346496Y-102831739D01*
X89552734Y-102735568D01*
X89739139Y-102605047D01*
X89900047Y-102444139D01*
X90030568Y-102257734D01*
X90057618Y-102199724D01*
X90103790Y-102147285D01*
X90170983Y-102128133D01*
X90237865Y-102148348D01*
X90282382Y-102199725D01*
X90309429Y-102257728D01*
X90309432Y-102257734D01*
X90439954Y-102444141D01*
X90600858Y-102605045D01*
X90600861Y-102605047D01*
X90787266Y-102735568D01*
X90993504Y-102831739D01*
X91213308Y-102890635D01*
X91375230Y-102904801D01*
X91439998Y-102910468D01*
X91440000Y-102910468D01*
X91440002Y-102910468D01*
X91496673Y-102905509D01*
X91666692Y-102890635D01*
X91886496Y-102831739D01*
X92092734Y-102735568D01*
X92279139Y-102605047D01*
X92440047Y-102444139D01*
X92570568Y-102257734D01*
X92597618Y-102199724D01*
X92643790Y-102147285D01*
X92710983Y-102128133D01*
X92777865Y-102148348D01*
X92822382Y-102199725D01*
X92849429Y-102257728D01*
X92849432Y-102257734D01*
X92979954Y-102444141D01*
X93140858Y-102605045D01*
X93140861Y-102605047D01*
X93327266Y-102735568D01*
X93533504Y-102831739D01*
X93753308Y-102890635D01*
X93915230Y-102904801D01*
X93979998Y-102910468D01*
X93980000Y-102910468D01*
X93980002Y-102910468D01*
X94036673Y-102905509D01*
X94206692Y-102890635D01*
X94426496Y-102831739D01*
X94632734Y-102735568D01*
X94819139Y-102605047D01*
X94980047Y-102444139D01*
X95110568Y-102257734D01*
X95137618Y-102199724D01*
X95183790Y-102147285D01*
X95250983Y-102128133D01*
X95317865Y-102148348D01*
X95362382Y-102199725D01*
X95389429Y-102257728D01*
X95389432Y-102257734D01*
X95519954Y-102444141D01*
X95680858Y-102605045D01*
X95680861Y-102605047D01*
X95867266Y-102735568D01*
X96073504Y-102831739D01*
X96293308Y-102890635D01*
X96455230Y-102904801D01*
X96519998Y-102910468D01*
X96520000Y-102910468D01*
X96520002Y-102910468D01*
X96576673Y-102905509D01*
X96746692Y-102890635D01*
X96966496Y-102831739D01*
X97172734Y-102735568D01*
X97359139Y-102605047D01*
X97520047Y-102444139D01*
X97650568Y-102257734D01*
X97746739Y-102051496D01*
X97805635Y-101831692D01*
X97825468Y-101605000D01*
X97805635Y-101378308D01*
X97746739Y-101158504D01*
X97650568Y-100952266D01*
X97520047Y-100765861D01*
X97520045Y-100765858D01*
X97359141Y-100604954D01*
X97172734Y-100474432D01*
X97172732Y-100474431D01*
X96966497Y-100378261D01*
X96966488Y-100378258D01*
X96746697Y-100319366D01*
X96746693Y-100319365D01*
X96746692Y-100319365D01*
X96746691Y-100319364D01*
X96746686Y-100319364D01*
X96520002Y-100299532D01*
X96519998Y-100299532D01*
X96293313Y-100319364D01*
X96293302Y-100319366D01*
X96073511Y-100378258D01*
X96073502Y-100378261D01*
X95867267Y-100474431D01*
X95867265Y-100474432D01*
X95680858Y-100604954D01*
X95519954Y-100765858D01*
X95389432Y-100952265D01*
X95389431Y-100952267D01*
X95362382Y-101010275D01*
X95316209Y-101062714D01*
X95249016Y-101081866D01*
X95182135Y-101061650D01*
X95137618Y-101010275D01*
X95117929Y-100968052D01*
X95110568Y-100952266D01*
X94980047Y-100765861D01*
X94980045Y-100765858D01*
X94819141Y-100604954D01*
X94632734Y-100474432D01*
X94632732Y-100474431D01*
X94426497Y-100378261D01*
X94426488Y-100378258D01*
X94206697Y-100319366D01*
X94206693Y-100319365D01*
X94206692Y-100319365D01*
X94206691Y-100319364D01*
X94206686Y-100319364D01*
X93980002Y-100299532D01*
X93979998Y-100299532D01*
X93753313Y-100319364D01*
X93753302Y-100319366D01*
X93533511Y-100378258D01*
X93533502Y-100378261D01*
X93327267Y-100474431D01*
X93327265Y-100474432D01*
X93140858Y-100604954D01*
X92979954Y-100765858D01*
X92849432Y-100952265D01*
X92849431Y-100952267D01*
X92822382Y-101010275D01*
X92776209Y-101062714D01*
X92709016Y-101081866D01*
X92642135Y-101061650D01*
X92597618Y-101010275D01*
X92577929Y-100968052D01*
X92570568Y-100952266D01*
X92440047Y-100765861D01*
X92440045Y-100765858D01*
X92279141Y-100604954D01*
X92092734Y-100474432D01*
X92092732Y-100474431D01*
X91886497Y-100378261D01*
X91886488Y-100378258D01*
X91666697Y-100319366D01*
X91666693Y-100319365D01*
X91666692Y-100319365D01*
X91666691Y-100319364D01*
X91666686Y-100319364D01*
X91440002Y-100299532D01*
X91439998Y-100299532D01*
X91213313Y-100319364D01*
X91213302Y-100319366D01*
X90993511Y-100378258D01*
X90993502Y-100378261D01*
X90787267Y-100474431D01*
X90787265Y-100474432D01*
X90600858Y-100604954D01*
X90439954Y-100765858D01*
X90309432Y-100952265D01*
X90309431Y-100952267D01*
X90282382Y-101010275D01*
X90236209Y-101062714D01*
X90169016Y-101081866D01*
X90102135Y-101061650D01*
X90057618Y-101010275D01*
X90037929Y-100968052D01*
X90030568Y-100952266D01*
X89900047Y-100765861D01*
X89900045Y-100765858D01*
X89739141Y-100604954D01*
X89552734Y-100474432D01*
X89552732Y-100474431D01*
X89346497Y-100378261D01*
X89346488Y-100378258D01*
X89126697Y-100319366D01*
X89126693Y-100319365D01*
X89126692Y-100319365D01*
X89126691Y-100319364D01*
X89126686Y-100319364D01*
X88900002Y-100299532D01*
X88899998Y-100299532D01*
X88673313Y-100319364D01*
X88673302Y-100319366D01*
X88453511Y-100378258D01*
X88453502Y-100378261D01*
X88247267Y-100474431D01*
X88247265Y-100474432D01*
X88060858Y-100604954D01*
X87899954Y-100765858D01*
X87769432Y-100952265D01*
X87769431Y-100952267D01*
X87742382Y-101010275D01*
X87696209Y-101062714D01*
X87629016Y-101081866D01*
X87562135Y-101061650D01*
X87517618Y-101010275D01*
X87497929Y-100968052D01*
X87490568Y-100952266D01*
X87360047Y-100765861D01*
X87360045Y-100765858D01*
X87199141Y-100604954D01*
X87012734Y-100474432D01*
X87012732Y-100474431D01*
X86806497Y-100378261D01*
X86806488Y-100378258D01*
X86586697Y-100319366D01*
X86586693Y-100319365D01*
X86586692Y-100319365D01*
X86586691Y-100319364D01*
X86586686Y-100319364D01*
X86360002Y-100299532D01*
X86359998Y-100299532D01*
X86133313Y-100319364D01*
X86133302Y-100319366D01*
X85913511Y-100378258D01*
X85913502Y-100378261D01*
X85707267Y-100474431D01*
X85707265Y-100474432D01*
X85520858Y-100604954D01*
X85359954Y-100765858D01*
X85229432Y-100952265D01*
X85229431Y-100952267D01*
X85202382Y-101010275D01*
X85156209Y-101062714D01*
X85089016Y-101081866D01*
X85022135Y-101061650D01*
X84977618Y-101010275D01*
X84957929Y-100968052D01*
X84950568Y-100952266D01*
X84820047Y-100765861D01*
X84820045Y-100765858D01*
X84659141Y-100604954D01*
X84472734Y-100474432D01*
X84472732Y-100474431D01*
X84266497Y-100378261D01*
X84266488Y-100378258D01*
X84046697Y-100319366D01*
X84046693Y-100319365D01*
X84046692Y-100319365D01*
X84046691Y-100319364D01*
X84046686Y-100319364D01*
X83820002Y-100299532D01*
X83819998Y-100299532D01*
X83593313Y-100319364D01*
X83593302Y-100319366D01*
X83373511Y-100378258D01*
X83373502Y-100378261D01*
X83167267Y-100474431D01*
X83167265Y-100474432D01*
X82980858Y-100604954D01*
X82819954Y-100765858D01*
X82689432Y-100952265D01*
X82689431Y-100952267D01*
X82662382Y-101010275D01*
X82616209Y-101062714D01*
X82549016Y-101081866D01*
X82482135Y-101061650D01*
X82437618Y-101010275D01*
X82417929Y-100968052D01*
X82410568Y-100952266D01*
X82280047Y-100765861D01*
X82280045Y-100765858D01*
X82119141Y-100604954D01*
X81932734Y-100474432D01*
X81932732Y-100474431D01*
X81726497Y-100378261D01*
X81726488Y-100378258D01*
X81506697Y-100319366D01*
X81506693Y-100319365D01*
X81506692Y-100319365D01*
X81506691Y-100319364D01*
X81506686Y-100319364D01*
X81280002Y-100299532D01*
X81279998Y-100299532D01*
X81053313Y-100319364D01*
X81053302Y-100319366D01*
X80833511Y-100378258D01*
X80833502Y-100378261D01*
X80627267Y-100474431D01*
X80627265Y-100474432D01*
X80440862Y-100604951D01*
X80399748Y-100646066D01*
X80358631Y-100687182D01*
X80297311Y-100720666D01*
X80270952Y-100723500D01*
X79491500Y-100723500D01*
X79424461Y-100703815D01*
X79378706Y-100651011D01*
X79367500Y-100599500D01*
X79367500Y-99389306D01*
X79367500Y-99389301D01*
X79352232Y-99219661D01*
X79352232Y-99219659D01*
X79291778Y-99000607D01*
X79291772Y-99000592D01*
X79193175Y-98795853D01*
X79193171Y-98795845D01*
X79059600Y-98612000D01*
X79059594Y-98611992D01*
X78895339Y-98454949D01*
X78895338Y-98454948D01*
X78808599Y-98397692D01*
X78705680Y-98329755D01*
X78653807Y-98307584D01*
X78496711Y-98240438D01*
X78496706Y-98240436D01*
X78496704Y-98240436D01*
X78447906Y-98229298D01*
X78386928Y-98195188D01*
X78354071Y-98133526D01*
X78351500Y-98108407D01*
X78351500Y-97652500D01*
X78371185Y-97585461D01*
X78423989Y-97539706D01*
X78475500Y-97528500D01*
X78582754Y-97528500D01*
X78641206Y-97543141D01*
X78730120Y-97590667D01*
X78921731Y-97648792D01*
X79121000Y-97668418D01*
X79320269Y-97648792D01*
X79511880Y-97590667D01*
X79688469Y-97496278D01*
X79843252Y-97369252D01*
X79970278Y-97214469D01*
X80064667Y-97037880D01*
X80122792Y-96846269D01*
X80142418Y-96647000D01*
X80122792Y-96447731D01*
X80064667Y-96256120D01*
X80064666Y-96256118D01*
X79970281Y-96079536D01*
X79970280Y-96079534D01*
X79970278Y-96079531D01*
X79897434Y-95990770D01*
X79843252Y-95924747D01*
X79761543Y-95857692D01*
X79688469Y-95797722D01*
X79688465Y-95797720D01*
X79688463Y-95797718D01*
X79511881Y-95703333D01*
X79320271Y-95645208D01*
X79121000Y-95625582D01*
X78921728Y-95645208D01*
X78730120Y-95703332D01*
X78671474Y-95734680D01*
X78641206Y-95750858D01*
X78582754Y-95765500D01*
X78475500Y-95765500D01*
X78408461Y-95745815D01*
X78362706Y-95693011D01*
X78351500Y-95641500D01*
X78351500Y-91017870D01*
X79979500Y-91017870D01*
X79979501Y-91017876D01*
X79985908Y-91077483D01*
X80036202Y-91212328D01*
X80036206Y-91212335D01*
X80122452Y-91327544D01*
X80122455Y-91327547D01*
X80237664Y-91413793D01*
X80237671Y-91413797D01*
X80372517Y-91464091D01*
X80372516Y-91464091D01*
X80379444Y-91464835D01*
X80432127Y-91470500D01*
X82127872Y-91470499D01*
X82187483Y-91464091D01*
X82322331Y-91413796D01*
X82437546Y-91327546D01*
X82523796Y-91212331D01*
X82574091Y-91077483D01*
X82577862Y-91042401D01*
X82604599Y-90977855D01*
X82661990Y-90938006D01*
X82731816Y-90935511D01*
X82791905Y-90971163D01*
X82802726Y-90984536D01*
X82819956Y-91009143D01*
X82980858Y-91170045D01*
X82980861Y-91170047D01*
X83167266Y-91300568D01*
X83373504Y-91396739D01*
X83593308Y-91455635D01*
X83755230Y-91469801D01*
X83819998Y-91475468D01*
X83820000Y-91475468D01*
X83820002Y-91475468D01*
X83876807Y-91470498D01*
X84046692Y-91455635D01*
X84266496Y-91396739D01*
X84472734Y-91300568D01*
X84659139Y-91170047D01*
X84820047Y-91009139D01*
X84950568Y-90822734D01*
X84977618Y-90764724D01*
X85023790Y-90712285D01*
X85090983Y-90693133D01*
X85157865Y-90713348D01*
X85202381Y-90764724D01*
X85216517Y-90795038D01*
X85229429Y-90822728D01*
X85229432Y-90822734D01*
X85359954Y-91009141D01*
X85520858Y-91170045D01*
X85520861Y-91170047D01*
X85707266Y-91300568D01*
X85913504Y-91396739D01*
X86133308Y-91455635D01*
X86295230Y-91469801D01*
X86359998Y-91475468D01*
X86360000Y-91475468D01*
X86360002Y-91475468D01*
X86416807Y-91470498D01*
X86586692Y-91455635D01*
X86806496Y-91396739D01*
X87012734Y-91300568D01*
X87199139Y-91170047D01*
X87360047Y-91009139D01*
X87490568Y-90822734D01*
X87517618Y-90764724D01*
X87563790Y-90712285D01*
X87630983Y-90693133D01*
X87697865Y-90713348D01*
X87742381Y-90764724D01*
X87756517Y-90795038D01*
X87769429Y-90822728D01*
X87769432Y-90822734D01*
X87899954Y-91009141D01*
X88060858Y-91170045D01*
X88060861Y-91170047D01*
X88247266Y-91300568D01*
X88453504Y-91396739D01*
X88673308Y-91455635D01*
X88835230Y-91469801D01*
X88899998Y-91475468D01*
X88900000Y-91475468D01*
X88900002Y-91475468D01*
X88956807Y-91470498D01*
X89126692Y-91455635D01*
X89346496Y-91396739D01*
X89552734Y-91300568D01*
X89739139Y-91170047D01*
X89900047Y-91009139D01*
X90030568Y-90822734D01*
X90057618Y-90764724D01*
X90103790Y-90712285D01*
X90170983Y-90693133D01*
X90237865Y-90713348D01*
X90282381Y-90764724D01*
X90296517Y-90795038D01*
X90309429Y-90822728D01*
X90309432Y-90822734D01*
X90439954Y-91009141D01*
X90600858Y-91170045D01*
X90600861Y-91170047D01*
X90787266Y-91300568D01*
X90993504Y-91396739D01*
X91213308Y-91455635D01*
X91375230Y-91469801D01*
X91439998Y-91475468D01*
X91440000Y-91475468D01*
X91440002Y-91475468D01*
X91496807Y-91470498D01*
X91666692Y-91455635D01*
X91886496Y-91396739D01*
X92092734Y-91300568D01*
X92279139Y-91170047D01*
X92440047Y-91009139D01*
X92570568Y-90822734D01*
X92597618Y-90764724D01*
X92643790Y-90712285D01*
X92710983Y-90693133D01*
X92777865Y-90713348D01*
X92822381Y-90764724D01*
X92836517Y-90795038D01*
X92849429Y-90822728D01*
X92849432Y-90822734D01*
X92979954Y-91009141D01*
X93140858Y-91170045D01*
X93140861Y-91170047D01*
X93327266Y-91300568D01*
X93533504Y-91396739D01*
X93753308Y-91455635D01*
X93915230Y-91469801D01*
X93979998Y-91475468D01*
X93980000Y-91475468D01*
X93980002Y-91475468D01*
X94036807Y-91470498D01*
X94206692Y-91455635D01*
X94426496Y-91396739D01*
X94632734Y-91300568D01*
X94819139Y-91170047D01*
X94980047Y-91009139D01*
X95110568Y-90822734D01*
X95137893Y-90764134D01*
X95184065Y-90711695D01*
X95251258Y-90692543D01*
X95318139Y-90712758D01*
X95362657Y-90764134D01*
X95389864Y-90822480D01*
X95440974Y-90895472D01*
X96122046Y-90214400D01*
X96134835Y-90295148D01*
X96192359Y-90408045D01*
X96281955Y-90497641D01*
X96394852Y-90555165D01*
X96475599Y-90567953D01*
X95794526Y-91249025D01*
X95867513Y-91300132D01*
X95867521Y-91300136D01*
X96073668Y-91396264D01*
X96073682Y-91396269D01*
X96293389Y-91455139D01*
X96293400Y-91455141D01*
X96519998Y-91474966D01*
X96520002Y-91474966D01*
X96746599Y-91455141D01*
X96746610Y-91455139D01*
X96966317Y-91396269D01*
X96966331Y-91396264D01*
X97172478Y-91300136D01*
X97245471Y-91249024D01*
X96564400Y-90567953D01*
X96645148Y-90555165D01*
X96758045Y-90497641D01*
X96847641Y-90408045D01*
X96905165Y-90295148D01*
X96917953Y-90214400D01*
X97599024Y-90895471D01*
X97650136Y-90822478D01*
X97746264Y-90616331D01*
X97746269Y-90616317D01*
X97805139Y-90396610D01*
X97805141Y-90396599D01*
X97824966Y-90170002D01*
X97824966Y-90169997D01*
X97805141Y-89943400D01*
X97805139Y-89943389D01*
X97746269Y-89723682D01*
X97746264Y-89723668D01*
X97650136Y-89517521D01*
X97650132Y-89517513D01*
X97599025Y-89444526D01*
X96917953Y-90125598D01*
X96905165Y-90044852D01*
X96847641Y-89931955D01*
X96758045Y-89842359D01*
X96645148Y-89784835D01*
X96564401Y-89772046D01*
X97245472Y-89090974D01*
X97172478Y-89039863D01*
X96966331Y-88943735D01*
X96966317Y-88943730D01*
X96746610Y-88884860D01*
X96746599Y-88884858D01*
X96520002Y-88865034D01*
X96519998Y-88865034D01*
X96293400Y-88884858D01*
X96293389Y-88884860D01*
X96073682Y-88943730D01*
X96073673Y-88943734D01*
X95867516Y-89039866D01*
X95867512Y-89039868D01*
X95794526Y-89090973D01*
X95794526Y-89090974D01*
X96475599Y-89772046D01*
X96394852Y-89784835D01*
X96281955Y-89842359D01*
X96192359Y-89931955D01*
X96134835Y-90044852D01*
X96122046Y-90125598D01*
X95440974Y-89444526D01*
X95440973Y-89444526D01*
X95389868Y-89517512D01*
X95389868Y-89517513D01*
X95362657Y-89575867D01*
X95316484Y-89628306D01*
X95249290Y-89647457D01*
X95182409Y-89627241D01*
X95137893Y-89575865D01*
X95129288Y-89557412D01*
X95110568Y-89517266D01*
X94980047Y-89330861D01*
X94980045Y-89330858D01*
X94819141Y-89169954D01*
X94632734Y-89039432D01*
X94632732Y-89039431D01*
X94426497Y-88943261D01*
X94426488Y-88943258D01*
X94206697Y-88884366D01*
X94206693Y-88884365D01*
X94206692Y-88884365D01*
X94206691Y-88884364D01*
X94206686Y-88884364D01*
X93980002Y-88864532D01*
X93979998Y-88864532D01*
X93753313Y-88884364D01*
X93753302Y-88884366D01*
X93533511Y-88943258D01*
X93533502Y-88943261D01*
X93327267Y-89039431D01*
X93327265Y-89039432D01*
X93140858Y-89169954D01*
X92979954Y-89330858D01*
X92849432Y-89517265D01*
X92849431Y-89517267D01*
X92822382Y-89575275D01*
X92776209Y-89627714D01*
X92709016Y-89646866D01*
X92642135Y-89626650D01*
X92597618Y-89575275D01*
X92592631Y-89564580D01*
X92570568Y-89517266D01*
X92440047Y-89330861D01*
X92440045Y-89330858D01*
X92279141Y-89169954D01*
X92092734Y-89039432D01*
X92092732Y-89039431D01*
X91886497Y-88943261D01*
X91886488Y-88943258D01*
X91666697Y-88884366D01*
X91666693Y-88884365D01*
X91666692Y-88884365D01*
X91666691Y-88884364D01*
X91666686Y-88884364D01*
X91440002Y-88864532D01*
X91439998Y-88864532D01*
X91213313Y-88884364D01*
X91213302Y-88884366D01*
X90993511Y-88943258D01*
X90993502Y-88943261D01*
X90787267Y-89039431D01*
X90787265Y-89039432D01*
X90600858Y-89169954D01*
X90439954Y-89330858D01*
X90309432Y-89517265D01*
X90309431Y-89517267D01*
X90282382Y-89575275D01*
X90236209Y-89627714D01*
X90169016Y-89646866D01*
X90102135Y-89626650D01*
X90057618Y-89575275D01*
X90052631Y-89564580D01*
X90030568Y-89517266D01*
X89900047Y-89330861D01*
X89900045Y-89330858D01*
X89739141Y-89169954D01*
X89552734Y-89039432D01*
X89552732Y-89039431D01*
X89346497Y-88943261D01*
X89346488Y-88943258D01*
X89126697Y-88884366D01*
X89126693Y-88884365D01*
X89126692Y-88884365D01*
X89126691Y-88884364D01*
X89126686Y-88884364D01*
X88900002Y-88864532D01*
X88899998Y-88864532D01*
X88673313Y-88884364D01*
X88673302Y-88884366D01*
X88453511Y-88943258D01*
X88453502Y-88943261D01*
X88247267Y-89039431D01*
X88247265Y-89039432D01*
X88060858Y-89169954D01*
X87899954Y-89330858D01*
X87769432Y-89517265D01*
X87769431Y-89517267D01*
X87742382Y-89575275D01*
X87696209Y-89627714D01*
X87629016Y-89646866D01*
X87562135Y-89626650D01*
X87517618Y-89575275D01*
X87512631Y-89564580D01*
X87490568Y-89517266D01*
X87360047Y-89330861D01*
X87360045Y-89330858D01*
X87199141Y-89169954D01*
X87012734Y-89039432D01*
X87012732Y-89039431D01*
X86806497Y-88943261D01*
X86806488Y-88943258D01*
X86586697Y-88884366D01*
X86586693Y-88884365D01*
X86586692Y-88884365D01*
X86586691Y-88884364D01*
X86586686Y-88884364D01*
X86360002Y-88864532D01*
X86359998Y-88864532D01*
X86133313Y-88884364D01*
X86133302Y-88884366D01*
X85913511Y-88943258D01*
X85913502Y-88943261D01*
X85707267Y-89039431D01*
X85707265Y-89039432D01*
X85520858Y-89169954D01*
X85359954Y-89330858D01*
X85229432Y-89517265D01*
X85229431Y-89517267D01*
X85202382Y-89575275D01*
X85156209Y-89627714D01*
X85089016Y-89646866D01*
X85022135Y-89626650D01*
X84977618Y-89575275D01*
X84972631Y-89564580D01*
X84950568Y-89517266D01*
X84820047Y-89330861D01*
X84820045Y-89330858D01*
X84659141Y-89169954D01*
X84472734Y-89039432D01*
X84472732Y-89039431D01*
X84266497Y-88943261D01*
X84266488Y-88943258D01*
X84046697Y-88884366D01*
X84046693Y-88884365D01*
X84046692Y-88884365D01*
X84046691Y-88884364D01*
X84046686Y-88884364D01*
X83820002Y-88864532D01*
X83819998Y-88864532D01*
X83593313Y-88884364D01*
X83593302Y-88884366D01*
X83373511Y-88943258D01*
X83373502Y-88943261D01*
X83167267Y-89039431D01*
X83167265Y-89039432D01*
X82980858Y-89169954D01*
X82819954Y-89330858D01*
X82802725Y-89355464D01*
X82748147Y-89399088D01*
X82678648Y-89406280D01*
X82616294Y-89374757D01*
X82580882Y-89314526D01*
X82577861Y-89297591D01*
X82576183Y-89281984D01*
X82574091Y-89262517D01*
X82573152Y-89260000D01*
X82523797Y-89127671D01*
X82523793Y-89127664D01*
X82437547Y-89012455D01*
X82437544Y-89012452D01*
X82322335Y-88926206D01*
X82322328Y-88926202D01*
X82187482Y-88875908D01*
X82187483Y-88875908D01*
X82127883Y-88869501D01*
X82127881Y-88869500D01*
X82127873Y-88869500D01*
X82127864Y-88869500D01*
X80432129Y-88869500D01*
X80432123Y-88869501D01*
X80372516Y-88875908D01*
X80237671Y-88926202D01*
X80237664Y-88926206D01*
X80122455Y-89012452D01*
X80122452Y-89012455D01*
X80036206Y-89127664D01*
X80036202Y-89127671D01*
X79985908Y-89262517D01*
X79979501Y-89322116D01*
X79979500Y-89322135D01*
X79979500Y-91017870D01*
X78351500Y-91017870D01*
X78351500Y-83728491D01*
X78371185Y-83661452D01*
X78387819Y-83640810D01*
X78560810Y-83467819D01*
X78622133Y-83434334D01*
X78648491Y-83431500D01*
X79025131Y-83431500D01*
X80270952Y-83431500D01*
X80337991Y-83451185D01*
X80358628Y-83467814D01*
X80440859Y-83550045D01*
X80440862Y-83550048D01*
X80488971Y-83583734D01*
X80627266Y-83680568D01*
X80833504Y-83776739D01*
X81053308Y-83835635D01*
X81215230Y-83849801D01*
X81279998Y-83855468D01*
X81280000Y-83855468D01*
X81280002Y-83855468D01*
X81336673Y-83850509D01*
X81506692Y-83835635D01*
X81726496Y-83776739D01*
X81932734Y-83680568D01*
X82119139Y-83550047D01*
X82280047Y-83389139D01*
X82410568Y-83202734D01*
X82437618Y-83144724D01*
X82483790Y-83092285D01*
X82550983Y-83073133D01*
X82617865Y-83093348D01*
X82662381Y-83144724D01*
X82668431Y-83157697D01*
X82689429Y-83202728D01*
X82689432Y-83202734D01*
X82819954Y-83389141D01*
X82980858Y-83550045D01*
X82980861Y-83550047D01*
X83167266Y-83680568D01*
X83373504Y-83776739D01*
X83593308Y-83835635D01*
X83755230Y-83849801D01*
X83819998Y-83855468D01*
X83820000Y-83855468D01*
X83820002Y-83855468D01*
X83876673Y-83850509D01*
X84046692Y-83835635D01*
X84266496Y-83776739D01*
X84472734Y-83680568D01*
X84659139Y-83550047D01*
X84820047Y-83389139D01*
X84950568Y-83202734D01*
X84977618Y-83144724D01*
X85023790Y-83092285D01*
X85090983Y-83073133D01*
X85157865Y-83093348D01*
X85202381Y-83144724D01*
X85208431Y-83157697D01*
X85229429Y-83202728D01*
X85229432Y-83202734D01*
X85359954Y-83389141D01*
X85520858Y-83550045D01*
X85520861Y-83550047D01*
X85707266Y-83680568D01*
X85913504Y-83776739D01*
X86133308Y-83835635D01*
X86295230Y-83849801D01*
X86359998Y-83855468D01*
X86360000Y-83855468D01*
X86360002Y-83855468D01*
X86416673Y-83850509D01*
X86586692Y-83835635D01*
X86806496Y-83776739D01*
X87012734Y-83680568D01*
X87199139Y-83550047D01*
X87360047Y-83389139D01*
X87490568Y-83202734D01*
X87517618Y-83144724D01*
X87563790Y-83092285D01*
X87630983Y-83073133D01*
X87697865Y-83093348D01*
X87742381Y-83144724D01*
X87748431Y-83157697D01*
X87769429Y-83202728D01*
X87769432Y-83202734D01*
X87899954Y-83389141D01*
X88060858Y-83550045D01*
X88060861Y-83550047D01*
X88247266Y-83680568D01*
X88453504Y-83776739D01*
X88673308Y-83835635D01*
X88835230Y-83849801D01*
X88899998Y-83855468D01*
X88900000Y-83855468D01*
X88900002Y-83855468D01*
X88956673Y-83850509D01*
X89126692Y-83835635D01*
X89346496Y-83776739D01*
X89552734Y-83680568D01*
X89739139Y-83550047D01*
X89900047Y-83389139D01*
X90030568Y-83202734D01*
X90057618Y-83144724D01*
X90103790Y-83092285D01*
X90170983Y-83073133D01*
X90237865Y-83093348D01*
X90282381Y-83144724D01*
X90288431Y-83157697D01*
X90309429Y-83202728D01*
X90309432Y-83202734D01*
X90439954Y-83389141D01*
X90600858Y-83550045D01*
X90600861Y-83550047D01*
X90787266Y-83680568D01*
X90993504Y-83776739D01*
X91213308Y-83835635D01*
X91375230Y-83849801D01*
X91439998Y-83855468D01*
X91440000Y-83855468D01*
X91440002Y-83855468D01*
X91496673Y-83850509D01*
X91666692Y-83835635D01*
X91886496Y-83776739D01*
X92092734Y-83680568D01*
X92279139Y-83550047D01*
X92440047Y-83389139D01*
X92570568Y-83202734D01*
X92597618Y-83144724D01*
X92643790Y-83092285D01*
X92710983Y-83073133D01*
X92777865Y-83093348D01*
X92822381Y-83144724D01*
X92828431Y-83157697D01*
X92849429Y-83202728D01*
X92849432Y-83202734D01*
X92979954Y-83389141D01*
X93140858Y-83550045D01*
X93140861Y-83550047D01*
X93327266Y-83680568D01*
X93533504Y-83776739D01*
X93753308Y-83835635D01*
X93915230Y-83849801D01*
X93979998Y-83855468D01*
X93980000Y-83855468D01*
X93980002Y-83855468D01*
X94036673Y-83850509D01*
X94206692Y-83835635D01*
X94426496Y-83776739D01*
X94632734Y-83680568D01*
X94819139Y-83550047D01*
X94980047Y-83389139D01*
X95110568Y-83202734D01*
X95137618Y-83144724D01*
X95183790Y-83092285D01*
X95250983Y-83073133D01*
X95317865Y-83093348D01*
X95362381Y-83144724D01*
X95368431Y-83157697D01*
X95389429Y-83202728D01*
X95389432Y-83202734D01*
X95519954Y-83389141D01*
X95680858Y-83550045D01*
X95680861Y-83550047D01*
X95867266Y-83680568D01*
X96073504Y-83776739D01*
X96293308Y-83835635D01*
X96455230Y-83849801D01*
X96519998Y-83855468D01*
X96520000Y-83855468D01*
X96520002Y-83855468D01*
X96576673Y-83850509D01*
X96746692Y-83835635D01*
X96966496Y-83776739D01*
X97172734Y-83680568D01*
X97359139Y-83550047D01*
X97520047Y-83389139D01*
X97650568Y-83202734D01*
X97746739Y-82996496D01*
X97805635Y-82776692D01*
X97825468Y-82550000D01*
X97823916Y-82532266D01*
X97807608Y-82345859D01*
X97805635Y-82323308D01*
X97746739Y-82103504D01*
X97650568Y-81897266D01*
X97520047Y-81710861D01*
X97520045Y-81710858D01*
X97359141Y-81549954D01*
X97172734Y-81419432D01*
X97172732Y-81419431D01*
X96966497Y-81323261D01*
X96966488Y-81323258D01*
X96746697Y-81264366D01*
X96746693Y-81264365D01*
X96746692Y-81264365D01*
X96746691Y-81264364D01*
X96746686Y-81264364D01*
X96520002Y-81244532D01*
X96519998Y-81244532D01*
X96293313Y-81264364D01*
X96293302Y-81264366D01*
X96073511Y-81323258D01*
X96073502Y-81323261D01*
X95867267Y-81419431D01*
X95867265Y-81419432D01*
X95680858Y-81549954D01*
X95519954Y-81710858D01*
X95389432Y-81897265D01*
X95389431Y-81897267D01*
X95386802Y-81902905D01*
X95366941Y-81945499D01*
X95362382Y-81955275D01*
X95316209Y-82007714D01*
X95249016Y-82026866D01*
X95182135Y-82006650D01*
X95137618Y-81955275D01*
X95133060Y-81945500D01*
X95110568Y-81897266D01*
X94980047Y-81710861D01*
X94980045Y-81710858D01*
X94819141Y-81549954D01*
X94632734Y-81419432D01*
X94632732Y-81419431D01*
X94426497Y-81323261D01*
X94426488Y-81323258D01*
X94206697Y-81264366D01*
X94206693Y-81264365D01*
X94206692Y-81264365D01*
X94206691Y-81264364D01*
X94206686Y-81264364D01*
X93980002Y-81244532D01*
X93979998Y-81244532D01*
X93753313Y-81264364D01*
X93753302Y-81264366D01*
X93533511Y-81323258D01*
X93533502Y-81323261D01*
X93327267Y-81419431D01*
X93327265Y-81419432D01*
X93140858Y-81549954D01*
X92979954Y-81710858D01*
X92849432Y-81897265D01*
X92849431Y-81897267D01*
X92846802Y-81902905D01*
X92826941Y-81945499D01*
X92822382Y-81955275D01*
X92776209Y-82007714D01*
X92709016Y-82026866D01*
X92642135Y-82006650D01*
X92597618Y-81955275D01*
X92593060Y-81945500D01*
X92570568Y-81897266D01*
X92440047Y-81710861D01*
X92440045Y-81710858D01*
X92279141Y-81549954D01*
X92092734Y-81419432D01*
X92092732Y-81419431D01*
X91886497Y-81323261D01*
X91886488Y-81323258D01*
X91666697Y-81264366D01*
X91666693Y-81264365D01*
X91666692Y-81264365D01*
X91666691Y-81264364D01*
X91666686Y-81264364D01*
X91440002Y-81244532D01*
X91439998Y-81244532D01*
X91213313Y-81264364D01*
X91213302Y-81264366D01*
X90993511Y-81323258D01*
X90993502Y-81323261D01*
X90787267Y-81419431D01*
X90787265Y-81419432D01*
X90600858Y-81549954D01*
X90439954Y-81710858D01*
X90309432Y-81897265D01*
X90309431Y-81897267D01*
X90306802Y-81902905D01*
X90286941Y-81945499D01*
X90282382Y-81955275D01*
X90236209Y-82007714D01*
X90169016Y-82026866D01*
X90102135Y-82006650D01*
X90057618Y-81955275D01*
X90053060Y-81945500D01*
X90030568Y-81897266D01*
X89900047Y-81710861D01*
X89900045Y-81710858D01*
X89739141Y-81549954D01*
X89552734Y-81419432D01*
X89552732Y-81419431D01*
X89346497Y-81323261D01*
X89346488Y-81323258D01*
X89126697Y-81264366D01*
X89126693Y-81264365D01*
X89126692Y-81264365D01*
X89126691Y-81264364D01*
X89126686Y-81264364D01*
X88900002Y-81244532D01*
X88899998Y-81244532D01*
X88673313Y-81264364D01*
X88673302Y-81264366D01*
X88453511Y-81323258D01*
X88453502Y-81323261D01*
X88247267Y-81419431D01*
X88247265Y-81419432D01*
X88060858Y-81549954D01*
X87899954Y-81710858D01*
X87769432Y-81897265D01*
X87769431Y-81897267D01*
X87766802Y-81902905D01*
X87746941Y-81945499D01*
X87742382Y-81955275D01*
X87696209Y-82007714D01*
X87629016Y-82026866D01*
X87562135Y-82006650D01*
X87517618Y-81955275D01*
X87513060Y-81945500D01*
X87490568Y-81897266D01*
X87360047Y-81710861D01*
X87360045Y-81710858D01*
X87199141Y-81549954D01*
X87012734Y-81419432D01*
X87012732Y-81419431D01*
X86806497Y-81323261D01*
X86806488Y-81323258D01*
X86586697Y-81264366D01*
X86586693Y-81264365D01*
X86586692Y-81264365D01*
X86586691Y-81264364D01*
X86586686Y-81264364D01*
X86360002Y-81244532D01*
X86359998Y-81244532D01*
X86133313Y-81264364D01*
X86133302Y-81264366D01*
X85913511Y-81323258D01*
X85913502Y-81323261D01*
X85707267Y-81419431D01*
X85707265Y-81419432D01*
X85520858Y-81549954D01*
X85359954Y-81710858D01*
X85229432Y-81897265D01*
X85229431Y-81897267D01*
X85226802Y-81902905D01*
X85206941Y-81945499D01*
X85202382Y-81955275D01*
X85156209Y-82007714D01*
X85089016Y-82026866D01*
X85022135Y-82006650D01*
X84977618Y-81955275D01*
X84973060Y-81945500D01*
X84950568Y-81897266D01*
X84820047Y-81710861D01*
X84820045Y-81710858D01*
X84659141Y-81549954D01*
X84472734Y-81419432D01*
X84472732Y-81419431D01*
X84266497Y-81323261D01*
X84266488Y-81323258D01*
X84046697Y-81264366D01*
X84046693Y-81264365D01*
X84046692Y-81264365D01*
X84046691Y-81264364D01*
X84046686Y-81264364D01*
X83820002Y-81244532D01*
X83819998Y-81244532D01*
X83593313Y-81264364D01*
X83593302Y-81264366D01*
X83373511Y-81323258D01*
X83373502Y-81323261D01*
X83167267Y-81419431D01*
X83167265Y-81419432D01*
X82980858Y-81549954D01*
X82819954Y-81710858D01*
X82689432Y-81897265D01*
X82689431Y-81897267D01*
X82686802Y-81902905D01*
X82666941Y-81945499D01*
X82662382Y-81955275D01*
X82616209Y-82007714D01*
X82549016Y-82026866D01*
X82482135Y-82006650D01*
X82437618Y-81955275D01*
X82433060Y-81945500D01*
X82410568Y-81897266D01*
X82280047Y-81710861D01*
X82280045Y-81710858D01*
X82119141Y-81549954D01*
X81932734Y-81419432D01*
X81932732Y-81419431D01*
X81726497Y-81323261D01*
X81726488Y-81323258D01*
X81506697Y-81264366D01*
X81506693Y-81264365D01*
X81506692Y-81264365D01*
X81506691Y-81264364D01*
X81506686Y-81264364D01*
X81280002Y-81244532D01*
X81279998Y-81244532D01*
X81053313Y-81264364D01*
X81053302Y-81264366D01*
X80833511Y-81323258D01*
X80833502Y-81323261D01*
X80627267Y-81419431D01*
X80627265Y-81419432D01*
X80440862Y-81549951D01*
X80399748Y-81591066D01*
X80358631Y-81632182D01*
X80297311Y-81665666D01*
X80270952Y-81668500D01*
X78521491Y-81668500D01*
X78454452Y-81648815D01*
X78433810Y-81632181D01*
X76901818Y-80100189D01*
X76868333Y-80038866D01*
X76865499Y-80012508D01*
X76865499Y-79543129D01*
X76865498Y-79543123D01*
X76865497Y-79543116D01*
X76859091Y-79483517D01*
X76828390Y-79401204D01*
X76808797Y-79348671D01*
X76808793Y-79348664D01*
X76722547Y-79233455D01*
X76722544Y-79233452D01*
X76607335Y-79147206D01*
X76607328Y-79147202D01*
X76472482Y-79096908D01*
X76472483Y-79096908D01*
X76412883Y-79090501D01*
X76412881Y-79090500D01*
X76412873Y-79090500D01*
X76412864Y-79090500D01*
X74717129Y-79090500D01*
X74717123Y-79090501D01*
X74657516Y-79096908D01*
X74522671Y-79147202D01*
X74522664Y-79147206D01*
X74407455Y-79233452D01*
X74407452Y-79233455D01*
X74321206Y-79348664D01*
X74321202Y-79348671D01*
X74270908Y-79483517D01*
X74264501Y-79543116D01*
X74264501Y-79543123D01*
X74264500Y-79543135D01*
X74264500Y-81238870D01*
X74264501Y-81238876D01*
X74270908Y-81298483D01*
X74321202Y-81433328D01*
X74321206Y-81433335D01*
X74407452Y-81548544D01*
X74407455Y-81548547D01*
X74522664Y-81634793D01*
X74522671Y-81634797D01*
X74560256Y-81648815D01*
X74657517Y-81685091D01*
X74692596Y-81688862D01*
X74757144Y-81715599D01*
X74796993Y-81772991D01*
X74799488Y-81842816D01*
X74763836Y-81902905D01*
X74750464Y-81913725D01*
X74725858Y-81930954D01*
X74564954Y-82091858D01*
X74434432Y-82278265D01*
X74434431Y-82278267D01*
X74338261Y-82484502D01*
X74338258Y-82484511D01*
X74279366Y-82704302D01*
X74279364Y-82704313D01*
X74259532Y-82930998D01*
X74259532Y-82931001D01*
X74279364Y-83157686D01*
X74279366Y-83157697D01*
X74338258Y-83377488D01*
X74338261Y-83377497D01*
X74434431Y-83583732D01*
X74434432Y-83583734D01*
X74564954Y-83770141D01*
X74725858Y-83931045D01*
X74725861Y-83931047D01*
X74912266Y-84061568D01*
X74970275Y-84088618D01*
X75022714Y-84134791D01*
X75041866Y-84201984D01*
X75021650Y-84268865D01*
X74970275Y-84313381D01*
X74953272Y-84321310D01*
X74912267Y-84340431D01*
X74912265Y-84340432D01*
X74725858Y-84470954D01*
X74564954Y-84631858D01*
X74434432Y-84818265D01*
X74434431Y-84818267D01*
X74338261Y-85024502D01*
X74338258Y-85024511D01*
X74279366Y-85244302D01*
X74279364Y-85244313D01*
X74259532Y-85470998D01*
X74259532Y-85471001D01*
X74279364Y-85697686D01*
X74279366Y-85697697D01*
X74338258Y-85917488D01*
X74338261Y-85917497D01*
X74434431Y-86123732D01*
X74434432Y-86123734D01*
X74564954Y-86310141D01*
X74725858Y-86471045D01*
X74772693Y-86503839D01*
X74912266Y-86601568D01*
X74970275Y-86628618D01*
X75022714Y-86674791D01*
X75041866Y-86741984D01*
X75021650Y-86808865D01*
X74970275Y-86853381D01*
X74953272Y-86861310D01*
X74912267Y-86880431D01*
X74912265Y-86880432D01*
X74725858Y-87010954D01*
X74564954Y-87171858D01*
X74434432Y-87358265D01*
X74434431Y-87358267D01*
X74338261Y-87564502D01*
X74338258Y-87564511D01*
X74296533Y-87720234D01*
X74260168Y-87779895D01*
X74197321Y-87810424D01*
X74127945Y-87802129D01*
X74080904Y-87766805D01*
X74001252Y-87669747D01*
X73916426Y-87600134D01*
X73846469Y-87542722D01*
X73846465Y-87542720D01*
X73846463Y-87542718D01*
X73669881Y-87448333D01*
X73478271Y-87390208D01*
X73279000Y-87370582D01*
X73079728Y-87390208D01*
X72888118Y-87448333D01*
X72755453Y-87519244D01*
X72687050Y-87533486D01*
X72621806Y-87508486D01*
X72580436Y-87452181D01*
X72573000Y-87409886D01*
X72573000Y-87019625D01*
X72573226Y-87012138D01*
X72574397Y-86992788D01*
X72576805Y-86952972D01*
X72566113Y-86894631D01*
X72564992Y-86887263D01*
X72557848Y-86828418D01*
X72554362Y-86819227D01*
X72548331Y-86797592D01*
X72546559Y-86787919D01*
X72546558Y-86787917D01*
X72546558Y-86787915D01*
X72522225Y-86733852D01*
X72519365Y-86726947D01*
X72498344Y-86671518D01*
X72492749Y-86663413D01*
X72481726Y-86643869D01*
X72477688Y-86634895D01*
X72441134Y-86588238D01*
X72436699Y-86582211D01*
X72435281Y-86580157D01*
X72403020Y-86533417D01*
X72358638Y-86494098D01*
X72353185Y-86488964D01*
X72177619Y-86313398D01*
X72144134Y-86252075D01*
X72141897Y-86237870D01*
X72141417Y-86233003D01*
X72141418Y-86233000D01*
X72121792Y-86033731D01*
X72063667Y-85842120D01*
X72037161Y-85792531D01*
X71969281Y-85665536D01*
X71969280Y-85665534D01*
X71969278Y-85665531D01*
X71853296Y-85524205D01*
X71842252Y-85510747D01*
X71761801Y-85444724D01*
X71687469Y-85383722D01*
X71687465Y-85383720D01*
X71687463Y-85383718D01*
X71510881Y-85289333D01*
X71319271Y-85231208D01*
X71120000Y-85211582D01*
X70920728Y-85231208D01*
X70729118Y-85289333D01*
X70552536Y-85383718D01*
X70397747Y-85510747D01*
X70270718Y-85665536D01*
X70235667Y-85731110D01*
X70186704Y-85780953D01*
X70118566Y-85796413D01*
X70052887Y-85772580D01*
X70030456Y-85751319D01*
X70013871Y-85731110D01*
X69995821Y-85709116D01*
X69937252Y-85637747D01*
X69856801Y-85571724D01*
X69782469Y-85510722D01*
X69782465Y-85510720D01*
X69782463Y-85510718D01*
X69605881Y-85416333D01*
X69414271Y-85358208D01*
X69215000Y-85338582D01*
X69015728Y-85358208D01*
X68824118Y-85416333D01*
X68647536Y-85510718D01*
X68492747Y-85637747D01*
X68365718Y-85792536D01*
X68271333Y-85969118D01*
X68213208Y-86160728D01*
X68193582Y-86360000D01*
X68213208Y-86559271D01*
X68271333Y-86750881D01*
X68365718Y-86927463D01*
X68365720Y-86927465D01*
X68365722Y-86927469D01*
X68441352Y-87019625D01*
X68495854Y-87086037D01*
X68523166Y-87150347D01*
X68524000Y-87164701D01*
X68524000Y-87224374D01*
X68523774Y-87231861D01*
X68520195Y-87291025D01*
X68520195Y-87291028D01*
X68530879Y-87349333D01*
X68532006Y-87356735D01*
X68539152Y-87415582D01*
X68542644Y-87424792D01*
X68548666Y-87446395D01*
X68550441Y-87456081D01*
X68574772Y-87510144D01*
X68577636Y-87517061D01*
X68598653Y-87572478D01*
X68598656Y-87572482D01*
X68604250Y-87580586D01*
X68615274Y-87600134D01*
X68619308Y-87609099D01*
X68619314Y-87609108D01*
X68655863Y-87655760D01*
X68660302Y-87661792D01*
X68693980Y-87710583D01*
X68738351Y-87749893D01*
X68743805Y-87755027D01*
X69580047Y-88591269D01*
X70392681Y-89403902D01*
X70426166Y-89465225D01*
X70429000Y-89491583D01*
X70429000Y-106088415D01*
X70409315Y-106155454D01*
X70392681Y-106176096D01*
X69908279Y-106660497D01*
X69846956Y-106693982D01*
X69801371Y-106694391D01*
X69801331Y-106694805D01*
X69797487Y-106694426D01*
X69796421Y-106694436D01*
X69795278Y-106694208D01*
X69596000Y-106674582D01*
X69396728Y-106694208D01*
X69205118Y-106752333D01*
X69028536Y-106846718D01*
X68873747Y-106973747D01*
X68746718Y-107128536D01*
X68652333Y-107305118D01*
X68594208Y-107496728D01*
X68574582Y-107696000D01*
X68581061Y-107761784D01*
X68570734Y-107824827D01*
X68550443Y-107869911D01*
X68550442Y-107869914D01*
X68548666Y-107879606D01*
X68542645Y-107901203D01*
X68539152Y-107910414D01*
X68539152Y-107910415D01*
X68532006Y-107969265D01*
X68530879Y-107976667D01*
X68520195Y-108034969D01*
X68520195Y-108034972D01*
X68523774Y-108094137D01*
X68524000Y-108101624D01*
X68524000Y-112606299D01*
X68504315Y-112673338D01*
X68495854Y-112684963D01*
X68365718Y-112843536D01*
X68271333Y-113020118D01*
X68213208Y-113211728D01*
X68193582Y-113411000D01*
X68213208Y-113610271D01*
X68271333Y-113801881D01*
X68365718Y-113978463D01*
X68365720Y-113978465D01*
X68365722Y-113978469D01*
X68395928Y-114015275D01*
X68492747Y-114133252D01*
X68558770Y-114187434D01*
X68647531Y-114260278D01*
X68647534Y-114260280D01*
X68647536Y-114260281D01*
X68755023Y-114317734D01*
X68824120Y-114354667D01*
X69015731Y-114412792D01*
X69215000Y-114432418D01*
X69414269Y-114412792D01*
X69605880Y-114354667D01*
X69782469Y-114260278D01*
X69937252Y-114133252D01*
X70064278Y-113978469D01*
X70064284Y-113978456D01*
X70064398Y-113978288D01*
X70064487Y-113978213D01*
X70068142Y-113973760D01*
X70068986Y-113974453D01*
X70118011Y-113933484D01*
X70187336Y-113924777D01*
X70250363Y-113954932D01*
X70266752Y-113973846D01*
X70266858Y-113973760D01*
X70270072Y-113977677D01*
X70270602Y-113978288D01*
X70270719Y-113978463D01*
X70270722Y-113978469D01*
X70270724Y-113978471D01*
X70397747Y-114133252D01*
X70463770Y-114187434D01*
X70552531Y-114260278D01*
X70552534Y-114260280D01*
X70552536Y-114260281D01*
X70660023Y-114317734D01*
X70729120Y-114354667D01*
X70920731Y-114412792D01*
X71120000Y-114432418D01*
X71319269Y-114412792D01*
X71510880Y-114354667D01*
X71687469Y-114260278D01*
X71687473Y-114260274D01*
X71692526Y-114256899D01*
X71693298Y-114258055D01*
X71751129Y-114233486D01*
X71819998Y-114245268D01*
X71871564Y-114292413D01*
X71889500Y-114356650D01*
X71889500Y-128788500D01*
X71869815Y-128855539D01*
X71817011Y-128901294D01*
X71765500Y-128912500D01*
X65744555Y-128912500D01*
X65701222Y-128904682D01*
X65637482Y-128880908D01*
X65637483Y-128880908D01*
X65577883Y-128874501D01*
X65577881Y-128874500D01*
X65577873Y-128874500D01*
X65577864Y-128874500D01*
X63882129Y-128874500D01*
X63882123Y-128874501D01*
X63822516Y-128880908D01*
X63687671Y-128931202D01*
X63687664Y-128931206D01*
X63572455Y-129017452D01*
X63572452Y-129017455D01*
X63486206Y-129132664D01*
X63486202Y-129132671D01*
X63435908Y-129267517D01*
X63429501Y-129327116D01*
X63429322Y-129330452D01*
X63427847Y-129330372D01*
X63409815Y-129391784D01*
X63357011Y-129437539D01*
X63313522Y-129445029D01*
X62627953Y-130130598D01*
X62615165Y-130049852D01*
X62557641Y-129936955D01*
X62468045Y-129847359D01*
X62355148Y-129789835D01*
X62274401Y-129777046D01*
X62955472Y-129095974D01*
X62882478Y-129044863D01*
X62676331Y-128948735D01*
X62676317Y-128948730D01*
X62456610Y-128889860D01*
X62456599Y-128889858D01*
X62230002Y-128870034D01*
X62229998Y-128870034D01*
X62003400Y-128889858D01*
X62003389Y-128889860D01*
X61783682Y-128948730D01*
X61783673Y-128948734D01*
X61577516Y-129044866D01*
X61577512Y-129044868D01*
X61504526Y-129095973D01*
X61504526Y-129095974D01*
X62185599Y-129777046D01*
X62104852Y-129789835D01*
X61991955Y-129847359D01*
X61902359Y-129936955D01*
X61844835Y-130049852D01*
X61832046Y-130130598D01*
X61150974Y-129449526D01*
X61150973Y-129449526D01*
X61099868Y-129522512D01*
X61099866Y-129522516D01*
X61003734Y-129728673D01*
X61003730Y-129728682D01*
X60944860Y-129948389D01*
X60944858Y-129948400D01*
X60925034Y-130174997D01*
X60925034Y-130175002D01*
X60317500Y-130175002D01*
X60317500Y-109816124D01*
X60317726Y-109808637D01*
X60321305Y-109749471D01*
X60321304Y-109749466D01*
X60315092Y-109715568D01*
X60310617Y-109691152D01*
X60309494Y-109683776D01*
X60302348Y-109624918D01*
X60298859Y-109615718D01*
X60292831Y-109594096D01*
X60291057Y-109584415D01*
X60266720Y-109530340D01*
X60263861Y-109523436D01*
X60242844Y-109468018D01*
X60237254Y-109459920D01*
X60226225Y-109440365D01*
X60222188Y-109431395D01*
X60222187Y-109431393D01*
X60185632Y-109384733D01*
X60181203Y-109378714D01*
X60147520Y-109329917D01*
X60131771Y-109315965D01*
X60103139Y-109290599D01*
X60097701Y-109285479D01*
X59531027Y-108718805D01*
X59525893Y-108713351D01*
X59486583Y-108668980D01*
X59437792Y-108635302D01*
X59431760Y-108630863D01*
X59385108Y-108594314D01*
X59385099Y-108594308D01*
X59376134Y-108590274D01*
X59356586Y-108579250D01*
X59348482Y-108573656D01*
X59348478Y-108573653D01*
X59293061Y-108552636D01*
X59286144Y-108549772D01*
X59232081Y-108525441D01*
X59232082Y-108525441D01*
X59222395Y-108523666D01*
X59200792Y-108517644D01*
X59191582Y-108514152D01*
X59132735Y-108507006D01*
X59125333Y-108505879D01*
X59067030Y-108495195D01*
X59067025Y-108495195D01*
X59007861Y-108498774D01*
X59000374Y-108499000D01*
X58068494Y-108499000D01*
X58001455Y-108479315D01*
X57962904Y-108440014D01*
X57910069Y-108354205D01*
X57752564Y-108175245D01*
X57567080Y-108025477D01*
X57413816Y-107939858D01*
X57358955Y-107909210D01*
X57134170Y-107829788D01*
X56899209Y-107789500D01*
X56899200Y-107789500D01*
X54920503Y-107789500D01*
X54920484Y-107789500D01*
X54742463Y-107804652D01*
X54511751Y-107864724D01*
X54294519Y-107962919D01*
X54294511Y-107962924D01*
X54097006Y-108096413D01*
X54096997Y-108096421D01*
X53924881Y-108261379D01*
X53783123Y-108453050D01*
X53783120Y-108453054D01*
X53675796Y-108665920D01*
X53675793Y-108665926D01*
X53605983Y-108893878D01*
X53575702Y-109130346D01*
X53585819Y-109368528D01*
X53585819Y-109368532D01*
X53636045Y-109601580D01*
X53708813Y-109782667D01*
X53724936Y-109822790D01*
X53849931Y-110025795D01*
X54007436Y-110204755D01*
X54192920Y-110354523D01*
X54366947Y-110451741D01*
X54397476Y-110468796D01*
X54401046Y-110470790D01*
X54555890Y-110525500D01*
X54625829Y-110550211D01*
X54860790Y-110590499D01*
X54860798Y-110590499D01*
X54860800Y-110590500D01*
X54860801Y-110590500D01*
X56839496Y-110590500D01*
X56839497Y-110590500D01*
X56839498Y-110590499D01*
X56839515Y-110590499D01*
X57017536Y-110575347D01*
X57017539Y-110575346D01*
X57017541Y-110575346D01*
X57248249Y-110515275D01*
X57389856Y-110451264D01*
X57465480Y-110417080D01*
X57465481Y-110417078D01*
X57465486Y-110417077D01*
X57663003Y-110283579D01*
X57835118Y-110118621D01*
X57973685Y-109931264D01*
X58029376Y-109889071D01*
X58073381Y-109881000D01*
X58687416Y-109881000D01*
X58754455Y-109900685D01*
X58775097Y-109917319D01*
X58899181Y-110041403D01*
X58932666Y-110102726D01*
X58935500Y-110129084D01*
X58935500Y-132880874D01*
X58935274Y-132888361D01*
X58931695Y-132947525D01*
X58931695Y-132947528D01*
X58942379Y-133005833D01*
X58943506Y-133013235D01*
X58950652Y-133072082D01*
X58954144Y-133081292D01*
X58960166Y-133102895D01*
X58961941Y-133112581D01*
X58986272Y-133166644D01*
X58989136Y-133173561D01*
X59010153Y-133228978D01*
X59010156Y-133228982D01*
X59015750Y-133237086D01*
X59026774Y-133256634D01*
X59030808Y-133265599D01*
X59030814Y-133265608D01*
X59067363Y-133312260D01*
X59071802Y-133318292D01*
X59105480Y-133367083D01*
X59149851Y-133406393D01*
X59155305Y-133411527D01*
X61422098Y-135678319D01*
X61455583Y-135739642D01*
X61450599Y-135809334D01*
X61408727Y-135865267D01*
X61343263Y-135889684D01*
X61334417Y-135890000D01*
X52194000Y-135890000D01*
X52126961Y-135870315D01*
X52081206Y-135817511D01*
X52070000Y-135766000D01*
X52070000Y-123890001D01*
X53579500Y-123890001D01*
X53579501Y-123890018D01*
X53590000Y-123992796D01*
X53590001Y-123992799D01*
X53645185Y-124159331D01*
X53645187Y-124159336D01*
X53677830Y-124212258D01*
X53737288Y-124308656D01*
X53861344Y-124432712D01*
X54010666Y-124524814D01*
X54177203Y-124579999D01*
X54279991Y-124590500D01*
X57480008Y-124590499D01*
X57582797Y-124579999D01*
X57749334Y-124524814D01*
X57898656Y-124432712D01*
X58022712Y-124308656D01*
X58114814Y-124159334D01*
X58169999Y-123992797D01*
X58180500Y-123890009D01*
X58180499Y-122489992D01*
X58169999Y-122387203D01*
X58114814Y-122220666D01*
X58022712Y-122071344D01*
X57898656Y-121947288D01*
X57805888Y-121890069D01*
X57749336Y-121855187D01*
X57749331Y-121855185D01*
X57747862Y-121854698D01*
X57582797Y-121800001D01*
X57582795Y-121800000D01*
X57480010Y-121789500D01*
X54279998Y-121789500D01*
X54279981Y-121789501D01*
X54177203Y-121800000D01*
X54177200Y-121800001D01*
X54010668Y-121855185D01*
X54010663Y-121855187D01*
X53861342Y-121947289D01*
X53737289Y-122071342D01*
X53645187Y-122220663D01*
X53645186Y-122220666D01*
X53590001Y-122387203D01*
X53590001Y-122387204D01*
X53590000Y-122387204D01*
X53579500Y-122489983D01*
X53579500Y-123890001D01*
X52070000Y-123890001D01*
X52070000Y-119630346D01*
X53575702Y-119630346D01*
X53585819Y-119868528D01*
X53585819Y-119868532D01*
X53636045Y-120101580D01*
X53724935Y-120322788D01*
X53724936Y-120322790D01*
X53823242Y-120482450D01*
X53849932Y-120525796D01*
X53959244Y-120649999D01*
X54007436Y-120704755D01*
X54192920Y-120854523D01*
X54401046Y-120970790D01*
X54526951Y-121015275D01*
X54625829Y-121050211D01*
X54860790Y-121090499D01*
X54860798Y-121090499D01*
X54860800Y-121090500D01*
X54860801Y-121090500D01*
X56839496Y-121090500D01*
X56839497Y-121090500D01*
X56839498Y-121090499D01*
X56839515Y-121090499D01*
X57017536Y-121075347D01*
X57017539Y-121075346D01*
X57017541Y-121075346D01*
X57248249Y-121015275D01*
X57380973Y-120955279D01*
X57465480Y-120917080D01*
X57465481Y-120917078D01*
X57465486Y-120917077D01*
X57663003Y-120783579D01*
X57835118Y-120618621D01*
X57976879Y-120426947D01*
X58084207Y-120214074D01*
X58154016Y-119986123D01*
X58184298Y-119749654D01*
X58174180Y-119511468D01*
X58149668Y-119397734D01*
X58123954Y-119278419D01*
X58102458Y-119224925D01*
X58035064Y-119057210D01*
X57910069Y-118854205D01*
X57752564Y-118675245D01*
X57567080Y-118525477D01*
X57415499Y-118440798D01*
X57358955Y-118409210D01*
X57134170Y-118329788D01*
X56899209Y-118289500D01*
X56899200Y-118289500D01*
X54920503Y-118289500D01*
X54920484Y-118289500D01*
X54742463Y-118304652D01*
X54511751Y-118364724D01*
X54294519Y-118462919D01*
X54294511Y-118462924D01*
X54097006Y-118596413D01*
X54096997Y-118596421D01*
X53924881Y-118761379D01*
X53783123Y-118953050D01*
X53783120Y-118953054D01*
X53675796Y-119165920D01*
X53675793Y-119165926D01*
X53605983Y-119393878D01*
X53575702Y-119630346D01*
X52070000Y-119630346D01*
X52070000Y-116130346D01*
X53575702Y-116130346D01*
X53585819Y-116368528D01*
X53585819Y-116368532D01*
X53636045Y-116601580D01*
X53721801Y-116814989D01*
X53724936Y-116822790D01*
X53775593Y-116905063D01*
X53849932Y-117025796D01*
X53938131Y-117126010D01*
X54007436Y-117204755D01*
X54192920Y-117354523D01*
X54401046Y-117470790D01*
X54526951Y-117515275D01*
X54625829Y-117550211D01*
X54860790Y-117590499D01*
X54860798Y-117590499D01*
X54860800Y-117590500D01*
X54860801Y-117590500D01*
X56839496Y-117590500D01*
X56839497Y-117590500D01*
X56839498Y-117590499D01*
X56839515Y-117590499D01*
X57017536Y-117575347D01*
X57017539Y-117575346D01*
X57017541Y-117575346D01*
X57248249Y-117515275D01*
X57431546Y-117432419D01*
X57465480Y-117417080D01*
X57465481Y-117417078D01*
X57465486Y-117417077D01*
X57663003Y-117283579D01*
X57835118Y-117118621D01*
X57976879Y-116926947D01*
X58084207Y-116714074D01*
X58154016Y-116486123D01*
X58184298Y-116249654D01*
X58174180Y-116011468D01*
X58171259Y-115997916D01*
X58123954Y-115778419D01*
X58035064Y-115557211D01*
X58035064Y-115557210D01*
X57910069Y-115354205D01*
X57752564Y-115175245D01*
X57567080Y-115025477D01*
X57448524Y-114959247D01*
X57358955Y-114909210D01*
X57134170Y-114829788D01*
X56899209Y-114789500D01*
X56899200Y-114789500D01*
X54920503Y-114789500D01*
X54920484Y-114789500D01*
X54742463Y-114804652D01*
X54511751Y-114864724D01*
X54294519Y-114962919D01*
X54294511Y-114962924D01*
X54097006Y-115096413D01*
X54096997Y-115096421D01*
X53924881Y-115261379D01*
X53783123Y-115453050D01*
X53783120Y-115453054D01*
X53675796Y-115665920D01*
X53675793Y-115665926D01*
X53605983Y-115893878D01*
X53575702Y-116130346D01*
X52070000Y-116130346D01*
X52070000Y-112630346D01*
X53575702Y-112630346D01*
X53585819Y-112868528D01*
X53585819Y-112868532D01*
X53636045Y-113101580D01*
X53724935Y-113322788D01*
X53724936Y-113322790D01*
X53849931Y-113525795D01*
X54007436Y-113704755D01*
X54192920Y-113854523D01*
X54401046Y-113970790D01*
X54526951Y-114015275D01*
X54625829Y-114050211D01*
X54860790Y-114090499D01*
X54860798Y-114090499D01*
X54860800Y-114090500D01*
X54860801Y-114090500D01*
X56839496Y-114090500D01*
X56839497Y-114090500D01*
X56839498Y-114090499D01*
X56839515Y-114090499D01*
X57017536Y-114075347D01*
X57017539Y-114075346D01*
X57017541Y-114075346D01*
X57248249Y-114015275D01*
X57448452Y-113924777D01*
X57465480Y-113917080D01*
X57465481Y-113917078D01*
X57465486Y-113917077D01*
X57663003Y-113783579D01*
X57835118Y-113618621D01*
X57976879Y-113426947D01*
X58084207Y-113214074D01*
X58154016Y-112986123D01*
X58184298Y-112749654D01*
X58174180Y-112511468D01*
X58173299Y-112507382D01*
X58123954Y-112278419D01*
X58062323Y-112125047D01*
X58035064Y-112057210D01*
X57910069Y-111854205D01*
X57752564Y-111675245D01*
X57567080Y-111525477D01*
X57453130Y-111461820D01*
X57358955Y-111409210D01*
X57134170Y-111329788D01*
X56899209Y-111289500D01*
X56899200Y-111289500D01*
X54920503Y-111289500D01*
X54920484Y-111289500D01*
X54742463Y-111304652D01*
X54511751Y-111364724D01*
X54294519Y-111462919D01*
X54294511Y-111462924D01*
X54097006Y-111596413D01*
X54096997Y-111596421D01*
X53924881Y-111761379D01*
X53783123Y-111953050D01*
X53783120Y-111953054D01*
X53675796Y-112165920D01*
X53675793Y-112165926D01*
X53605983Y-112393878D01*
X53575702Y-112630346D01*
X52070000Y-112630346D01*
X52070000Y-105440000D01*
X53600582Y-105440000D01*
X55334118Y-105440000D01*
X55295444Y-105533369D01*
X55274823Y-105690000D01*
X55295444Y-105846631D01*
X55334118Y-105940000D01*
X53601734Y-105940000D01*
X53636525Y-106101433D01*
X53725383Y-106322562D01*
X53850333Y-106525494D01*
X54007780Y-106704389D01*
X54007786Y-106704396D01*
X54193194Y-106854102D01*
X54193204Y-106854109D01*
X54401248Y-106970331D01*
X54625947Y-107049722D01*
X54625961Y-107049726D01*
X54860832Y-107089999D01*
X54860843Y-107090000D01*
X55630000Y-107090000D01*
X55630000Y-106235881D01*
X55723369Y-106274556D01*
X55840677Y-106290000D01*
X55919323Y-106290000D01*
X56036631Y-106274556D01*
X56130000Y-106235881D01*
X56130000Y-107090000D01*
X56839472Y-107090000D01*
X56839491Y-107089999D01*
X57017450Y-107074852D01*
X57017453Y-107074851D01*
X57248078Y-107014802D01*
X57465241Y-106916639D01*
X57465244Y-106916637D01*
X57662688Y-106783187D01*
X57662690Y-106783185D01*
X57834736Y-106618293D01*
X57976450Y-106426683D01*
X58083742Y-106213884D01*
X58153524Y-105986020D01*
X58159418Y-105940000D01*
X56425882Y-105940000D01*
X56464556Y-105846631D01*
X56485177Y-105690000D01*
X56464556Y-105533369D01*
X56425882Y-105440000D01*
X58158266Y-105440000D01*
X58158265Y-105439999D01*
X58123474Y-105278566D01*
X58034616Y-105057437D01*
X57909666Y-104854505D01*
X57752219Y-104675610D01*
X57752213Y-104675603D01*
X57566805Y-104525897D01*
X57566795Y-104525890D01*
X57358751Y-104409668D01*
X57134052Y-104330277D01*
X57134038Y-104330273D01*
X56899167Y-104290000D01*
X56130000Y-104290000D01*
X56130000Y-105144118D01*
X56036631Y-105105444D01*
X55919323Y-105090000D01*
X55840677Y-105090000D01*
X55723369Y-105105444D01*
X55630000Y-105144118D01*
X55630000Y-104290000D01*
X54920508Y-104290000D01*
X54742549Y-104305147D01*
X54742546Y-104305148D01*
X54511921Y-104365197D01*
X54294758Y-104463360D01*
X54294755Y-104463362D01*
X54097311Y-104596812D01*
X54097309Y-104596814D01*
X53925263Y-104761706D01*
X53783549Y-104953316D01*
X53676257Y-105166115D01*
X53606475Y-105393979D01*
X53600582Y-105440000D01*
X52070000Y-105440000D01*
X52070000Y-89610000D01*
X53580000Y-89610000D01*
X55334118Y-89610000D01*
X55295444Y-89703369D01*
X55274823Y-89860000D01*
X55295444Y-90016631D01*
X55334118Y-90110000D01*
X53580001Y-90110000D01*
X53580001Y-90559986D01*
X53590494Y-90662697D01*
X53645641Y-90829119D01*
X53645643Y-90829124D01*
X53737684Y-90978345D01*
X53861654Y-91102315D01*
X54010875Y-91194356D01*
X54010880Y-91194358D01*
X54177302Y-91249505D01*
X54177309Y-91249506D01*
X54280019Y-91259999D01*
X55629999Y-91259999D01*
X55630000Y-91259998D01*
X55630000Y-90405881D01*
X55723369Y-90444556D01*
X55840677Y-90460000D01*
X55919323Y-90460000D01*
X56036631Y-90444556D01*
X56130000Y-90405881D01*
X56130000Y-91259999D01*
X57479972Y-91259999D01*
X57479986Y-91259998D01*
X57582697Y-91249505D01*
X57749119Y-91194358D01*
X57749124Y-91194356D01*
X57898345Y-91102315D01*
X58022315Y-90978345D01*
X58114356Y-90829124D01*
X58114358Y-90829119D01*
X58169505Y-90662697D01*
X58169506Y-90662690D01*
X58179999Y-90559986D01*
X58180000Y-90559973D01*
X58180000Y-90110000D01*
X56425882Y-90110000D01*
X56464556Y-90016631D01*
X56485177Y-89860000D01*
X56464556Y-89703369D01*
X56425882Y-89610000D01*
X58179999Y-89610000D01*
X58179999Y-89160028D01*
X58179998Y-89160013D01*
X58169505Y-89057302D01*
X58114358Y-88890880D01*
X58114356Y-88890875D01*
X58022315Y-88741654D01*
X57898345Y-88617684D01*
X57749124Y-88525643D01*
X57749119Y-88525641D01*
X57582697Y-88470494D01*
X57582690Y-88470493D01*
X57479986Y-88460000D01*
X56130000Y-88460000D01*
X56130000Y-89314118D01*
X56036631Y-89275444D01*
X55919323Y-89260000D01*
X55840677Y-89260000D01*
X55723369Y-89275444D01*
X55630000Y-89314118D01*
X55630000Y-88460000D01*
X54280028Y-88460000D01*
X54280012Y-88460001D01*
X54177302Y-88470494D01*
X54010880Y-88525641D01*
X54010875Y-88525643D01*
X53861654Y-88617684D01*
X53737684Y-88741654D01*
X53645643Y-88890875D01*
X53645641Y-88890880D01*
X53590494Y-89057302D01*
X53590493Y-89057309D01*
X53580000Y-89160013D01*
X53580000Y-89610000D01*
X52070000Y-89610000D01*
X52070000Y-86300346D01*
X53575702Y-86300346D01*
X53585819Y-86538528D01*
X53585819Y-86538532D01*
X53636045Y-86771580D01*
X53724935Y-86992788D01*
X53724936Y-86992790D01*
X53849931Y-87195795D01*
X54007436Y-87374755D01*
X54192920Y-87524523D01*
X54401046Y-87640790D01*
X54526951Y-87685275D01*
X54625829Y-87720211D01*
X54860790Y-87760499D01*
X54860798Y-87760499D01*
X54860800Y-87760500D01*
X54860801Y-87760500D01*
X56839496Y-87760500D01*
X56839497Y-87760500D01*
X56839498Y-87760499D01*
X56839515Y-87760499D01*
X57017536Y-87745347D01*
X57017539Y-87745346D01*
X57017541Y-87745346D01*
X57248249Y-87685275D01*
X57409764Y-87612265D01*
X57465480Y-87587080D01*
X57465481Y-87587078D01*
X57465486Y-87587077D01*
X57609434Y-87489784D01*
X57662993Y-87453586D01*
X57662994Y-87453584D01*
X57663003Y-87453579D01*
X57835118Y-87288621D01*
X57976879Y-87096947D01*
X58084207Y-86884074D01*
X58154016Y-86656123D01*
X58184298Y-86419654D01*
X58174180Y-86181468D01*
X58161737Y-86123734D01*
X58123954Y-85948419D01*
X58035064Y-85727211D01*
X58035064Y-85727210D01*
X57910069Y-85524205D01*
X57752564Y-85345245D01*
X57567080Y-85195477D01*
X57421673Y-85114247D01*
X57358955Y-85079210D01*
X57134170Y-84999788D01*
X56899209Y-84959500D01*
X56899200Y-84959500D01*
X54920503Y-84959500D01*
X54920484Y-84959500D01*
X54742463Y-84974652D01*
X54511751Y-85034724D01*
X54294519Y-85132919D01*
X54294511Y-85132924D01*
X54097006Y-85266413D01*
X54096997Y-85266421D01*
X53924881Y-85431379D01*
X53783123Y-85623050D01*
X53783120Y-85623054D01*
X53675796Y-85835920D01*
X53675793Y-85835926D01*
X53605983Y-86063878D01*
X53575702Y-86300346D01*
X52070000Y-86300346D01*
X52070000Y-77594000D01*
X52089685Y-77526961D01*
X52142489Y-77481206D01*
X52194000Y-77470000D01*
X119256000Y-77470000D01*
X119323039Y-77489685D01*
G37*
%TD.AperFunction*%
%TA.AperFunction,Conductor*%
G36*
X112570507Y-118319844D02*
G01*
X112648239Y-118440798D01*
X112756900Y-118534952D01*
X112887685Y-118594680D01*
X112897466Y-118596086D01*
X112268625Y-119224925D01*
X112344594Y-119278119D01*
X112388219Y-119332696D01*
X112395413Y-119402194D01*
X112363890Y-119464549D01*
X112344595Y-119481269D01*
X112158594Y-119611508D01*
X111991505Y-119778597D01*
X111861575Y-119964158D01*
X111806998Y-120007783D01*
X111737500Y-120014977D01*
X111675145Y-119983454D01*
X111658425Y-119964158D01*
X111528494Y-119778597D01*
X111361402Y-119611506D01*
X111361401Y-119611505D01*
X111175405Y-119481269D01*
X111131781Y-119426692D01*
X111124588Y-119357193D01*
X111156110Y-119294839D01*
X111175405Y-119278119D01*
X111251373Y-119224925D01*
X110622533Y-118596086D01*
X110632315Y-118594680D01*
X110763100Y-118534952D01*
X110871761Y-118440798D01*
X110949493Y-118319844D01*
X110973076Y-118239524D01*
X111604925Y-118871373D01*
X111658425Y-118794968D01*
X111713002Y-118751344D01*
X111782501Y-118744151D01*
X111844855Y-118775673D01*
X111861576Y-118794969D01*
X111915073Y-118871372D01*
X112546922Y-118239523D01*
X112570507Y-118319844D01*
G37*
%TD.AperFunction*%
%TA.AperFunction,Conductor*%
G36*
X114144925Y-118871373D02*
G01*
X114145425Y-118870660D01*
X114200002Y-118827035D01*
X114269500Y-118819841D01*
X114331855Y-118851364D01*
X114367269Y-118911593D01*
X114371000Y-118941783D01*
X114371000Y-119817343D01*
X114351315Y-119884382D01*
X114298511Y-119930137D01*
X114229353Y-119940081D01*
X114165797Y-119911056D01*
X114145425Y-119888466D01*
X114068494Y-119778597D01*
X113901402Y-119611506D01*
X113901401Y-119611505D01*
X113715405Y-119481269D01*
X113671781Y-119426692D01*
X113664588Y-119357193D01*
X113696110Y-119294839D01*
X113715405Y-119278119D01*
X113791373Y-119224925D01*
X113162533Y-118596086D01*
X113172315Y-118594680D01*
X113303100Y-118534952D01*
X113411761Y-118440798D01*
X113489493Y-118319844D01*
X113513076Y-118239524D01*
X114144925Y-118871373D01*
G37*
%TD.AperFunction*%
%TA.AperFunction,Conductor*%
G36*
X112017281Y-116471185D02*
G01*
X112037923Y-116487819D01*
X112158599Y-116608495D01*
X112344594Y-116738730D01*
X112388218Y-116793307D01*
X112395411Y-116862806D01*
X112363889Y-116925160D01*
X112344593Y-116941880D01*
X112268626Y-116995072D01*
X112268625Y-116995072D01*
X112897466Y-117623913D01*
X112887685Y-117625320D01*
X112756900Y-117685048D01*
X112648239Y-117779202D01*
X112570507Y-117900156D01*
X112546923Y-117980476D01*
X111915072Y-117348625D01*
X111915072Y-117348626D01*
X111861574Y-117425030D01*
X111806998Y-117468655D01*
X111737499Y-117475849D01*
X111675144Y-117444326D01*
X111658424Y-117425030D01*
X111604925Y-117348626D01*
X111604925Y-117348625D01*
X110973076Y-117980475D01*
X110949493Y-117900156D01*
X110871761Y-117779202D01*
X110763100Y-117685048D01*
X110632315Y-117625320D01*
X110622533Y-117623913D01*
X111251373Y-116995073D01*
X111251373Y-116995072D01*
X111175405Y-116941880D01*
X111131780Y-116887304D01*
X111124586Y-116817805D01*
X111156108Y-116755451D01*
X111175399Y-116738734D01*
X111361401Y-116608495D01*
X111482077Y-116487819D01*
X111543400Y-116454334D01*
X111569758Y-116451500D01*
X111950242Y-116451500D01*
X112017281Y-116471185D01*
G37*
%TD.AperFunction*%
%TA.AperFunction,Conductor*%
G36*
X114274227Y-116394536D02*
G01*
X114277054Y-116397275D01*
X114334681Y-116454902D01*
X114368166Y-116516225D01*
X114371000Y-116542583D01*
X114371000Y-117278215D01*
X114351315Y-117345254D01*
X114298511Y-117391009D01*
X114229353Y-117400953D01*
X114165797Y-117371928D01*
X114145425Y-117349339D01*
X114144925Y-117348626D01*
X114144925Y-117348625D01*
X113513076Y-117980475D01*
X113489493Y-117900156D01*
X113411761Y-117779202D01*
X113303100Y-117685048D01*
X113172315Y-117625320D01*
X113162533Y-117623913D01*
X113791373Y-116995073D01*
X113791373Y-116995072D01*
X113715405Y-116941880D01*
X113671780Y-116887304D01*
X113664586Y-116817805D01*
X113696108Y-116755451D01*
X113715399Y-116738734D01*
X113901401Y-116608495D01*
X114068495Y-116441401D01*
X114087798Y-116413833D01*
X114142373Y-116370208D01*
X114211872Y-116363014D01*
X114274227Y-116394536D01*
G37*
%TD.AperFunction*%
%TA.AperFunction,Conductor*%
G36*
X112570507Y-97999844D02*
G01*
X112648239Y-98120798D01*
X112756900Y-98214952D01*
X112887685Y-98274680D01*
X112897466Y-98276086D01*
X112268625Y-98904925D01*
X112344594Y-98958119D01*
X112388219Y-99012696D01*
X112395413Y-99082194D01*
X112363890Y-99144549D01*
X112344595Y-99161269D01*
X112158594Y-99291508D01*
X111991505Y-99458597D01*
X111861575Y-99644158D01*
X111806998Y-99687783D01*
X111737500Y-99694977D01*
X111675145Y-99663454D01*
X111658425Y-99644158D01*
X111528494Y-99458597D01*
X111361402Y-99291506D01*
X111361401Y-99291505D01*
X111175405Y-99161269D01*
X111131781Y-99106692D01*
X111124588Y-99037193D01*
X111156110Y-98974839D01*
X111175405Y-98958119D01*
X111251373Y-98904925D01*
X110622533Y-98276086D01*
X110632315Y-98274680D01*
X110763100Y-98214952D01*
X110871761Y-98120798D01*
X110949493Y-97999844D01*
X110973076Y-97919524D01*
X111604925Y-98551373D01*
X111658425Y-98474968D01*
X111713002Y-98431344D01*
X111782501Y-98424151D01*
X111844855Y-98455673D01*
X111861576Y-98474969D01*
X111915073Y-98551372D01*
X112546922Y-97919523D01*
X112570507Y-97999844D01*
G37*
%TD.AperFunction*%
%TA.AperFunction,Conductor*%
G36*
X114671334Y-92148401D02*
G01*
X114727267Y-92190273D01*
X114751684Y-92255737D01*
X114752000Y-92264583D01*
X114752000Y-97579415D01*
X114732315Y-97646454D01*
X114715681Y-97667097D01*
X114589892Y-97792885D01*
X114528569Y-97826369D01*
X114458877Y-97821385D01*
X114402944Y-97779513D01*
X114378683Y-97716010D01*
X114364569Y-97554684D01*
X114364567Y-97554673D01*
X114303433Y-97326516D01*
X114303429Y-97326507D01*
X114203600Y-97112423D01*
X114203599Y-97112421D01*
X114144925Y-97028626D01*
X114144925Y-97028625D01*
X113513076Y-97660475D01*
X113489493Y-97580156D01*
X113411761Y-97459202D01*
X113303100Y-97365048D01*
X113172315Y-97305320D01*
X113162533Y-97303913D01*
X113791373Y-96675073D01*
X113714969Y-96621576D01*
X113671344Y-96566999D01*
X113664150Y-96497501D01*
X113695672Y-96435146D01*
X113714968Y-96418425D01*
X113791373Y-96364925D01*
X113162533Y-95736086D01*
X113172315Y-95734680D01*
X113303100Y-95674952D01*
X113411761Y-95580798D01*
X113489493Y-95459844D01*
X113513076Y-95379524D01*
X114144925Y-96011373D01*
X114144926Y-96011373D01*
X114203598Y-95927582D01*
X114203600Y-95927578D01*
X114303429Y-95713492D01*
X114303433Y-95713483D01*
X114364567Y-95485326D01*
X114364569Y-95485315D01*
X114385157Y-95250001D01*
X114385157Y-95249998D01*
X114364569Y-95014684D01*
X114364567Y-95014673D01*
X114303433Y-94786516D01*
X114303429Y-94786507D01*
X114203600Y-94572423D01*
X114203599Y-94572421D01*
X114144925Y-94488626D01*
X114144925Y-94488625D01*
X113513076Y-95120475D01*
X113489493Y-95040156D01*
X113411761Y-94919202D01*
X113303100Y-94825048D01*
X113172315Y-94765320D01*
X113162533Y-94763913D01*
X113791373Y-94135073D01*
X113791373Y-94135072D01*
X113715405Y-94081880D01*
X113671780Y-94027304D01*
X113664586Y-93957805D01*
X113696108Y-93895451D01*
X113715399Y-93878734D01*
X113901401Y-93748495D01*
X114068495Y-93581401D01*
X114204035Y-93387830D01*
X114303903Y-93173663D01*
X114365063Y-92945408D01*
X114385659Y-92710000D01*
X114365063Y-92474592D01*
X114357719Y-92447183D01*
X114359380Y-92377334D01*
X114389808Y-92327412D01*
X114540322Y-92176899D01*
X114601642Y-92143417D01*
X114671334Y-92148401D01*
G37*
%TD.AperFunction*%
%TA.AperFunction,Conductor*%
G36*
X112570507Y-95459844D02*
G01*
X112648239Y-95580798D01*
X112756900Y-95674952D01*
X112887685Y-95734680D01*
X112897466Y-95736086D01*
X112268625Y-96364925D01*
X112345031Y-96418425D01*
X112388655Y-96473002D01*
X112395848Y-96542501D01*
X112364326Y-96604855D01*
X112345029Y-96621576D01*
X112268625Y-96675072D01*
X112897466Y-97303913D01*
X112887685Y-97305320D01*
X112756900Y-97365048D01*
X112648239Y-97459202D01*
X112570507Y-97580156D01*
X112546923Y-97660476D01*
X111915072Y-97028625D01*
X111915072Y-97028626D01*
X111861574Y-97105030D01*
X111806998Y-97148655D01*
X111737499Y-97155849D01*
X111675144Y-97124326D01*
X111658424Y-97105030D01*
X111604925Y-97028626D01*
X111604925Y-97028625D01*
X110973076Y-97660475D01*
X110949493Y-97580156D01*
X110871761Y-97459202D01*
X110763100Y-97365048D01*
X110632315Y-97305320D01*
X110622533Y-97303913D01*
X111251373Y-96675073D01*
X111174969Y-96621576D01*
X111131344Y-96566999D01*
X111124150Y-96497501D01*
X111155672Y-96435146D01*
X111174968Y-96418425D01*
X111251373Y-96364925D01*
X110622533Y-95736086D01*
X110632315Y-95734680D01*
X110763100Y-95674952D01*
X110871761Y-95580798D01*
X110949493Y-95459844D01*
X110973076Y-95379524D01*
X111604925Y-96011373D01*
X111658425Y-95934968D01*
X111713002Y-95891344D01*
X111782501Y-95884151D01*
X111844855Y-95915673D01*
X111861576Y-95934969D01*
X111915073Y-96011372D01*
X112546922Y-95379523D01*
X112570507Y-95459844D01*
G37*
%TD.AperFunction*%
%TA.AperFunction,Conductor*%
G36*
X111604925Y-93471373D02*
G01*
X111658119Y-93395405D01*
X111712696Y-93351781D01*
X111782195Y-93344588D01*
X111844549Y-93376110D01*
X111861269Y-93395405D01*
X111991505Y-93581401D01*
X112158599Y-93748495D01*
X112344158Y-93878425D01*
X112344594Y-93878730D01*
X112388218Y-93933307D01*
X112395411Y-94002806D01*
X112363889Y-94065160D01*
X112344593Y-94081880D01*
X112268626Y-94135072D01*
X112268625Y-94135072D01*
X112897466Y-94763913D01*
X112887685Y-94765320D01*
X112756900Y-94825048D01*
X112648239Y-94919202D01*
X112570507Y-95040156D01*
X112546923Y-95120476D01*
X111915072Y-94488625D01*
X111915072Y-94488626D01*
X111861574Y-94565030D01*
X111806998Y-94608655D01*
X111737499Y-94615849D01*
X111675144Y-94584326D01*
X111658424Y-94565030D01*
X111604925Y-94488626D01*
X111604925Y-94488625D01*
X110973076Y-95120475D01*
X110949493Y-95040156D01*
X110871761Y-94919202D01*
X110763100Y-94825048D01*
X110632315Y-94765320D01*
X110622533Y-94763913D01*
X111251373Y-94135073D01*
X111174969Y-94081576D01*
X111131344Y-94026999D01*
X111124150Y-93957501D01*
X111155672Y-93895146D01*
X111174968Y-93878425D01*
X111251373Y-93824925D01*
X110622533Y-93196086D01*
X110632315Y-93194680D01*
X110763100Y-93134952D01*
X110871761Y-93040798D01*
X110949493Y-92919844D01*
X110973076Y-92839524D01*
X111604925Y-93471373D01*
G37*
%TD.AperFunction*%
%TA.AperFunction,Conductor*%
G36*
X111950720Y-91008779D02*
G01*
X111987483Y-91037766D01*
X111987677Y-91037573D01*
X111989313Y-91039209D01*
X111990354Y-91040030D01*
X111991501Y-91041397D01*
X112158597Y-91208493D01*
X112158603Y-91208498D01*
X112344158Y-91338425D01*
X112387783Y-91393002D01*
X112394977Y-91462500D01*
X112363454Y-91524855D01*
X112344158Y-91541575D01*
X112158597Y-91671505D01*
X111991505Y-91838597D01*
X111861269Y-92024595D01*
X111806692Y-92068220D01*
X111737194Y-92075414D01*
X111674839Y-92043891D01*
X111658119Y-92024595D01*
X111604925Y-91948626D01*
X111604925Y-91948625D01*
X110973076Y-92580475D01*
X110949493Y-92500156D01*
X110871761Y-92379202D01*
X110763100Y-92285048D01*
X110632315Y-92225320D01*
X110622534Y-92223913D01*
X111255789Y-91590658D01*
X111266209Y-91538808D01*
X111314823Y-91488624D01*
X111336961Y-91478796D01*
X111409334Y-91454814D01*
X111558656Y-91362712D01*
X111682712Y-91238656D01*
X111774814Y-91089334D01*
X111777662Y-91080738D01*
X111817429Y-91023294D01*
X111881944Y-90996468D01*
X111950720Y-91008779D01*
G37*
%TD.AperFunction*%
%TD*%
M02*
