%TF.GenerationSoftware,KiCad,Pcbnew,7.0.11+dfsg-1build4*%
%TF.CreationDate,2025-09-12T14:57:25+02:00*%
%TF.ProjectId,upp10a3v1.1,75707031-3061-4337-9631-2e312e6b6963,rev?*%
%TF.SameCoordinates,Original*%
%TF.FileFunction,Legend,Top*%
%TF.FilePolarity,Positive*%
%FSLAX46Y46*%
G04 Gerber Fmt 4.6, Leading zero omitted, Abs format (unit mm)*
G04 Created by KiCad (PCBNEW 7.0.11+dfsg-1build4) date 2025-09-12 14:57:25*
%MOMM*%
%LPD*%
G01*
G04 APERTURE LIST*
%ADD10C,0.150000*%
%ADD11C,0.120000*%
G04 APERTURE END LIST*
D10*
X73869684Y-133919342D02*
X73869684Y-134719342D01*
X73226826Y-133919342D02*
X73226826Y-134547914D01*
X73226826Y-134547914D02*
X73298255Y-134662200D01*
X73298255Y-134662200D02*
X73441112Y-134719342D01*
X73441112Y-134719342D02*
X73655398Y-134719342D01*
X73655398Y-134719342D02*
X73798255Y-134662200D01*
X73798255Y-134662200D02*
X73869684Y-134605057D01*
X74583969Y-133919342D02*
X74583969Y-135119342D01*
X74583969Y-133976485D02*
X74726827Y-133919342D01*
X74726827Y-133919342D02*
X75012541Y-133919342D01*
X75012541Y-133919342D02*
X75155398Y-133976485D01*
X75155398Y-133976485D02*
X75226827Y-134033628D01*
X75226827Y-134033628D02*
X75298255Y-134147914D01*
X75298255Y-134147914D02*
X75298255Y-134490771D01*
X75298255Y-134490771D02*
X75226827Y-134605057D01*
X75226827Y-134605057D02*
X75155398Y-134662200D01*
X75155398Y-134662200D02*
X75012541Y-134719342D01*
X75012541Y-134719342D02*
X74726827Y-134719342D01*
X74726827Y-134719342D02*
X74583969Y-134662200D01*
X75941112Y-133919342D02*
X75941112Y-135119342D01*
X75941112Y-133976485D02*
X76083970Y-133919342D01*
X76083970Y-133919342D02*
X76369684Y-133919342D01*
X76369684Y-133919342D02*
X76512541Y-133976485D01*
X76512541Y-133976485D02*
X76583970Y-134033628D01*
X76583970Y-134033628D02*
X76655398Y-134147914D01*
X76655398Y-134147914D02*
X76655398Y-134490771D01*
X76655398Y-134490771D02*
X76583970Y-134605057D01*
X76583970Y-134605057D02*
X76512541Y-134662200D01*
X76512541Y-134662200D02*
X76369684Y-134719342D01*
X76369684Y-134719342D02*
X76083970Y-134719342D01*
X76083970Y-134719342D02*
X75941112Y-134662200D01*
X78083970Y-134719342D02*
X77226827Y-134719342D01*
X77655398Y-134719342D02*
X77655398Y-133519342D01*
X77655398Y-133519342D02*
X77512541Y-133690771D01*
X77512541Y-133690771D02*
X77369684Y-133805057D01*
X77369684Y-133805057D02*
X77226827Y-133862200D01*
X79012541Y-133519342D02*
X79155398Y-133519342D01*
X79155398Y-133519342D02*
X79298255Y-133576485D01*
X79298255Y-133576485D02*
X79369684Y-133633628D01*
X79369684Y-133633628D02*
X79441112Y-133747914D01*
X79441112Y-133747914D02*
X79512541Y-133976485D01*
X79512541Y-133976485D02*
X79512541Y-134262200D01*
X79512541Y-134262200D02*
X79441112Y-134490771D01*
X79441112Y-134490771D02*
X79369684Y-134605057D01*
X79369684Y-134605057D02*
X79298255Y-134662200D01*
X79298255Y-134662200D02*
X79155398Y-134719342D01*
X79155398Y-134719342D02*
X79012541Y-134719342D01*
X79012541Y-134719342D02*
X78869684Y-134662200D01*
X78869684Y-134662200D02*
X78798255Y-134605057D01*
X78798255Y-134605057D02*
X78726826Y-134490771D01*
X78726826Y-134490771D02*
X78655398Y-134262200D01*
X78655398Y-134262200D02*
X78655398Y-133976485D01*
X78655398Y-133976485D02*
X78726826Y-133747914D01*
X78726826Y-133747914D02*
X78798255Y-133633628D01*
X78798255Y-133633628D02*
X78869684Y-133576485D01*
X78869684Y-133576485D02*
X79012541Y-133519342D01*
X80798255Y-134719342D02*
X80798255Y-134090771D01*
X80798255Y-134090771D02*
X80726826Y-133976485D01*
X80726826Y-133976485D02*
X80583969Y-133919342D01*
X80583969Y-133919342D02*
X80298255Y-133919342D01*
X80298255Y-133919342D02*
X80155397Y-133976485D01*
X80798255Y-134662200D02*
X80655397Y-134719342D01*
X80655397Y-134719342D02*
X80298255Y-134719342D01*
X80298255Y-134719342D02*
X80155397Y-134662200D01*
X80155397Y-134662200D02*
X80083969Y-134547914D01*
X80083969Y-134547914D02*
X80083969Y-134433628D01*
X80083969Y-134433628D02*
X80155397Y-134319342D01*
X80155397Y-134319342D02*
X80298255Y-134262200D01*
X80298255Y-134262200D02*
X80655397Y-134262200D01*
X80655397Y-134262200D02*
X80798255Y-134205057D01*
X81369683Y-133519342D02*
X82298255Y-133519342D01*
X82298255Y-133519342D02*
X81798255Y-133976485D01*
X81798255Y-133976485D02*
X82012540Y-133976485D01*
X82012540Y-133976485D02*
X82155398Y-134033628D01*
X82155398Y-134033628D02*
X82226826Y-134090771D01*
X82226826Y-134090771D02*
X82298255Y-134205057D01*
X82298255Y-134205057D02*
X82298255Y-134490771D01*
X82298255Y-134490771D02*
X82226826Y-134605057D01*
X82226826Y-134605057D02*
X82155398Y-134662200D01*
X82155398Y-134662200D02*
X82012540Y-134719342D01*
X82012540Y-134719342D02*
X81583969Y-134719342D01*
X81583969Y-134719342D02*
X81441112Y-134662200D01*
X81441112Y-134662200D02*
X81369683Y-134605057D01*
X83941111Y-133919342D02*
X84298254Y-134719342D01*
X84298254Y-134719342D02*
X84655397Y-133919342D01*
X85226825Y-134605057D02*
X85298254Y-134662200D01*
X85298254Y-134662200D02*
X85226825Y-134719342D01*
X85226825Y-134719342D02*
X85155397Y-134662200D01*
X85155397Y-134662200D02*
X85226825Y-134605057D01*
X85226825Y-134605057D02*
X85226825Y-134719342D01*
X86726826Y-134719342D02*
X85869683Y-134719342D01*
X86298254Y-134719342D02*
X86298254Y-133519342D01*
X86298254Y-133519342D02*
X86155397Y-133690771D01*
X86155397Y-133690771D02*
X86012540Y-133805057D01*
X86012540Y-133805057D02*
X85869683Y-133862200D01*
X87369682Y-134605057D02*
X87441111Y-134662200D01*
X87441111Y-134662200D02*
X87369682Y-134719342D01*
X87369682Y-134719342D02*
X87298254Y-134662200D01*
X87298254Y-134662200D02*
X87369682Y-134605057D01*
X87369682Y-134605057D02*
X87369682Y-134719342D01*
X88869683Y-134719342D02*
X88012540Y-134719342D01*
X88441111Y-134719342D02*
X88441111Y-133519342D01*
X88441111Y-133519342D02*
X88298254Y-133690771D01*
X88298254Y-133690771D02*
X88155397Y-133805057D01*
X88155397Y-133805057D02*
X88012540Y-133862200D01*
X91726825Y-133633628D02*
X91798253Y-133576485D01*
X91798253Y-133576485D02*
X91941111Y-133519342D01*
X91941111Y-133519342D02*
X92298253Y-133519342D01*
X92298253Y-133519342D02*
X92441111Y-133576485D01*
X92441111Y-133576485D02*
X92512539Y-133633628D01*
X92512539Y-133633628D02*
X92583968Y-133747914D01*
X92583968Y-133747914D02*
X92583968Y-133862200D01*
X92583968Y-133862200D02*
X92512539Y-134033628D01*
X92512539Y-134033628D02*
X91655396Y-134719342D01*
X91655396Y-134719342D02*
X92583968Y-134719342D01*
X93512539Y-133519342D02*
X93655396Y-133519342D01*
X93655396Y-133519342D02*
X93798253Y-133576485D01*
X93798253Y-133576485D02*
X93869682Y-133633628D01*
X93869682Y-133633628D02*
X93941110Y-133747914D01*
X93941110Y-133747914D02*
X94012539Y-133976485D01*
X94012539Y-133976485D02*
X94012539Y-134262200D01*
X94012539Y-134262200D02*
X93941110Y-134490771D01*
X93941110Y-134490771D02*
X93869682Y-134605057D01*
X93869682Y-134605057D02*
X93798253Y-134662200D01*
X93798253Y-134662200D02*
X93655396Y-134719342D01*
X93655396Y-134719342D02*
X93512539Y-134719342D01*
X93512539Y-134719342D02*
X93369682Y-134662200D01*
X93369682Y-134662200D02*
X93298253Y-134605057D01*
X93298253Y-134605057D02*
X93226824Y-134490771D01*
X93226824Y-134490771D02*
X93155396Y-134262200D01*
X93155396Y-134262200D02*
X93155396Y-133976485D01*
X93155396Y-133976485D02*
X93226824Y-133747914D01*
X93226824Y-133747914D02*
X93298253Y-133633628D01*
X93298253Y-133633628D02*
X93369682Y-133576485D01*
X93369682Y-133576485D02*
X93512539Y-133519342D01*
X94583967Y-133633628D02*
X94655395Y-133576485D01*
X94655395Y-133576485D02*
X94798253Y-133519342D01*
X94798253Y-133519342D02*
X95155395Y-133519342D01*
X95155395Y-133519342D02*
X95298253Y-133576485D01*
X95298253Y-133576485D02*
X95369681Y-133633628D01*
X95369681Y-133633628D02*
X95441110Y-133747914D01*
X95441110Y-133747914D02*
X95441110Y-133862200D01*
X95441110Y-133862200D02*
X95369681Y-134033628D01*
X95369681Y-134033628D02*
X94512538Y-134719342D01*
X94512538Y-134719342D02*
X95441110Y-134719342D01*
X96798252Y-133519342D02*
X96083966Y-133519342D01*
X96083966Y-133519342D02*
X96012538Y-134090771D01*
X96012538Y-134090771D02*
X96083966Y-134033628D01*
X96083966Y-134033628D02*
X96226824Y-133976485D01*
X96226824Y-133976485D02*
X96583966Y-133976485D01*
X96583966Y-133976485D02*
X96726824Y-134033628D01*
X96726824Y-134033628D02*
X96798252Y-134090771D01*
X96798252Y-134090771D02*
X96869681Y-134205057D01*
X96869681Y-134205057D02*
X96869681Y-134490771D01*
X96869681Y-134490771D02*
X96798252Y-134605057D01*
X96798252Y-134605057D02*
X96726824Y-134662200D01*
X96726824Y-134662200D02*
X96583966Y-134719342D01*
X96583966Y-134719342D02*
X96226824Y-134719342D01*
X96226824Y-134719342D02*
X96083966Y-134662200D01*
X96083966Y-134662200D02*
X96012538Y-134605057D01*
X97512537Y-134605057D02*
X97583966Y-134662200D01*
X97583966Y-134662200D02*
X97512537Y-134719342D01*
X97512537Y-134719342D02*
X97441109Y-134662200D01*
X97441109Y-134662200D02*
X97512537Y-134605057D01*
X97512537Y-134605057D02*
X97512537Y-134719342D01*
X98512538Y-133519342D02*
X98655395Y-133519342D01*
X98655395Y-133519342D02*
X98798252Y-133576485D01*
X98798252Y-133576485D02*
X98869681Y-133633628D01*
X98869681Y-133633628D02*
X98941109Y-133747914D01*
X98941109Y-133747914D02*
X99012538Y-133976485D01*
X99012538Y-133976485D02*
X99012538Y-134262200D01*
X99012538Y-134262200D02*
X98941109Y-134490771D01*
X98941109Y-134490771D02*
X98869681Y-134605057D01*
X98869681Y-134605057D02*
X98798252Y-134662200D01*
X98798252Y-134662200D02*
X98655395Y-134719342D01*
X98655395Y-134719342D02*
X98512538Y-134719342D01*
X98512538Y-134719342D02*
X98369681Y-134662200D01*
X98369681Y-134662200D02*
X98298252Y-134605057D01*
X98298252Y-134605057D02*
X98226823Y-134490771D01*
X98226823Y-134490771D02*
X98155395Y-134262200D01*
X98155395Y-134262200D02*
X98155395Y-133976485D01*
X98155395Y-133976485D02*
X98226823Y-133747914D01*
X98226823Y-133747914D02*
X98298252Y-133633628D01*
X98298252Y-133633628D02*
X98369681Y-133576485D01*
X98369681Y-133576485D02*
X98512538Y-133519342D01*
X99726823Y-134719342D02*
X100012537Y-134719342D01*
X100012537Y-134719342D02*
X100155394Y-134662200D01*
X100155394Y-134662200D02*
X100226823Y-134605057D01*
X100226823Y-134605057D02*
X100369680Y-134433628D01*
X100369680Y-134433628D02*
X100441109Y-134205057D01*
X100441109Y-134205057D02*
X100441109Y-133747914D01*
X100441109Y-133747914D02*
X100369680Y-133633628D01*
X100369680Y-133633628D02*
X100298252Y-133576485D01*
X100298252Y-133576485D02*
X100155394Y-133519342D01*
X100155394Y-133519342D02*
X99869680Y-133519342D01*
X99869680Y-133519342D02*
X99726823Y-133576485D01*
X99726823Y-133576485D02*
X99655394Y-133633628D01*
X99655394Y-133633628D02*
X99583966Y-133747914D01*
X99583966Y-133747914D02*
X99583966Y-134033628D01*
X99583966Y-134033628D02*
X99655394Y-134147914D01*
X99655394Y-134147914D02*
X99726823Y-134205057D01*
X99726823Y-134205057D02*
X99869680Y-134262200D01*
X99869680Y-134262200D02*
X100155394Y-134262200D01*
X100155394Y-134262200D02*
X100298252Y-134205057D01*
X100298252Y-134205057D02*
X100369680Y-134147914D01*
X100369680Y-134147914D02*
X100441109Y-134033628D01*
X73479819Y-132135476D02*
X73003628Y-132468809D01*
X73479819Y-132706904D02*
X72479819Y-132706904D01*
X72479819Y-132706904D02*
X72479819Y-132325952D01*
X72479819Y-132325952D02*
X72527438Y-132230714D01*
X72527438Y-132230714D02*
X72575057Y-132183095D01*
X72575057Y-132183095D02*
X72670295Y-132135476D01*
X72670295Y-132135476D02*
X72813152Y-132135476D01*
X72813152Y-132135476D02*
X72908390Y-132183095D01*
X72908390Y-132183095D02*
X72956009Y-132230714D01*
X72956009Y-132230714D02*
X73003628Y-132325952D01*
X73003628Y-132325952D02*
X73003628Y-132706904D01*
X73479819Y-131706904D02*
X72479819Y-131706904D01*
X72479819Y-131706904D02*
X73479819Y-131135476D01*
X73479819Y-131135476D02*
X72479819Y-131135476D01*
X73479819Y-130135476D02*
X73479819Y-130706904D01*
X73479819Y-130421190D02*
X72479819Y-130421190D01*
X72479819Y-130421190D02*
X72622676Y-130516428D01*
X72622676Y-130516428D02*
X72717914Y-130611666D01*
X72717914Y-130611666D02*
X72765533Y-130706904D01*
X111214819Y-82883333D02*
X111929104Y-82883333D01*
X111929104Y-82883333D02*
X112071961Y-82930952D01*
X112071961Y-82930952D02*
X112167200Y-83026190D01*
X112167200Y-83026190D02*
X112214819Y-83169047D01*
X112214819Y-83169047D02*
X112214819Y-83264285D01*
X111214819Y-82502380D02*
X111214819Y-81883333D01*
X111214819Y-81883333D02*
X111595771Y-82216666D01*
X111595771Y-82216666D02*
X111595771Y-82073809D01*
X111595771Y-82073809D02*
X111643390Y-81978571D01*
X111643390Y-81978571D02*
X111691009Y-81930952D01*
X111691009Y-81930952D02*
X111786247Y-81883333D01*
X111786247Y-81883333D02*
X112024342Y-81883333D01*
X112024342Y-81883333D02*
X112119580Y-81930952D01*
X112119580Y-81930952D02*
X112167200Y-81978571D01*
X112167200Y-81978571D02*
X112214819Y-82073809D01*
X112214819Y-82073809D02*
X112214819Y-82359523D01*
X112214819Y-82359523D02*
X112167200Y-82454761D01*
X112167200Y-82454761D02*
X112119580Y-82502380D01*
X100784819Y-81335476D02*
X100308628Y-81668809D01*
X100784819Y-81906904D02*
X99784819Y-81906904D01*
X99784819Y-81906904D02*
X99784819Y-81525952D01*
X99784819Y-81525952D02*
X99832438Y-81430714D01*
X99832438Y-81430714D02*
X99880057Y-81383095D01*
X99880057Y-81383095D02*
X99975295Y-81335476D01*
X99975295Y-81335476D02*
X100118152Y-81335476D01*
X100118152Y-81335476D02*
X100213390Y-81383095D01*
X100213390Y-81383095D02*
X100261009Y-81430714D01*
X100261009Y-81430714D02*
X100308628Y-81525952D01*
X100308628Y-81525952D02*
X100308628Y-81906904D01*
X100784819Y-80906904D02*
X99784819Y-80906904D01*
X99784819Y-80906904D02*
X100784819Y-80335476D01*
X100784819Y-80335476D02*
X99784819Y-80335476D01*
X99880057Y-79906904D02*
X99832438Y-79859285D01*
X99832438Y-79859285D02*
X99784819Y-79764047D01*
X99784819Y-79764047D02*
X99784819Y-79525952D01*
X99784819Y-79525952D02*
X99832438Y-79430714D01*
X99832438Y-79430714D02*
X99880057Y-79383095D01*
X99880057Y-79383095D02*
X99975295Y-79335476D01*
X99975295Y-79335476D02*
X100070533Y-79335476D01*
X100070533Y-79335476D02*
X100213390Y-79383095D01*
X100213390Y-79383095D02*
X100784819Y-79954523D01*
X100784819Y-79954523D02*
X100784819Y-79335476D01*
X55539166Y-93124819D02*
X55539166Y-93839104D01*
X55539166Y-93839104D02*
X55491547Y-93981961D01*
X55491547Y-93981961D02*
X55396309Y-94077200D01*
X55396309Y-94077200D02*
X55253452Y-94124819D01*
X55253452Y-94124819D02*
X55158214Y-94124819D01*
X55967738Y-93220057D02*
X56015357Y-93172438D01*
X56015357Y-93172438D02*
X56110595Y-93124819D01*
X56110595Y-93124819D02*
X56348690Y-93124819D01*
X56348690Y-93124819D02*
X56443928Y-93172438D01*
X56443928Y-93172438D02*
X56491547Y-93220057D01*
X56491547Y-93220057D02*
X56539166Y-93315295D01*
X56539166Y-93315295D02*
X56539166Y-93410533D01*
X56539166Y-93410533D02*
X56491547Y-93553390D01*
X56491547Y-93553390D02*
X55920119Y-94124819D01*
X55920119Y-94124819D02*
X56539166Y-94124819D01*
X63313333Y-134934580D02*
X63265714Y-134982200D01*
X63265714Y-134982200D02*
X63122857Y-135029819D01*
X63122857Y-135029819D02*
X63027619Y-135029819D01*
X63027619Y-135029819D02*
X62884762Y-134982200D01*
X62884762Y-134982200D02*
X62789524Y-134886961D01*
X62789524Y-134886961D02*
X62741905Y-134791723D01*
X62741905Y-134791723D02*
X62694286Y-134601247D01*
X62694286Y-134601247D02*
X62694286Y-134458390D01*
X62694286Y-134458390D02*
X62741905Y-134267914D01*
X62741905Y-134267914D02*
X62789524Y-134172676D01*
X62789524Y-134172676D02*
X62884762Y-134077438D01*
X62884762Y-134077438D02*
X63027619Y-134029819D01*
X63027619Y-134029819D02*
X63122857Y-134029819D01*
X63122857Y-134029819D02*
X63265714Y-134077438D01*
X63265714Y-134077438D02*
X63313333Y-134125057D01*
X64265714Y-135029819D02*
X63694286Y-135029819D01*
X63980000Y-135029819D02*
X63980000Y-134029819D01*
X63980000Y-134029819D02*
X63884762Y-134172676D01*
X63884762Y-134172676D02*
X63789524Y-134267914D01*
X63789524Y-134267914D02*
X63694286Y-134315533D01*
X73479819Y-82351476D02*
X73003628Y-82684809D01*
X73479819Y-82922904D02*
X72479819Y-82922904D01*
X72479819Y-82922904D02*
X72479819Y-82541952D01*
X72479819Y-82541952D02*
X72527438Y-82446714D01*
X72527438Y-82446714D02*
X72575057Y-82399095D01*
X72575057Y-82399095D02*
X72670295Y-82351476D01*
X72670295Y-82351476D02*
X72813152Y-82351476D01*
X72813152Y-82351476D02*
X72908390Y-82399095D01*
X72908390Y-82399095D02*
X72956009Y-82446714D01*
X72956009Y-82446714D02*
X73003628Y-82541952D01*
X73003628Y-82541952D02*
X73003628Y-82922904D01*
X73479819Y-81922904D02*
X72479819Y-81922904D01*
X72479819Y-81922904D02*
X73479819Y-81351476D01*
X73479819Y-81351476D02*
X72479819Y-81351476D01*
X72479819Y-80399095D02*
X72479819Y-80875285D01*
X72479819Y-80875285D02*
X72956009Y-80922904D01*
X72956009Y-80922904D02*
X72908390Y-80875285D01*
X72908390Y-80875285D02*
X72860771Y-80780047D01*
X72860771Y-80780047D02*
X72860771Y-80541952D01*
X72860771Y-80541952D02*
X72908390Y-80446714D01*
X72908390Y-80446714D02*
X72956009Y-80399095D01*
X72956009Y-80399095D02*
X73051247Y-80351476D01*
X73051247Y-80351476D02*
X73289342Y-80351476D01*
X73289342Y-80351476D02*
X73384580Y-80399095D01*
X73384580Y-80399095D02*
X73432200Y-80446714D01*
X73432200Y-80446714D02*
X73479819Y-80541952D01*
X73479819Y-80541952D02*
X73479819Y-80780047D01*
X73479819Y-80780047D02*
X73432200Y-80875285D01*
X73432200Y-80875285D02*
X73384580Y-80922904D01*
X80518095Y-79464819D02*
X80518095Y-80274342D01*
X80518095Y-80274342D02*
X80565714Y-80369580D01*
X80565714Y-80369580D02*
X80613333Y-80417200D01*
X80613333Y-80417200D02*
X80708571Y-80464819D01*
X80708571Y-80464819D02*
X80899047Y-80464819D01*
X80899047Y-80464819D02*
X80994285Y-80417200D01*
X80994285Y-80417200D02*
X81041904Y-80369580D01*
X81041904Y-80369580D02*
X81089523Y-80274342D01*
X81089523Y-80274342D02*
X81089523Y-79464819D01*
X82041904Y-79464819D02*
X81565714Y-79464819D01*
X81565714Y-79464819D02*
X81518095Y-79941009D01*
X81518095Y-79941009D02*
X81565714Y-79893390D01*
X81565714Y-79893390D02*
X81660952Y-79845771D01*
X81660952Y-79845771D02*
X81899047Y-79845771D01*
X81899047Y-79845771D02*
X81994285Y-79893390D01*
X81994285Y-79893390D02*
X82041904Y-79941009D01*
X82041904Y-79941009D02*
X82089523Y-80036247D01*
X82089523Y-80036247D02*
X82089523Y-80274342D01*
X82089523Y-80274342D02*
X82041904Y-80369580D01*
X82041904Y-80369580D02*
X81994285Y-80417200D01*
X81994285Y-80417200D02*
X81899047Y-80464819D01*
X81899047Y-80464819D02*
X81660952Y-80464819D01*
X81660952Y-80464819D02*
X81565714Y-80417200D01*
X81565714Y-80417200D02*
X81518095Y-80369580D01*
X55546666Y-101039819D02*
X55546666Y-101754104D01*
X55546666Y-101754104D02*
X55499047Y-101896961D01*
X55499047Y-101896961D02*
X55403809Y-101992200D01*
X55403809Y-101992200D02*
X55260952Y-102039819D01*
X55260952Y-102039819D02*
X55165714Y-102039819D01*
X56546666Y-102039819D02*
X55975238Y-102039819D01*
X56260952Y-102039819D02*
X56260952Y-101039819D01*
X56260952Y-101039819D02*
X56165714Y-101182676D01*
X56165714Y-101182676D02*
X56070476Y-101277914D01*
X56070476Y-101277914D02*
X55975238Y-101325533D01*
X100784819Y-132135476D02*
X100308628Y-132468809D01*
X100784819Y-132706904D02*
X99784819Y-132706904D01*
X99784819Y-132706904D02*
X99784819Y-132325952D01*
X99784819Y-132325952D02*
X99832438Y-132230714D01*
X99832438Y-132230714D02*
X99880057Y-132183095D01*
X99880057Y-132183095D02*
X99975295Y-132135476D01*
X99975295Y-132135476D02*
X100118152Y-132135476D01*
X100118152Y-132135476D02*
X100213390Y-132183095D01*
X100213390Y-132183095D02*
X100261009Y-132230714D01*
X100261009Y-132230714D02*
X100308628Y-132325952D01*
X100308628Y-132325952D02*
X100308628Y-132706904D01*
X100784819Y-131706904D02*
X99784819Y-131706904D01*
X99784819Y-131706904D02*
X100784819Y-131135476D01*
X100784819Y-131135476D02*
X99784819Y-131135476D01*
X99784819Y-130754523D02*
X99784819Y-130135476D01*
X99784819Y-130135476D02*
X100165771Y-130468809D01*
X100165771Y-130468809D02*
X100165771Y-130325952D01*
X100165771Y-130325952D02*
X100213390Y-130230714D01*
X100213390Y-130230714D02*
X100261009Y-130183095D01*
X100261009Y-130183095D02*
X100356247Y-130135476D01*
X100356247Y-130135476D02*
X100594342Y-130135476D01*
X100594342Y-130135476D02*
X100689580Y-130183095D01*
X100689580Y-130183095D02*
X100737200Y-130230714D01*
X100737200Y-130230714D02*
X100784819Y-130325952D01*
X100784819Y-130325952D02*
X100784819Y-130611666D01*
X100784819Y-130611666D02*
X100737200Y-130706904D01*
X100737200Y-130706904D02*
X100689580Y-130754523D01*
X80518095Y-117564819D02*
X80518095Y-118374342D01*
X80518095Y-118374342D02*
X80565714Y-118469580D01*
X80565714Y-118469580D02*
X80613333Y-118517200D01*
X80613333Y-118517200D02*
X80708571Y-118564819D01*
X80708571Y-118564819D02*
X80899047Y-118564819D01*
X80899047Y-118564819D02*
X80994285Y-118517200D01*
X80994285Y-118517200D02*
X81041904Y-118469580D01*
X81041904Y-118469580D02*
X81089523Y-118374342D01*
X81089523Y-118374342D02*
X81089523Y-117564819D01*
X81994285Y-117898152D02*
X81994285Y-118564819D01*
X81756190Y-117517200D02*
X81518095Y-118231485D01*
X81518095Y-118231485D02*
X82137142Y-118231485D01*
X80518095Y-98514819D02*
X80518095Y-99324342D01*
X80518095Y-99324342D02*
X80565714Y-99419580D01*
X80565714Y-99419580D02*
X80613333Y-99467200D01*
X80613333Y-99467200D02*
X80708571Y-99514819D01*
X80708571Y-99514819D02*
X80899047Y-99514819D01*
X80899047Y-99514819D02*
X80994285Y-99467200D01*
X80994285Y-99467200D02*
X81041904Y-99419580D01*
X81041904Y-99419580D02*
X81089523Y-99324342D01*
X81089523Y-99324342D02*
X81089523Y-98514819D01*
X81470476Y-98514819D02*
X82089523Y-98514819D01*
X82089523Y-98514819D02*
X81756190Y-98895771D01*
X81756190Y-98895771D02*
X81899047Y-98895771D01*
X81899047Y-98895771D02*
X81994285Y-98943390D01*
X81994285Y-98943390D02*
X82041904Y-98991009D01*
X82041904Y-98991009D02*
X82089523Y-99086247D01*
X82089523Y-99086247D02*
X82089523Y-99324342D01*
X82089523Y-99324342D02*
X82041904Y-99419580D01*
X82041904Y-99419580D02*
X81994285Y-99467200D01*
X81994285Y-99467200D02*
X81899047Y-99514819D01*
X81899047Y-99514819D02*
X81613333Y-99514819D01*
X81613333Y-99514819D02*
X81518095Y-99467200D01*
X81518095Y-99467200D02*
X81470476Y-99419580D01*
D11*
%TO.C,RN1*%
X74165000Y-132885000D02*
X76965000Y-132885000D01*
X76965000Y-132885000D02*
X76965000Y-107145000D01*
X74165000Y-130175000D02*
X76965000Y-130175000D01*
X74165000Y-107145000D02*
X74165000Y-132885000D01*
X76965000Y-107145000D02*
X74165000Y-107145000D01*
%TO.C,J3*%
X105810000Y-89670000D02*
X105810000Y-90670000D01*
X105810000Y-90670000D02*
X106810000Y-90170000D01*
X106810000Y-90170000D02*
X105810000Y-89670000D01*
X107200000Y-84960000D02*
X116320000Y-84960000D01*
X107200000Y-103360000D02*
X108510000Y-103360000D01*
X107200000Y-125860000D02*
X107200000Y-84960000D01*
X108510000Y-86260000D02*
X115010000Y-86260000D01*
X108510000Y-103360000D02*
X108510000Y-86260000D01*
X108510000Y-107460000D02*
X107200000Y-107460000D01*
X108510000Y-107460000D02*
X108510000Y-107460000D01*
X108510000Y-124560000D02*
X108510000Y-107460000D01*
X115010000Y-86260000D02*
X115010000Y-124560000D01*
X115010000Y-124560000D02*
X108510000Y-124560000D01*
X116320000Y-84960000D02*
X116320000Y-125860000D01*
X116320000Y-125860000D02*
X107200000Y-125860000D01*
%TO.C,RN2*%
X104270000Y-79205000D02*
X101470000Y-79205000D01*
X101470000Y-79205000D02*
X101470000Y-104945000D01*
X104270000Y-81915000D02*
X101470000Y-81915000D01*
X104270000Y-104945000D02*
X104270000Y-79205000D01*
X101470000Y-104945000D02*
X104270000Y-104945000D01*
%TO.C,J2*%
X51130000Y-92810000D02*
X51130000Y-90810000D01*
X52380000Y-92810000D02*
X51130000Y-92810000D01*
X51520000Y-92420000D02*
X58990000Y-92420000D01*
X58990000Y-92420000D02*
X58990000Y-83800000D01*
X52480000Y-91360000D02*
X52480000Y-88360000D01*
X53830000Y-91360000D02*
X53830000Y-90610000D01*
X58130000Y-91360000D02*
X53830000Y-91360000D01*
X53480000Y-91110000D02*
X52480000Y-91360000D01*
X53480000Y-90610000D02*
X53480000Y-91110000D01*
X53830000Y-90610000D02*
X53480000Y-90610000D01*
X58130000Y-90610000D02*
X58130000Y-91360000D01*
X53480000Y-89110000D02*
X53830000Y-89110000D01*
X53830000Y-89110000D02*
X53830000Y-88360000D01*
X53480000Y-88610000D02*
X53480000Y-89110000D01*
X52480000Y-88360000D02*
X53480000Y-88610000D01*
X53830000Y-88360000D02*
X58130000Y-88360000D01*
X58130000Y-88360000D02*
X58130000Y-89110000D01*
X52480000Y-87860000D02*
X52480000Y-84860000D01*
X53830000Y-87860000D02*
X53830000Y-87110000D01*
X58130000Y-87860000D02*
X53830000Y-87860000D01*
X53480000Y-87610000D02*
X52480000Y-87860000D01*
X53480000Y-87110000D02*
X53480000Y-87610000D01*
X53830000Y-87110000D02*
X53480000Y-87110000D01*
X58130000Y-87110000D02*
X58130000Y-87860000D01*
X53480000Y-85610000D02*
X53830000Y-85610000D01*
X53830000Y-85610000D02*
X53830000Y-84860000D01*
X53480000Y-85110000D02*
X53480000Y-85610000D01*
X52480000Y-84860000D02*
X53480000Y-85110000D01*
X53830000Y-84860000D02*
X58130000Y-84860000D01*
X58130000Y-84860000D02*
X58130000Y-85610000D01*
X51520000Y-83800000D02*
X51520000Y-92420000D01*
X58990000Y-83800000D02*
X51520000Y-83800000D01*
X58129845Y-89110353D02*
G75*
G03*
X58130000Y-90610000I1700155J-749647D01*
G01*
X58129845Y-85610353D02*
G75*
G03*
X58130000Y-87110000I1700155J-749647D01*
G01*
%TO.C,C1*%
X66980241Y-132014000D02*
X66350241Y-132014000D01*
X66665241Y-132329000D02*
X66665241Y-131699000D01*
X63480000Y-133405000D02*
X63480000Y-126945000D01*
X63440000Y-133405000D02*
X63440000Y-126945000D01*
X63400000Y-133405000D02*
X63400000Y-126945000D01*
X63360000Y-133403000D02*
X63360000Y-126947000D01*
X63320000Y-133402000D02*
X63320000Y-126948000D01*
X63280000Y-133399000D02*
X63280000Y-126951000D01*
X63240000Y-133397000D02*
X63240000Y-131215000D01*
X63240000Y-129135000D02*
X63240000Y-126953000D01*
X63200000Y-133393000D02*
X63200000Y-131215000D01*
X63200000Y-129135000D02*
X63200000Y-126957000D01*
X63160000Y-133390000D02*
X63160000Y-131215000D01*
X63160000Y-129135000D02*
X63160000Y-126960000D01*
X63120000Y-133386000D02*
X63120000Y-131215000D01*
X63120000Y-129135000D02*
X63120000Y-126964000D01*
X63080000Y-133381000D02*
X63080000Y-131215000D01*
X63080000Y-129135000D02*
X63080000Y-126969000D01*
X63040000Y-133376000D02*
X63040000Y-131215000D01*
X63040000Y-129135000D02*
X63040000Y-126974000D01*
X63000000Y-133370000D02*
X63000000Y-131215000D01*
X63000000Y-129135000D02*
X63000000Y-126980000D01*
X62960000Y-133364000D02*
X62960000Y-131215000D01*
X62960000Y-129135000D02*
X62960000Y-126986000D01*
X62920000Y-133357000D02*
X62920000Y-131215000D01*
X62920000Y-129135000D02*
X62920000Y-126993000D01*
X62880000Y-133350000D02*
X62880000Y-131215000D01*
X62880000Y-129135000D02*
X62880000Y-127000000D01*
X62840000Y-133342000D02*
X62840000Y-131215000D01*
X62840000Y-129135000D02*
X62840000Y-127008000D01*
X62800000Y-133334000D02*
X62800000Y-131215000D01*
X62800000Y-129135000D02*
X62800000Y-127016000D01*
X62759000Y-133325000D02*
X62759000Y-131215000D01*
X62759000Y-129135000D02*
X62759000Y-127025000D01*
X62719000Y-133316000D02*
X62719000Y-131215000D01*
X62719000Y-129135000D02*
X62719000Y-127034000D01*
X62679000Y-133306000D02*
X62679000Y-131215000D01*
X62679000Y-129135000D02*
X62679000Y-127044000D01*
X62639000Y-133296000D02*
X62639000Y-131215000D01*
X62639000Y-129135000D02*
X62639000Y-127054000D01*
X62599000Y-133285000D02*
X62599000Y-131215000D01*
X62599000Y-129135000D02*
X62599000Y-127065000D01*
X62559000Y-133273000D02*
X62559000Y-131215000D01*
X62559000Y-129135000D02*
X62559000Y-127077000D01*
X62519000Y-133261000D02*
X62519000Y-131215000D01*
X62519000Y-129135000D02*
X62519000Y-127089000D01*
X62479000Y-133249000D02*
X62479000Y-131215000D01*
X62479000Y-129135000D02*
X62479000Y-127101000D01*
X62439000Y-133236000D02*
X62439000Y-131215000D01*
X62439000Y-129135000D02*
X62439000Y-127114000D01*
X62399000Y-133222000D02*
X62399000Y-131215000D01*
X62399000Y-129135000D02*
X62399000Y-127128000D01*
X62359000Y-133208000D02*
X62359000Y-131215000D01*
X62359000Y-129135000D02*
X62359000Y-127142000D01*
X62319000Y-133193000D02*
X62319000Y-131215000D01*
X62319000Y-129135000D02*
X62319000Y-127157000D01*
X62279000Y-133177000D02*
X62279000Y-131215000D01*
X62279000Y-129135000D02*
X62279000Y-127173000D01*
X62239000Y-133161000D02*
X62239000Y-131215000D01*
X62239000Y-129135000D02*
X62239000Y-127189000D01*
X62199000Y-133145000D02*
X62199000Y-131215000D01*
X62199000Y-129135000D02*
X62199000Y-127205000D01*
X62159000Y-133127000D02*
X62159000Y-131215000D01*
X62159000Y-129135000D02*
X62159000Y-127223000D01*
X62119000Y-133109000D02*
X62119000Y-131215000D01*
X62119000Y-129135000D02*
X62119000Y-127241000D01*
X62079000Y-133091000D02*
X62079000Y-131215000D01*
X62079000Y-129135000D02*
X62079000Y-127259000D01*
X62039000Y-133071000D02*
X62039000Y-131215000D01*
X62039000Y-129135000D02*
X62039000Y-127279000D01*
X61999000Y-133051000D02*
X61999000Y-131215000D01*
X61999000Y-129135000D02*
X61999000Y-127299000D01*
X61959000Y-133031000D02*
X61959000Y-131215000D01*
X61959000Y-129135000D02*
X61959000Y-127319000D01*
X61919000Y-133009000D02*
X61919000Y-131215000D01*
X61919000Y-129135000D02*
X61919000Y-127341000D01*
X61879000Y-132987000D02*
X61879000Y-131215000D01*
X61879000Y-129135000D02*
X61879000Y-127363000D01*
X61839000Y-132965000D02*
X61839000Y-131215000D01*
X61839000Y-129135000D02*
X61839000Y-127385000D01*
X61799000Y-132941000D02*
X61799000Y-131215000D01*
X61799000Y-129135000D02*
X61799000Y-127409000D01*
X61759000Y-132917000D02*
X61759000Y-131215000D01*
X61759000Y-129135000D02*
X61759000Y-127433000D01*
X61719000Y-132891000D02*
X61719000Y-131215000D01*
X61719000Y-129135000D02*
X61719000Y-127459000D01*
X61679000Y-132865000D02*
X61679000Y-131215000D01*
X61679000Y-129135000D02*
X61679000Y-127485000D01*
X61639000Y-132839000D02*
X61639000Y-131215000D01*
X61639000Y-129135000D02*
X61639000Y-127511000D01*
X61599000Y-132811000D02*
X61599000Y-131215000D01*
X61599000Y-129135000D02*
X61599000Y-127539000D01*
X61559000Y-132782000D02*
X61559000Y-131215000D01*
X61559000Y-129135000D02*
X61559000Y-127568000D01*
X61519000Y-132753000D02*
X61519000Y-131215000D01*
X61519000Y-129135000D02*
X61519000Y-127597000D01*
X61479000Y-132723000D02*
X61479000Y-131215000D01*
X61479000Y-129135000D02*
X61479000Y-127627000D01*
X61439000Y-132691000D02*
X61439000Y-131215000D01*
X61439000Y-129135000D02*
X61439000Y-127659000D01*
X61399000Y-132659000D02*
X61399000Y-131215000D01*
X61399000Y-129135000D02*
X61399000Y-127691000D01*
X61359000Y-132625000D02*
X61359000Y-131215000D01*
X61359000Y-129135000D02*
X61359000Y-127725000D01*
X61319000Y-132591000D02*
X61319000Y-131215000D01*
X61319000Y-129135000D02*
X61319000Y-127759000D01*
X61279000Y-132555000D02*
X61279000Y-131215000D01*
X61279000Y-129135000D02*
X61279000Y-127795000D01*
X61239000Y-132518000D02*
X61239000Y-131215000D01*
X61239000Y-129135000D02*
X61239000Y-127832000D01*
X61199000Y-132480000D02*
X61199000Y-131215000D01*
X61199000Y-129135000D02*
X61199000Y-127870000D01*
X61159000Y-132440000D02*
X61159000Y-127910000D01*
X61119000Y-132399000D02*
X61119000Y-127951000D01*
X61079000Y-132357000D02*
X61079000Y-127993000D01*
X61039000Y-132312000D02*
X61039000Y-128038000D01*
X60999000Y-132267000D02*
X60999000Y-128083000D01*
X60959000Y-132219000D02*
X60959000Y-128131000D01*
X60919000Y-132170000D02*
X60919000Y-128180000D01*
X60879000Y-132119000D02*
X60879000Y-128231000D01*
X60839000Y-132065000D02*
X60839000Y-128285000D01*
X60799000Y-132009000D02*
X60799000Y-128341000D01*
X60759000Y-131951000D02*
X60759000Y-128399000D01*
X60719000Y-131889000D02*
X60719000Y-128461000D01*
X60679000Y-131825000D02*
X60679000Y-128525000D01*
X60639000Y-131756000D02*
X60639000Y-128594000D01*
X60599000Y-131684000D02*
X60599000Y-128666000D01*
X60559000Y-131607000D02*
X60559000Y-128743000D01*
X60519000Y-131525000D02*
X60519000Y-128825000D01*
X60479000Y-131437000D02*
X60479000Y-128913000D01*
X60439000Y-131340000D02*
X60439000Y-129010000D01*
X60399000Y-131234000D02*
X60399000Y-129116000D01*
X60359000Y-131115000D02*
X60359000Y-129235000D01*
X60319000Y-130977000D02*
X60319000Y-129373000D01*
X60279000Y-130808000D02*
X60279000Y-129542000D01*
X60239000Y-130577000D02*
X60239000Y-129773000D01*
X66750000Y-130175000D02*
G75*
G03*
X60210000Y-130175000I-3270000J0D01*
G01*
X60210000Y-130175000D02*
G75*
G03*
X66750000Y-130175000I3270000J0D01*
G01*
%TO.C,RN5*%
X76965000Y-78951000D02*
X74165000Y-78951000D01*
X74165000Y-78951000D02*
X74165000Y-104691000D01*
X76965000Y-81661000D02*
X74165000Y-81661000D01*
X76965000Y-104691000D02*
X76965000Y-78951000D01*
X74165000Y-104691000D02*
X76965000Y-104691000D01*
%TO.C,U5*%
X79315000Y-89010000D02*
X98485000Y-89010000D01*
X98485000Y-89010000D02*
X98485000Y-83710000D01*
X79315000Y-87360000D02*
X79315000Y-89010000D01*
X79315000Y-83710000D02*
X79315000Y-85360000D01*
X98485000Y-83710000D02*
X79315000Y-83710000D01*
X79315000Y-87360000D02*
G75*
G03*
X79315000Y-85360000I0J1000000D01*
G01*
%TO.C,J1*%
X51130000Y-126140000D02*
X51130000Y-124140000D01*
X52380000Y-126140000D02*
X51130000Y-126140000D01*
X51520000Y-125750000D02*
X58990000Y-125750000D01*
X58990000Y-125750000D02*
X58990000Y-103130000D01*
X52480000Y-124690000D02*
X52480000Y-121690000D01*
X53830000Y-124690000D02*
X53830000Y-123940000D01*
X58130000Y-124690000D02*
X53830000Y-124690000D01*
X53480000Y-124440000D02*
X52480000Y-124690000D01*
X53480000Y-123940000D02*
X53480000Y-124440000D01*
X53830000Y-123940000D02*
X53480000Y-123940000D01*
X58130000Y-123940000D02*
X58130000Y-124690000D01*
X53480000Y-122440000D02*
X53830000Y-122440000D01*
X53830000Y-122440000D02*
X53830000Y-121690000D01*
X53480000Y-121940000D02*
X53480000Y-122440000D01*
X52480000Y-121690000D02*
X53480000Y-121940000D01*
X53830000Y-121690000D02*
X58130000Y-121690000D01*
X58130000Y-121690000D02*
X58130000Y-122440000D01*
X52480000Y-121190000D02*
X52480000Y-118190000D01*
X53830000Y-121190000D02*
X53830000Y-120440000D01*
X58130000Y-121190000D02*
X53830000Y-121190000D01*
X53480000Y-120940000D02*
X52480000Y-121190000D01*
X53480000Y-120440000D02*
X53480000Y-120940000D01*
X53830000Y-120440000D02*
X53480000Y-120440000D01*
X58130000Y-120440000D02*
X58130000Y-121190000D01*
X53480000Y-118940000D02*
X53830000Y-118940000D01*
X53830000Y-118940000D02*
X53830000Y-118190000D01*
X53480000Y-118440000D02*
X53480000Y-118940000D01*
X52480000Y-118190000D02*
X53480000Y-118440000D01*
X53830000Y-118190000D02*
X58130000Y-118190000D01*
X58130000Y-118190000D02*
X58130000Y-118940000D01*
X52480000Y-117690000D02*
X52480000Y-114690000D01*
X53830000Y-117690000D02*
X53830000Y-116940000D01*
X58130000Y-117690000D02*
X53830000Y-117690000D01*
X53480000Y-117440000D02*
X52480000Y-117690000D01*
X53480000Y-116940000D02*
X53480000Y-117440000D01*
X53830000Y-116940000D02*
X53480000Y-116940000D01*
X58130000Y-116940000D02*
X58130000Y-117690000D01*
X53480000Y-115440000D02*
X53830000Y-115440000D01*
X53830000Y-115440000D02*
X53830000Y-114690000D01*
X53480000Y-114940000D02*
X53480000Y-115440000D01*
X52480000Y-114690000D02*
X53480000Y-114940000D01*
X53830000Y-114690000D02*
X58130000Y-114690000D01*
X58130000Y-114690000D02*
X58130000Y-115440000D01*
X52480000Y-114190000D02*
X52480000Y-111190000D01*
X53830000Y-114190000D02*
X53830000Y-113440000D01*
X58130000Y-114190000D02*
X53830000Y-114190000D01*
X53480000Y-113940000D02*
X52480000Y-114190000D01*
X53480000Y-113440000D02*
X53480000Y-113940000D01*
X53830000Y-113440000D02*
X53480000Y-113440000D01*
X58130000Y-113440000D02*
X58130000Y-114190000D01*
X53480000Y-111940000D02*
X53830000Y-111940000D01*
X53830000Y-111940000D02*
X53830000Y-111190000D01*
X53480000Y-111440000D02*
X53480000Y-111940000D01*
X52480000Y-111190000D02*
X53480000Y-111440000D01*
X53830000Y-111190000D02*
X58130000Y-111190000D01*
X58130000Y-111190000D02*
X58130000Y-111940000D01*
X52480000Y-110690000D02*
X52480000Y-107690000D01*
X53830000Y-110690000D02*
X53830000Y-109940000D01*
X58130000Y-110690000D02*
X53830000Y-110690000D01*
X53480000Y-110440000D02*
X52480000Y-110690000D01*
X53480000Y-109940000D02*
X53480000Y-110440000D01*
X53830000Y-109940000D02*
X53480000Y-109940000D01*
X58130000Y-109940000D02*
X58130000Y-110690000D01*
X53480000Y-108440000D02*
X53830000Y-108440000D01*
X53830000Y-108440000D02*
X53830000Y-107690000D01*
X53480000Y-107940000D02*
X53480000Y-108440000D01*
X52480000Y-107690000D02*
X53480000Y-107940000D01*
X53830000Y-107690000D02*
X58130000Y-107690000D01*
X58130000Y-107690000D02*
X58130000Y-108440000D01*
X52480000Y-107190000D02*
X52480000Y-104190000D01*
X53830000Y-107190000D02*
X53830000Y-106440000D01*
X58130000Y-107190000D02*
X53830000Y-107190000D01*
X53480000Y-106940000D02*
X52480000Y-107190000D01*
X53480000Y-106440000D02*
X53480000Y-106940000D01*
X53830000Y-106440000D02*
X53480000Y-106440000D01*
X58130000Y-106440000D02*
X58130000Y-107190000D01*
X53480000Y-104940000D02*
X53830000Y-104940000D01*
X53830000Y-104940000D02*
X53830000Y-104190000D01*
X53480000Y-104440000D02*
X53480000Y-104940000D01*
X52480000Y-104190000D02*
X53480000Y-104440000D01*
X53830000Y-104190000D02*
X58130000Y-104190000D01*
X58130000Y-104190000D02*
X58130000Y-104940000D01*
X51520000Y-103130000D02*
X51520000Y-125750000D01*
X58990000Y-103130000D02*
X51520000Y-103130000D01*
X58129845Y-122440353D02*
G75*
G03*
X58130000Y-123940000I1700155J-749647D01*
G01*
X58129845Y-118940353D02*
G75*
G03*
X58130000Y-120440000I1700155J-749647D01*
G01*
X58129845Y-115440353D02*
G75*
G03*
X58130000Y-116940000I1700155J-749647D01*
G01*
X58129845Y-111940353D02*
G75*
G03*
X58130000Y-113440000I1700155J-749647D01*
G01*
X58129845Y-108440353D02*
G75*
G03*
X58130000Y-109940000I1700155J-749647D01*
G01*
X58129845Y-104940353D02*
G75*
G03*
X58130000Y-106440000I1700155J-749647D01*
G01*
%TO.C,RN3*%
X101470000Y-132885000D02*
X104270000Y-132885000D01*
X104270000Y-132885000D02*
X104270000Y-107145000D01*
X101470000Y-130175000D02*
X104270000Y-130175000D01*
X101470000Y-107145000D02*
X101470000Y-132885000D01*
X104270000Y-107145000D02*
X101470000Y-107145000D01*
%TO.C,U4*%
X79315000Y-127110000D02*
X98485000Y-127110000D01*
X98485000Y-127110000D02*
X98485000Y-121810000D01*
X79315000Y-125460000D02*
X79315000Y-127110000D01*
X79315000Y-121810000D02*
X79315000Y-123460000D01*
X98485000Y-121810000D02*
X79315000Y-121810000D01*
X79315000Y-125460000D02*
G75*
G03*
X79315000Y-123460000I0J1000000D01*
G01*
%TO.C,U3*%
X79315000Y-108065000D02*
X98485000Y-108065000D01*
X98485000Y-108065000D02*
X98485000Y-102765000D01*
X79315000Y-106415000D02*
X79315000Y-108065000D01*
X79315000Y-102765000D02*
X79315000Y-104415000D01*
X98485000Y-102765000D02*
X79315000Y-102765000D01*
X79315000Y-106415000D02*
G75*
G03*
X79315000Y-104415000I0J1000000D01*
G01*
%TD*%
M02*
